<svg viewBox="0 0 163 73" fill="none" xmlns="http://www.w3.org/2000/svg"><path d="M4.8 65.36h15.58v-49.12c0-1.48.05-2.97.15-4.48l-12.95 11.01a3.8 3.8 0 0 1-1 .6 3.03 3.03 0 0 1-2.33-.15c-.41-.23-.71-.5-.92-.8l-2.83-3.87 21.55-18.55h7.34v65.36h14.26v6.84h-38.85v-6.84Zm77.05-37.31c2.9 0 5.65.49 8.25 1.46a19.5 19.5 0 0 1 11.48 10.91 22.72 22.72 0 0 1 1.72 9.1c0 3.32-.6 6.4-1.82 9.25a22.42 22.42 0 0 1-5.1 7.44 23.19 23.19 0 0 1-7.85 4.98 27.42 27.42 0 0 1-10.12 1.81c-3.64 0-6.94-.57-9.91-1.7a21.9 21.9 0 0 1-7.54-4.94 22.27 22.27 0 0 1-4.86-7.74 29.6 29.6 0 0 1-1.66-10.2c0-3.16.7-6.5 2.12-10.06a50.99 50.99 0 0 1 6.73-11.46l18.36-24.59a5.4 5.4 0 0 1 1.97-1.5c.85-.44 1.8-.66 2.89-.66h8l-25.15 31.62a20.86 20.86 0 0 1 5.72-2.71c2.09-.67 4.35-1 6.77-1Zm-18.71 21.92c0 2.32.33 4.43 1 6.34a13.91 13.91 0 0 0 2.94 4.93 13.85 13.85 0 0 0 4.76 3.21 17.5 17.5 0 0 0 6.42 1.1c2.43 0 4.62-.38 6.58-1.15a14.6 14.6 0 0 0 5-3.21c1.42-1.38 2.5-3 3.24-4.88a15.9 15.9 0 0 0 1.17-6.14c0-2.34-.37-4.45-1.11-6.33a13.33 13.33 0 0 0-8-7.9 17.69 17.69 0 0 0-6.22-1.05c-2.43 0-4.62.42-6.58 1.26a14.59 14.59 0 0 0-8.14 8.14 15.4 15.4 0 0 0-1.06 5.68Zm99.36-49.82v4.02a8.3 8.3 0 0 1-.4 2.82c-.24.74-.5 1.36-.76 1.86l-30 60.18a6.94 6.94 0 0 1-1.82 2.26c-.78.6-1.83.9-3.14.9h-6.42l30.45-59.42c.44-.84.88-1.6 1.31-2.31.48-.7 1-1.38 1.57-2.01h-37.84a2.23 2.23 0 0 1-2.23-2.21v-6.09h49.28Z" fill="#fff"/></svg>