<svg viewBox="0 0 90 54" fill="none" xmlns="http://www.w3.org/2000/svg"><path d="M2.59 26.79h6.03v-15.96c0-.78.02-1.6.07-2.45l-3.56 2.97c-.23.2-.46.33-.69.42a2.22 2.22 0 0 1-1.68-.13 2.3 2.3 0 0 1-.65-.55l-2.11-2.82 9.78-8.27h5.52v26.79h5.17v4.86h-17.88v-4.86Zm34.4-15.18c1.13 0 2.25.2 3.36.57a8.55 8.55 0 0 1 5.09 4.71 10 10 0 0 1 .81 4.21 11 11 0 0 1-.81 4.21 10.53 10.53 0 0 1-5.93 5.82c-1.4.58-2.97.87-4.68.87a12.8 12.8 0 0 1-4.72-.82 10.33 10.33 0 0 1-3.55-2.35c-.97-1-1.7-2.2-2.22-3.58a13.37 13.37 0 0 1 .15-9.3c.6-1.56 1.5-3.15 2.67-4.77l7.07-9.62c.31-.43.79-.8 1.42-1.08.63-.3 1.35-.46 2.16-.46h5.94l-9.3 11.2-.44.5-.38.48a9.35 9.35 0 0 1 3.36-.59Zm-6.99 9.97c0 .78.1 1.48.28 2.1.2.63.48 1.16.87 1.61.38.45.87.8 1.46 1.04a5.7 5.7 0 0 0 4.01-.04 4.72 4.72 0 0 0 2.57-2.67 6.03 6.03 0 0 0 .02-4.19 4.33 4.33 0 0 0-1-1.6 4.32 4.32 0 0 0-1.57-1 5.62 5.62 0 0 0-3.88.02c-.56.23-1.05.57-1.46 1.02a5 5 0 0 0-.95 1.6 6.05 6.05 0 0 0-.35 2.1Zm41-21.56v2.82c0 .8-.09 1.44-.26 1.94-.17.49-.34.9-.5 1.26l-10.96 23.4a4.22 4.22 0 0 1-1.28 1.58 3.6 3.6 0 0 1-2.22.63h-4.87l11.21-22.64a12.13 12.13 0 0 1 2.13-3.08h-13.81c-.2 0-.4-.04-.58-.11-.18-.09-.33-.2-.48-.33-.13-.14-.23-.3-.32-.48a1.35 1.35 0 0 1-.13-.56v-4.43h22.07Z" fill="#8A7B60"/><path d="M5.6 53.92h-1.3v-4.8h-1.52l-.06.53a29.32 29.32 0 0 1-.47 2.86 2.2 2.2 0 0 1-.58 1.16c-.25.22-.6.33-1.04.33a2 2 0 0 1-.63-.09v-1.01c.16.05.32.08.46.08a.4.4 0 0 0 .36-.2c.08-.12.17-.36.24-.71a65.88 65.88 0 0 0 .64-3.98h3.9v5.83Zm5.13 0h-3.56v-5.83h3.56v1.01h-2.25v1.28h2.1v1.02h-2.1v1.5h2.25v1.02Zm3.67 0h-1.3v-4.8h-1.68v-1.03h4.67v1.03h-1.68v4.8Zm9.38 0h-1.3v-2.52h-2.45v2.52h-1.32v-5.83h1.32v2.29h2.45v-2.29h1.3v5.83Zm5.35 0-.44-1.39h-2.26l-.45 1.39h-1.41l2.18-5.85h1.6l2.2 5.85h-1.42Zm-.76-2.42a1216.42 1216.42 0 0 1-.8-2.53l-.8 2.53h1.6Zm7.51 1.4h1.92v-4.8h1.3v5.82h-7.77v-5.83h1.31v4.8h1.92v-4.8h1.32v4.8Zm8.35 1.02h-3.56v-5.83h3.56v1.01h-2.25v1.28h2.1v1.02h-2.1v1.5h2.25v1.02Zm5.21-5.82v1.01h-2.6v4.81h-1.31v-5.83h3.9Zm6.48 2.9c0 .96-.25 1.7-.76 2.22-.5.52-1.24.78-2.18.78-.95 0-1.68-.26-2.19-.78-.5-.52-.76-1.26-.76-2.23s.26-1.71.76-2.22c.51-.51 1.24-.77 2.2-.77.95 0 1.67.26 2.17.77.5.52.76 1.26.76 2.23Zm-4.51 0c0 .65.13 1.14.39 1.47.26.33.65.5 1.18.5 1.04 0 1.57-.66 1.57-1.97s-.52-1.97-1.57-1.97c-.52 0-.91.16-1.18.5-.26.33-.4.82-.4 1.47Zm13.09 0c0 .96-.26 1.7-.77 2.22-.5.52-1.24.78-2.18.78-.95 0-1.68-.26-2.19-.78-.5-.52-.76-1.26-.76-2.23s.26-1.71.76-2.22c.51-.51 1.24-.77 2.2-.77.95 0 1.67.26 2.17.77.5.52.76 1.26.76 2.23Zm-4.52 0c0 .65.13 1.14.4 1.47.25.33.65.5 1.17.5 1.04 0 1.57-.66 1.57-1.97s-.52-1.97-1.56-1.97c-.53 0-.92.16-1.18.5-.27.33-.4.82-.4 1.47Zm10.69 2.92h-1.31v-4.8h-2.28v4.8h-1.3v-5.83h4.89v5.83Zm5.79-1.82c0 .6-.22 1.06-.64 1.37-.43.3-1.06.45-1.9.45h-1.7v-5.83h1.32v2.24h.42c.8 0 1.4.15 1.84.46.44.31.66.75.66 1.3Zm-2.92.8h.34c.43 0 .75-.06.95-.2.2-.13.3-.33.3-.6 0-.27-.1-.47-.3-.58a2.1 2.1 0 0 0-1-.18h-.29v1.57Zm4.98 1.02h-1.3v-5.83h1.3v5.83Zm3.95 0h-1.32v-4.8h-1.68v-1.03h4.68v1.03h-1.68v4.8Zm6.12 0-.45-1.39h-2.26l-.44 1.39h-1.42l2.19-5.85h1.6l2.19 5.85h-1.41Zm-.76-2.42a1125.61 1125.61 0 0 1-.82-2.53c-.09.34-.36 1.18-.8 2.53h1.62Z" fill="#0A3B93"/></svg>