<svg viewBox="0 0 155 20" fill="none" xmlns="http://www.w3.org/2000/svg"><path d="M77.19 17.02h-5.16v-13.8h5.16v13.8Zm-4.66-.5h4.16v-12.8h-4.16v12.8Zm11.84.5h-5.06v-13.8h10.57c1.52-.12 3.02.3 4.25 1.2a4.65 4.65 0 0 1 1.5 3.85 4.9 4.9 0 0 1-1.1 3.4c-.93 1.06-2.47 1.61-4.58 1.63h-5.57v3.72Zm-4.55-.5h4.05v-3.73h.25c.05 0 5.22.02 5.82 0 1.96-.02 3.38-.5 4.2-1.45.7-.87 1.04-1.96.97-3.07a4.18 4.18 0 0 0-1.31-3.46 5.87 5.87 0 0 0-3.92-1.08h-10.06v12.79Zm9-6.32h-4.99v-3.76h5.01a2.13 2.13 0 0 1 1.92.74c.21.35.3.75.28 1.16.02.38-.06.75-.23 1.09a2.18 2.18 0 0 1-2 .77Zm-4.48-.5h4.47c.83 0 1.34-.18 1.57-.53.12-.26.18-.55.16-.83.02-.3-.04-.6-.19-.87-.24-.36-.72-.52-1.5-.52h-4.51v2.75Zm20.48 7.53c-4.53 0-7.23-1.13-8.26-3.44a5.98 5.98 0 0 1-.34-1.38l-.04-.3h5.38l.04.22c.04.21.13.42.27.59.2.26.92.69 3.27.69 2.83 0 2.83-.5 2.83-.77 0-.45-.32-.6-2.63-.85l-.44-.04-2.47-.23c-4.24-.38-6.13-1.7-6.13-4.26 0-2.7 3.22-4.44 8.2-4.44 4.06 0 6.68 1.07 7.78 3.19.26.49.43 1.02.51 1.57l.04.29h-5.4l-.01-.23a.86.86 0 0 0-.22-.48c-.2-.27-.84-.72-2.82-.72-2.43 0-2.76.31-2.76.65 0 .44.77.6 3.22.87 1.03.08 2.68.25 3.24.32 3.55.38 5.14 1.67 5.14 4.16 0 2.1-1.46 4.59-8.4 4.59Zm-8.05-4.6c.05.32.13.65.26.96.93 2.1 3.48 3.13 7.8 3.13 3.6 0 7.89-.7 7.89-4.08 0-2.21-1.4-3.3-4.7-3.66a97.1 97.1 0 0 0-3.22-.32c-2.62-.29-3.68-.44-3.68-1.37 0-.97 1.14-1.15 3.26-1.15 1.68 0 2.76.3 3.22.91.12.15.22.32.28.51h4.37a4.56 4.56 0 0 0-.42-1.12c-1-1.93-3.47-2.91-7.33-2.91-4.67 0-7.69 1.54-7.69 3.93 0 2.28 1.7 3.4 5.66 3.76l2.48.23.44.04c2.14.23 3.09.37 3.09 1.35 0 1.06-1.22 1.27-3.34 1.27-1.95 0-3.18-.3-3.66-.87-.15-.18-.26-.4-.33-.62h-4.38Zm26.02 4.58c-5.26 0-8.16-2.13-8.16-6v-7.99h5.1v8c0 1.32 1.18 2.08 3.24 2.08 1.98 0 3.2-.79 3.2-2.07v-8h5.05v8.41c0 3.54-3.07 5.57-8.43 5.57Zm-7.66-13.48v7.49c0 4.77 4.8 5.49 7.66 5.49 2.96 0 7.93-.66 7.93-5.07v-7.91h-4.03v7.5c0 1.57-1.46 2.58-3.7 2.58-2.36 0-3.77-.97-3.77-2.6v-7.48h-4.09Zm37.45 13.3h-4.8v-6.24l-2.73 6.23h-4.2l-2.7-6.21v6.21h-4.82v-13.8h6.35l3.3 7.61 3.45-7.6h6.16l-.01 13.8Zm-4.3-.51h3.8v-12.8h-5.33l-3.8 8.36-3.6-8.35h-5.52v12.79h3.82v-8.14l3.53 8.14h3.53l3.56-8.13v8.13Zm-141.3-13.04h-4.59v13.3h12.69v-3.55h-8.1v-9.75Zm17.37-.3c-5.86 0-8.95 2.77-8.95 6.85 0 4.6 3.24 6.94 8.95 6.94 6.28 0 8.92-2.7 8.92-6.94 0-4.3-2.98-6.86-8.92-6.86Zm-.02 3.45c.4 0 .8.02 1.2.07l-5.14 5.13a4.08 4.08 0 0 1-.35-1.74c0-2.1 1.05-3.46 4.29-3.46Zm.02 6.94c-.39 0-.77-.02-1.15-.06l5.14-5.14a4 4 0 0 1 .32 1.71c0 2.03-.96 3.5-4.31 3.5Zm18.02-1.81h4.72c-.07.33-.21.63-.42.9a4.9 4.9 0 0 1-3.49 1.08 4.45 4.45 0 0 1-3.5-1.17 3.75 3.75 0 0 1-.65-2.39c-.08-.88.17-1.77.7-2.49.66-.74 1.77-1.06 3.42-1.06a4.66 4.66 0 0 1 2.96.76c.28.22.48.51.6.85h4.38a4.52 4.52 0 0 0-.4-1.6c-1.04-2.13-3.48-3.4-7.63-3.4-3.61 0-6.03 1.1-7.37 2.76a6.62 6.62 0 0 0-1.29 4.15 6.99 6.99 0 0 0 1.26 4.27c1.32 1.71 3.68 2.56 6.5 2.56 1.89.13 3.75-.4 5.29-1.5l.12 1.3h3.64v-7.88h-8.84v2.86Zm19.17-8.59c-5.86 0-8.94 2.78-8.94 6.86 0 4.6 3.23 6.94 8.94 6.94 6.29 0 8.93-2.7 8.93-6.94 0-4.3-2.98-6.86-8.93-6.86Zm-.01 3.46c.38 0 .77.02 1.16.06l-5.11 5.12a4.09 4.09 0 0 1-.34-1.72c0-2.1 1.05-3.46 4.29-3.46Zm.01 6.94c-.4 0-.79-.02-1.18-.07l5.16-5.16a4 4 0 0 1 .34 1.74c0 2.03-.96 3.5-4.32 3.5Z" fill="#fff"/></svg>