<svg viewBox="0 0 179 132" fill="none" xmlns="http://www.w3.org/2000/svg"><path d="M24.75 54.97c.32.74 1.4.99 2.44.55 1.02-.43 1.6-1.39 1.28-2.13-.32-.74-1.4-.99-2.43-.55-1.03.43-1.6 1.39-1.29 2.13Zm22.23-30.34c.16.7.92 1.12 1.7.95.78-.18 1.28-.88 1.13-1.58-.16-.7-.92-1.13-1.7-.95-.78.17-1.29.88-1.13 1.58Zm-46.1 32.59c.84.26 1.9-.75 2.37-2.25.47-1.5.18-2.93-.66-3.2-.83-.26-1.9.75-2.36 2.25-.48 1.5-.18 2.93.65 3.2Zm172.18-19.95c1 .5 2.08.4 2.38-.23.3-.62-.26-1.52-1.28-2.02-1.01-.5-2.08-.4-2.38.23-.31.62.26 1.52 1.28 2.02Zm-8.34 12.98c-.27 1.5.2 2.84 1.03 2.99.84.14 1.73-.96 2-2.46.26-1.5-.2-2.85-1.04-3-.84-.14-1.73.96-2 2.47Zm-1.28 6.87c1.14 1.07 2.61 1.35 3.3.63.68-.72.32-2.18-.81-3.25-1.13-1.07-2.6-1.35-3.3-.62-.68.72-.32 2.17.81 3.24Zm13.23-30.53c.88.43 1.87.2 2.21-.49.34-.7-.09-1.6-.97-2.04-.87-.43-1.86-.21-2.2.49-.35.7.09 1.6.96 2.04Zm-3.6 13.79c.3.68 1.29.9 2.22.5.94-.4 1.47-1.26 1.18-1.94-.3-.68-1.29-.9-2.22-.5-.94.4-1.47 1.26-1.18 1.94Zm-33.99-6.78c.56.44 1.57.09 2.25-.78.69-.88.79-1.94.23-2.38-.56-.44-1.57-.08-2.25.8-.69.87-.8 1.93-.23 2.37Zm-119.99 9.38c1.33.89 2.86.94 3.4.12.55-.82-.09-2.2-1.42-3.09-1.34-.89-2.87-.94-3.41-.12-.55.82.1 2.2 1.43 3.1Zm63.91 64.41c.84.25 1.89-.74 2.36-2.24.47-1.49.17-2.9-.66-3.17-.83-.26-1.88.74-2.35 2.23-.47 1.5-.18 2.92.65 3.18Zm-60.3-73.39c.86.56 1.88.52 2.29-.1.4-.61.05-1.57-.8-2.13-.85-.56-1.87-.52-2.28.1-.41.6-.05 1.56.8 2.13Zm-.1 19.6c.8.53 1.8.45 2.22-.2.43-.63.12-1.58-.68-2.12-.8-.53-1.8-.45-2.23.2-.42.63-.12 1.58.69 2.12Zm55.45-29.87c.36.6 1.43.6 2.4.03.96-.57 1.46-1.52 1.1-2.1-.35-.6-1.42-.62-2.39-.04-.96.57-1.46 1.52-1.1 2.11Zm-24.31 4.93c1.12.55 2.29.44 2.63-.24.33-.68-.3-1.68-1.4-2.22-1.12-.55-2.3-.44-2.63.24-.34.68.3 1.68 1.4 2.22Zm-6.39 32.67c.56.8 2.13.66 3.51-.3 1.39-.98 2.05-2.4 1.49-3.2-.56-.8-2.14-.67-3.52.3s-2.05 2.4-1.48 3.2Zm42.37 11.27c.85 1.2 3.22 1 5.3-.46 2.1-1.46 3.1-3.61 2.25-4.82-.84-1.2-3.22-1-5.3.46-2.09 1.46-3.1 3.62-2.25 4.82Zm-24.72-15.6c.53.11 1.12-.51 1.31-1.4.2-.88-.07-1.7-.6-1.81-.52-.12-1.1.5-1.3 1.4-.2.88.07 1.7.6 1.8Zm-16.88-21.23c.91.44 1.91.27 2.23-.39.33-.66-.15-1.55-1.06-2-.9-.44-1.9-.27-2.23.39-.32.65.15 1.55 1.06 2Zm57.17 37.53c.86.42 1.81.26 2.12-.36.3-.62-.14-1.47-1-1.9-.87-.42-1.82-.26-2.13.36-.3.63.14 1.48 1 1.9Zm-40.85-20.07c1.22.72 3.13-.25 4.26-2.16 1.13-1.9 1.05-4.04-.17-4.76-1.22-.73-3.13.24-4.26 2.15s-1.06 4.04.17 4.77Zm-.64-17.71c.98.92 2.24 1.16 2.83.54.58-.62.27-1.86-.7-2.78-.96-.91-2.23-1.15-2.81-.53-.59.61-.28 1.86.69 2.77Zm-9.18-.44c.34.78 1.48 1.04 2.56.58 1.08-.46 1.68-1.46 1.35-2.24-.33-.78-1.48-1.04-2.55-.58-1.08.46-1.69 1.46-1.36 2.24Zm-13.12-.48c.55.93 2.23.95 3.76.05 1.52-.9 2.3-2.4 1.74-3.33-.55-.93-2.24-.96-3.76-.05-1.52.9-2.3 2.4-1.75 3.32Zm-24.31 28.05c.67.95 2.54.79 4.19-.36 1.64-1.15 2.43-2.86 1.77-3.8-.67-.96-2.55-.8-4.2.36-1.64 1.15-2.43 2.85-1.76 3.8Zm25.24-36.05c.36.84 1.6 1.13 2.76.63 1.17-.5 1.82-1.58 1.46-2.42-.36-.85-1.6-1.13-2.76-.64-1.17.5-1.82 1.58-1.46 2.43Zm-16.42 20.64c-.27 1.54.2 2.92 1.07 3.07.86.15 1.78-.98 2.05-2.53.27-1.54-.2-2.92-1.06-3.07-.86-.15-1.78.98-2.06 2.53Zm2.41-7.62c.84.41 1.76.25 2.06-.35.3-.61-.14-1.44-.98-1.85-.84-.41-1.77-.26-2.07.35-.3.61.14 1.44.99 1.85Z" fill="#2A5EBC"/><path d="M41.73 38.23c1.09 1.04 2.51 1.31 3.17.62.67-.7.32-2.1-.77-3.14-1.1-1.03-2.52-1.3-3.18-.6-.66.69-.31 2.1.78 3.12Zm-9.59 2.28c.32.76 1.42 1.02 2.47.58 1.05-.44 1.64-1.41 1.33-2.17-.32-.75-1.43-1.01-2.48-.57-1.05.44-1.64 1.4-1.32 2.16Zm-2.72 8.43c.04 1.2.7 2.14 1.48 2.12.78-.03 1.38-1.01 1.35-2.2-.04-1.2-.7-2.15-1.48-2.12-.78.02-1.39 1-1.35 2.2Zm31.77 10.6c.35.67 1.56.72 2.7.12 1.15-.6 1.8-1.62 1.45-2.28-.34-.66-1.55-.72-2.7-.12-1.15.6-1.8 1.62-1.45 2.28Zm-10.92 7.92c.52.4 1.44.08 2.08-.73.63-.8.72-1.78.2-2.18-.5-.4-1.44-.08-2.07.73-.63.8-.72 1.78-.21 2.18Zm-8.1 1.99c-.11 1.1.39 2.06 1.1 2.13.73.08 1.4-.76 1.52-1.87.1-1.1-.39-2.06-1.11-2.13-.73-.07-1.4.77-1.51 1.87Zm10.69-47.32c.27.64 1.33.79 2.37.34 1.03-.44 1.65-1.32 1.38-1.95-.28-.64-1.34-.8-2.38-.35-1.03.45-1.65 1.33-1.37 1.96Zm8.79-2.08c2 1.33 4.28 1.41 5.1.19.82-1.23-.14-3.3-2.14-4.63-2-1.32-4.29-1.4-5.1-.18-.82 1.23.14 3.3 2.14 4.62Z" fill="#2A5EBC"/><path d="M57.52 22.1c.78.51 1.74.43 2.15-.18.4-.62.1-1.53-.67-2.05-.77-.51-1.73-.43-2.14.19-.4.61-.11 1.52.66 2.04Zm56.78 54.86c.82.55 1.85.46 2.28-.2.44-.65.13-1.63-.7-2.18-.83-.54-1.85-.46-2.29.2-.44.66-.12 1.63.7 2.18Zm-38.17-9.97c.53.87 2.1.9 3.53.05 1.42-.85 2.15-2.24 1.63-3.11-.52-.88-2.1-.9-3.52-.05-1.42.84-2.16 2.24-1.64 3.11Zm21.27 10.85c.98.48 2.02.38 2.32-.22.3-.6-.26-1.48-1.25-1.96-.98-.48-2.02-.39-2.32.22-.3.6.27 1.48 1.25 1.96Zm-5.14 25.68c.43.63 1.67.52 2.75-.24 1.08-.75 1.6-1.87 1.16-2.5-.44-.62-1.67-.51-2.75.25-1.08.75-1.6 1.87-1.16 2.5Zm19.57-11.32c.57.13 1.2-.54 1.41-1.5.21-.95-.08-1.83-.64-1.95-.57-.13-1.2.55-1.42 1.5-.2.96.08 1.83.65 1.96Zm-21.64.23c-.45 2.53.33 4.77 1.74 5.02 1.4.25 2.9-1.6 3.34-4.12.45-2.53-.33-4.77-1.73-5.02-1.41-.25-2.9 1.6-3.35 4.12Zm4.19-10.87c.88.43 1.84.26 2.15-.37.31-.63-.15-1.5-1.02-1.92-.88-.43-1.84-.27-2.15.37-.31.63.14 1.49 1.02 1.92Zm14.14 17.89c.61.36 1.56-.12 2.12-1.07.56-.95.53-2.01-.08-2.37-.6-.36-1.56.12-2.12 1.07-.56.95-.52 2.01.08 2.37Zm-45.28-30.41c1.82.89 3.87.44 4.58-1 .7-1.44-.19-3.34-2-4.23-1.82-.89-3.87-.44-4.58 1s.19 3.33 2 4.23Zm36.91 28.17c.04 1.17.69 2.1 1.45 2.07.76-.02 1.35-.99 1.32-2.15-.04-1.17-.69-2.1-1.45-2.07-.77.02-1.35.99-1.32 2.15Zm-21.89 9.42c.37.63 1.5.64 2.52.04s1.54-1.6 1.17-2.23c-.37-.62-1.5-.64-2.52-.03-1.02.6-1.54 1.6-1.17 2.22Zm-3.2-24.38c1.01.5 2.09.4 2.4-.23.3-.62-.27-1.53-1.3-2.03-1-.5-2.08-.4-2.39.23-.3.62.27 1.53 1.29 2.03Zm76.34-.25c1 .49 2.06.4 2.36-.22.3-.62-.26-1.51-1.27-2-1-.5-2.06-.4-2.36.22-.3.61.27 1.5 1.27 2Zm-81.15 23.89c.6.86 2.3.71 3.8-.33s2.21-2.59 1.6-3.45c-.6-.86-2.3-.72-3.8.33-1.48 1.04-2.2 2.59-1.6 3.45Zm-21.05-33.41c2.29.72 4.47.27 4.87-1 .4-1.27-1.14-2.88-3.43-3.6-2.3-.72-4.47-.27-4.87 1-.4 1.27 1.13 2.88 3.42 3.6Zm-15.56.53c.83.41 1.75.25 2.05-.35.3-.6-.14-1.43-.98-1.83-.83-.41-1.75-.26-2.05.35-.3.6.14 1.42.98 1.83Zm56.04 33.29c.59.36 1.5-.1 2.06-1.03.54-.93.5-1.96-.08-2.3-.6-.36-1.52.11-2.07 1.03-.54.93-.5 1.96.09 2.3Zm-39.32-19.38c.46.66 1.75.55 2.88-.24 1.13-.8 1.67-1.97 1.21-2.62-.46-.65-1.74-.54-2.87.25-1.13.8-1.68 1.96-1.22 2.61Z" fill="#2A5EBC"/><path d="M47.85 89.7c.6.35 1.55-.13 2.11-1.08.56-.94.53-2-.08-2.36-.6-.36-1.55.12-2.11 1.07-.56.95-.53 2 .08 2.36Zm-37.85-6.14c.43.63 1.66.52 2.74-.24 1.07-.75 1.6-1.86 1.16-2.48-.44-.62-1.67-.52-2.74.24-1.08.75-1.6 1.86-1.16 2.48Zm-2.59 2.81c.6.35 1.53-.12 2.08-1.05s.5-1.97-.09-2.32c-.6-.35-1.52.12-2.07 1.05-.55.93-.51 1.97.08 2.32Zm74.51-14.66c.44.63 1.68.52 2.77-.24s1.61-1.88 1.17-2.51c-.44-.63-1.68-.52-2.77.24-1.08.76-1.6 1.89-1.17 2.51Zm-2.56 2.79c.6.34 1.52-.12 2.06-1.05.55-.92.51-1.96-.08-2.3-.6-.36-1.52.11-2.06 1.04-.55.92-.52 1.96.08 2.3Zm69.19-29.76c.43.6 1.62.5 2.66-.23s1.54-1.81 1.12-2.41c-.42-.6-1.61-.5-2.66.23-1.04.73-1.54 1.8-1.12 2.4Zm-2.67 2.87c.6.36 1.55-.12 2.1-1.06.57-.95.53-2-.07-2.36-.61-.36-1.55.12-2.11 1.07-.56.94-.52 2 .08 2.35Zm-59.63 40.89c.98.92 2.24 1.16 2.83.54.6-.62.28-1.87-.7-2.8-.97-.92-2.24-1.16-2.83-.54-.59.62-.28 1.87.7 2.8Zm2.28-9.93c1.54.75 3.28.37 3.88-.85.6-1.22-.16-2.82-1.7-3.57-1.54-.76-3.27-.38-3.87.84-.6 1.22.16 2.82 1.7 3.58Zm-10.93 11.83c.33.76 1.44 1.02 2.5.57 1.05-.45 1.64-1.43 1.31-2.19-.32-.76-1.44-1.01-2.49-.56-1.05.44-1.64 1.42-1.32 2.18Zm-17.22 23.59c.05 1.6.95 2.89 2 2.85 1.05-.03 1.87-1.36 1.82-2.97-.05-1.61-.95-2.9-2-2.86-1.05.03-1.87 1.37-1.82 2.98Zm107.1-76.83c.34.64 1.53.7 2.65.11 1.12-.59 1.76-1.59 1.42-2.23-.34-.65-1.53-.7-2.65-.12-1.12.59-1.76 1.59-1.42 2.23Zm-88.05 84.09c.13.74.6 1.27 1.06 1.18.45-.08.7-.74.57-1.48-.14-.73-.61-1.26-1.06-1.17-.45.08-.7.74-.57 1.47Zm-9.82-1.21c.53.2 1.22-.37 1.54-1.26.32-.9.15-1.77-.38-1.96-.52-.19-1.21.38-1.53 1.27-.33.89-.16 1.76.37 1.95Zm16.65 1.6c.76.23 1.71-.67 2.14-2.03.43-1.36.16-2.65-.6-2.88-.75-.24-1.7.67-2.13 2.02-.43 1.36-.16 2.65.6 2.89Zm-1.26 8.07c.83.54 1.81.5 2.2-.09.4-.59.06-1.51-.76-2.06-.82-.54-1.81-.5-2.2.09-.4.6-.06 1.51.77 2.06Zm-13.33-13.58c.54.41 1.5.08 2.15-.76.66-.83.76-1.85.22-2.26-.53-.42-1.5-.08-2.15.75-.65.84-.75 1.85-.22 2.27Zm55.22-33.78c.86.57 1.9.53 2.3-.1.42-.61.06-1.58-.8-2.15-.86-.57-1.9-.53-2.31.09-.42.62-.05 1.59.8 2.16Zm-4.76 3.25c.32 1.12 1.84 1.68 3.4 1.25 1.56-.44 2.57-1.7 2.25-2.83-.31-1.13-1.83-1.69-3.4-1.25-1.55.43-2.56 1.7-2.25 2.83Zm35.12-60.45c.36.82 1.72 1.02 3.06.44 1.33-.57 2.13-1.7 1.78-2.52-.36-.82-1.73-1.02-3.06-.44-1.34.57-2.13 1.7-1.78 2.52Zm-81.75 72.05c.9.43 1.88.27 2.2-.37.31-.65-.15-1.52-1.04-1.96-.9-.44-1.87-.27-2.19.37-.32.64.15 1.52 1.04 1.96Zm-3.42-2.82c.27.63 1.32.78 2.34.34 1.02-.44 1.62-1.3 1.35-1.93-.27-.62-1.31-.77-2.33-.34-1.02.44-1.63 1.3-1.36 1.93Zm-35.51-64.85c.89.44 1.86.27 2.18-.37.32-.64-.15-1.52-1.04-1.95-.88-.44-1.86-.27-2.18.37-.31.65.15 1.52 1.04 1.95Zm-3.57-2.75c.27.63 1.32.79 2.35.34 1.03-.44 1.65-1.31 1.37-1.94-.27-.63-1.32-.78-2.35-.34s-1.65 1.31-1.38 1.94Zm68.83 104.56c1.25.83 2.68.88 3.19.12.5-.77-.1-2.06-1.34-2.9-1.25-.82-2.68-.87-3.19-.1-.5.76.1 2.05 1.34 2.88Zm5.77-19.68c.4.76 1.79.82 3.1.14 1.32-.7 2.07-1.87 1.67-2.63-.4-.76-1.8-.82-3.11-.13-1.32.68-2.07 1.86-1.67 2.62Zm-15.35 9.29c1.12.4 2.58-.8 3.27-2.69.68-1.89.32-3.74-.8-4.15-1.12-.4-2.58.8-3.27 2.69-.68 1.89-.32 3.75.8 4.15Zm5.9-12.01c.68.78 2.35.45 3.72-.74 1.37-1.2 1.93-2.8 1.24-3.58-.68-.78-2.34-.44-3.71.75s-1.93 2.79-1.25 3.57Zm13.48 8.51c.87.27 1.97-.77 2.46-2.33.5-1.56.18-3.05-.69-3.32-.86-.27-1.97.78-2.46 2.34-.49 1.55-.18 3.04.69 3.31Zm23.43-108.27c.37.7 1.67.76 2.9.12 1.24-.64 1.94-1.74 1.56-2.46-.37-.7-1.67-.76-2.9-.12-1.24.64-1.94 1.74-1.56 2.46Zm3.82 6.09c.93.3 2.12-.83 2.65-2.51.53-1.69.2-3.29-.74-3.58-.93-.3-2.12.83-2.65 2.52-.53 1.68-.2 3.28.74 3.57Zm-35.43 111.84c1.56 1.04 3.45.97 4.2-.17.76-1.13.1-2.9-1.47-3.93-1.57-1.04-3.45-.97-4.2.17-.76 1.13-.1 2.9 1.47 3.93Zm-8.43-15.72c.5.39 1.4.07 2.03-.72.61-.78.7-1.74.2-2.13-.5-.4-1.41-.08-2.03.71-.61.79-.7 1.74-.2 2.14Zm-27.56-2.63c.5.4 1.41.08 2.03-.71.62-.79.7-1.75.2-2.14-.5-.4-1.41-.08-2.03.71-.62.79-.7 1.75-.2 2.14Zm24.04 18.12c.87 1.06 2.12 1.47 2.8.92.68-.55.53-1.85-.33-2.91-.87-1.06-2.11-1.47-2.8-.92-.67.55-.52 1.85.34 2.91Zm6.42-4.88c.27.95 1.56 1.42 2.89 1.06 1.33-.37 2.18-1.45 1.91-2.4-.26-.97-1.55-1.44-2.88-1.07-1.33.37-2.18 1.44-1.92 2.4Zm-63.98-84.65c1.58 1.04 3.47.97 4.23-.17.76-1.14.1-2.91-1.48-3.96-1.57-1.04-3.47-.97-4.23.17-.75 1.14-.1 2.91 1.48 3.96Zm-5.67-5.09c.28 1.02 1.66 1.53 3.08 1.14 1.41-.4 2.33-1.54 2.04-2.57-.28-1.02-1.66-1.53-3.08-1.13-1.41.4-2.33 1.54-2.04 2.56Zm40.82 57.61c1.52 1 3.35.94 4.08-.16.73-1.1.1-2.81-1.43-3.82-1.52-1.01-3.35-.94-4.08.16-.73 1.1-.1 2.8 1.43 3.82Zm-5.68-5.03c.28 1 1.64 1.5 3.02 1.12 1.4-.39 2.3-1.52 2.01-2.52-.28-1-1.63-1.5-3.02-1.12-1.4.4-2.29 1.52-2 2.52Zm50.49 1.83c1.53 1.02 3.39.95 4.13-.17.75-1.12.1-2.85-1.45-3.88-1.54-1.02-3.4-.95-4.14.17-.74 1.12-.1 2.85 1.45 3.88Zm-5.5-5.11c.27.94 1.53 1.4 2.82 1.04 1.3-.36 2.13-1.4 1.87-2.34-.26-.93-1.52-1.4-2.81-1.04-1.3.36-2.13 1.41-1.87 2.34Zm-6.81 10.11c1.57 1.05 3.47.97 4.22-.17.76-1.14.1-2.9-1.48-3.95-1.57-1.05-3.46-.97-4.22.17-.76 1.14-.1 2.9 1.48 3.95Zm-5.48-5.14c.26.94 1.53 1.41 2.84 1.05 1.3-.37 2.14-1.42 1.88-2.36-.26-.94-1.53-1.41-2.84-1.05-1.3.36-2.14 1.42-1.88 2.36Zm19.38-35.89c1.12.75 2.46.7 3-.12.54-.8.07-2.07-1.05-2.8-1.12-.75-2.47-.7-3 .11-.55.81-.07 2.07 1.05 2.81Zm17.21 11.9c1.12.75 2.46.7 3-.12.54-.8.07-2.06-1.05-2.8-1.12-.75-2.47-.7-3 .11-.55.81-.07 2.07 1.05 2.81Zm-30.6 49.47c-.1 1.1.4 2.06 1.11 2.13.72.07 1.4-.77 1.5-1.87.12-1.1-.38-2.06-1.1-2.13-.72-.07-1.4.77-1.5 1.87Zm23.18-8.31c.82.4 1.72.24 2.01-.35.3-.6-.13-1.4-.95-1.8-.82-.4-1.72-.25-2.02.34-.29.6.14 1.4.96 1.8Z" fill="#2A5EBC"/><path d="M66.55 82c.62.37 1.59-.11 2.16-1.08.57-.97.54-2.06-.08-2.42-.62-.37-1.6.12-2.17 1.1-.57.96-.53 2.04.09 2.4Zm4.04-7.3c.33.63 1.48.68 2.58.11 1.09-.57 1.7-1.54 1.38-2.17-.33-.63-1.49-.68-2.58-.11-1.1.57-1.71 1.54-1.38 2.17Zm-5.36-.59c.58.46 1.62.09 2.33-.82.72-.9.82-2 .24-2.46-.58-.45-1.62-.08-2.33.82-.72.9-.82 2.01-.24 2.46Zm-34.43 14.17c1.87.91 3.98.45 4.71-1.03.73-1.49-.2-3.43-2.06-4.35-1.87-.92-3.98-.46-4.7 1.03-.74 1.48.18 3.43 2.05 4.35Zm2.4 4.87c.55.42 1.52.08 2.18-.76.66-.84.75-1.87.22-2.29-.54-.42-1.51-.08-2.17.77-.66.84-.76 1.86-.22 2.28Zm25.28-19.38c-.11 1.08.37 2.01 1.08 2.08.7.07 1.36-.75 1.47-1.82.1-1.08-.38-2.01-1.08-2.09-.7-.07-1.37.75-1.48 1.83Zm75.66 6.79c.4.58 1.54.48 2.54-.22s1.48-1.73 1.08-2.3c-.4-.58-1.55-.49-2.55.21-1 .7-1.48 1.74-1.07 2.31Zm-15.39 1.02c.42.6 1.58.49 2.61-.23 1.03-.72 1.53-1.78 1.1-2.37-.4-.6-1.58-.5-2.6.22-1.03.72-1.53 1.79-1.11 2.38Zm-48.62-20.02c-.25 1.43.19 2.7.98 2.84.8.14 1.65-.9 1.9-2.33.25-1.43-.19-2.7-.99-2.84-.79-.14-1.64.9-1.9 2.33Zm61.33 19.37c.61.36 1.56-.12 2.13-1.07.56-.96.53-2.02-.09-2.38-.6-.36-1.56.12-2.12 1.07-.57.96-.53 2.02.08 2.38Zm-12.62-6.54c.05 1.64.96 2.95 2.03 2.91 1.08-.03 1.9-1.39 1.85-3.03-.05-1.64-.96-2.95-2.03-2.91-1.08.03-1.9 1.39-1.85 3.03Zm6.72 37.67c1.5 1 3.22 1.06 3.84.14.62-.92-.1-2.48-1.61-3.48s-3.23-1.07-3.85-.14c-.61.92.1 2.48 1.62 3.48Zm6.98-24.39c.32.6 1.43.65 2.48.1s1.65-1.48 1.33-2.09c-.31-.6-1.43-.66-2.48-.1-1.05.54-1.65 1.48-1.33 2.09Zm-17.44-46.29c.14.72.61 1.24 1.06 1.16.44-.08.7-.73.56-1.46-.13-.72-.6-1.24-1.05-1.16-.44.08-.7.74-.56 1.46Zm15.6 57.96c.82.26 1.84-.72 2.3-2.18.46-1.45.18-2.84-.63-3.1-.81-.24-1.84.73-2.3 2.19-.46 1.45-.17 2.84.64 3.1Z" fill="#2A5EBC"/><path d="M130.79 101.69c.8.53 1.75.49 2.14-.09.38-.57.05-1.47-.75-2s-1.75-.5-2.14.09c-.38.57-.05 1.47.75 2Zm-13.78-10.77c.55.43 1.54.08 2.22-.78.67-.86.77-1.9.22-2.33-.55-.43-1.54-.08-2.21.78-.68.86-.78 1.9-.23 2.33Zm34.99-36.15c.57.45 1.62.08 2.32-.82.7-.9.81-2 .24-2.45-.58-.45-1.62-.08-2.33.82-.7.9-.81 2-.23 2.45Zm-37.41 50.89c.96 1.18 2.35 1.64 3.11 1.02.76-.61.6-2.07-.37-3.25-.96-1.18-2.35-1.64-3.11-1.02-.76.61-.6 2.06.37 3.25Zm4.27 6.87c.94.62 2.1.52 2.6-.22.49-.74.13-1.85-.8-2.47-.94-.62-2.1-.52-2.6.22-.49.75-.13 1.85.8 2.47Zm6.55-21.68c-.21 2.15.75 4 2.16 4.15 1.4.14 2.72-1.5 2.93-3.64.21-2.15-.75-4-2.16-4.15-1.4-.14-2.71 1.5-2.93 3.64Zm10.85 4.02c.47.17 1.08-.33 1.37-1.12.28-.8.13-1.57-.34-1.74-.47-.17-1.08.33-1.37 1.12-.28.8-.13 1.57.34 1.74Zm1.24-7.23c.56.43 1.56.08 2.23-.79.68-.86.78-1.91.23-2.34-.55-.44-1.55-.09-2.23.78-.68.87-.78 1.92-.23 2.35Zm.07 12.12c.85 1.04 2.07 1.44 2.74.9.66-.53.52-1.81-.33-2.85-.84-1.04-2.07-1.44-2.73-.9-.67.53-.52 1.81.32 2.85Zm-34.03 4.79c.85.56 1.9.47 2.35-.2.45-.68.13-1.68-.72-2.25-.86-.56-1.91-.47-2.36.2-.45.68-.12 1.68.73 2.25Zm34.59-9.65c.3 1.08 1.75 1.62 3.24 1.2 1.48-.41 2.45-1.62 2.15-2.7-.3-1.07-1.76-1.6-3.24-1.19-1.5.42-2.45 1.62-2.15 2.7Zm-75.83-50.26c.81.53 1.78.5 2.16-.09.4-.58.05-1.48-.75-2.02-.8-.53-1.77-.49-2.15.1-.4.57-.05 1.48.75 2Zm8.39-8.21c.5.18 1.14-.36 1.45-1.2.3-.83.14-1.66-.36-1.84-.5-.18-1.14.36-1.45 1.2-.3.83-.14 1.66.36 1.84Zm1.33 4.8c.85 1.04 2.08 1.44 2.74.9.67-.54.52-1.82-.32-2.86-.85-1.04-2.08-1.44-2.74-.9-.67.54-.52 1.82.32 2.86Zm.44-4.83c.32 1.12 1.83 1.68 3.38 1.25 1.55-.44 2.55-1.7 2.24-2.81-.31-1.12-1.82-1.68-3.37-1.25-1.56.44-2.56 1.7-2.25 2.81Zm56.51 8.12c1.02.46 2.38-.3 3.03-1.72.65-1.42.35-2.94-.68-3.41-1.03-.47-2.39.3-3.04 1.71-.65 1.42-.34 2.95.69 3.42Zm-17.45 22.3c.5.18 1.15-.35 1.45-1.2.3-.83.14-1.65-.35-1.83-.5-.18-1.15.35-1.45 1.19-.3.84-.15 1.66.35 1.84Zm-.9-4.72c.88 1.09 2.17 1.51 2.87.95.7-.57.54-1.91-.34-3-.9-1.1-2.18-1.52-2.88-.95-.7.57-.54 1.9.35 3Zm.18-4.61c.31 1.14 1.85 1.7 3.43 1.27 1.58-.44 2.6-1.73 2.28-2.87-.32-1.14-1.85-1.7-3.43-1.26-1.58.44-2.6 1.72-2.29 2.86Zm12.4 3.43c.32 1.13 1.83 1.69 3.4 1.26 1.55-.44 2.56-1.7 2.25-2.83-.32-1.12-1.84-1.68-3.4-1.25-1.56.43-2.56 1.7-2.25 2.82Zm24.68 22.28c-.12 1.16.4 2.16 1.16 2.24.76.08 1.47-.8 1.6-1.97.1-1.17-.41-2.17-1.18-2.25-.76-.07-1.47.81-1.58 1.98Zm-53.03-66.52c.73.13 1.5-.72 1.7-1.9.22-1.18-.2-2.25-.92-2.38-.73-.13-1.5.72-1.7 1.9-.22 1.18.2 2.25.92 2.38Zm5 18.82c.3.7 1.49.89 2.65.4s1.86-1.46 1.56-2.17c-.3-.71-1.49-.9-2.65-.4-1.16.48-1.86 1.45-1.56 2.16Zm-.06 10.1c-.18 1.7.48 3.18 1.47 3.28 1 .1 1.94-1.2 2.12-2.9.18-1.72-.48-3.2-1.47-3.3-1-.1-1.94 1.2-2.12 2.92Zm24.95 21.55c.28.65 1.24.87 2.14.5.9-.39 1.41-1.23 1.14-1.88-.28-.66-1.24-.88-2.14-.5-.9.38-1.41 1.22-1.14 1.88Zm-17.82-34.77c.34 1 1.13 1.65 1.77 1.43.65-.21.9-1.2.56-2.2-.33-1-1.13-1.64-1.77-1.43-.64.21-.9 1.2-.56 2.2Zm-25.25-10.51c.33.78 1.4 1.08 2.39.67.99-.42 1.52-1.4 1.19-2.18-.33-.78-1.4-1.08-2.4-.67-.98.42-1.51 1.4-1.18 2.18Zm-10.2 25.03c.28.67 1.39.84 2.48.38 1.09-.45 1.74-1.36 1.46-2.03-.28-.66-1.39-.84-2.48-.38-1.09.46-1.74 1.37-1.46 2.03Zm1 20.86c1 1.22 2.35 1.77 3.02 1.22.68-.55.43-1.98-.56-3.2-1-1.23-2.35-1.77-3.03-1.22-.68.55-.42 1.98.57 3.2Zm13.54-18.69c1.47.63 2.94.48 3.3-.33.34-.8-.57-1.97-2.04-2.6-1.48-.62-2.95-.48-3.3.33-.34.81.57 1.98 2.04 2.6Zm49 20.58c.53 1.25 2.36 1.68 4.1.95 1.73-.72 2.7-2.33 2.18-3.58-.53-1.26-2.36-1.68-4.1-.96-1.73.73-2.7 2.33-2.18 3.59Zm-54.07-27.65c.09.88 1.27 1.48 2.65 1.35 1.37-.14 2.42-.96 2.33-1.83-.08-.88-1.27-1.48-2.64-1.35-1.38.13-2.42.95-2.34 1.83Zm.52 5.4c.7.23 1.53-.37 1.85-1.34.31-.97 0-1.95-.7-2.17-.71-.23-1.54.37-1.85 1.34-.32.97 0 1.95.7 2.17Zm50.44 22.1c.78.26 1.7-.42 2.06-1.5.35-1.09 0-2.17-.79-2.42-.78-.26-1.7.41-2.06 1.5-.35 1.08 0 2.17.79 2.42Zm17.35 9.35c.8.26 1.73-.42 2.09-1.51.36-1.1 0-2.2-.8-2.46-.8-.25-1.72.43-2.08 1.52-.36 1.1 0 2.2.8 2.45Zm-77.68-59.05c.41.98 2.04 1.23 3.64.56 1.6-.67 2.57-2 2.15-2.98-.4-.98-2.04-1.23-3.64-.56-1.6.67-2.56 2-2.15 2.98Zm29.87 38.36c.68.16 1.47-.66 1.75-1.85.28-1.18-.05-2.27-.73-2.43-.68-.17-1.47.66-1.75 1.84-.28 1.19.04 2.28.73 2.44Zm2.86 11.81c.98.57 2.03.6 2.35.05.32-.55-.2-1.45-1.17-2.03-.97-.57-2.02-.59-2.34-.04-.32.55.2 1.45 1.17 2.02Zm30.9-42.27c1.22.66 2.8.09 3.54-1.27.74-1.36.35-3-.88-3.65-1.22-.66-2.8-.1-3.54 1.26-.74 1.36-.34 3 .88 3.66Zm-30.77 38.75c.84 1.37 2.14 2.1 2.9 1.63.76-.47.7-1.95-.15-3.32-.84-1.37-2.14-2.1-2.9-1.63-.76.46-.7 1.95.15 3.32Zm-8.05-33.09c.86 1.39 2.17 2.12 2.94 1.65.77-.47.7-1.97-.15-3.35-.85-1.39-2.17-2.13-2.94-1.65-.76.47-.7 1.97.15 3.35Zm15.82 37.67c.2.68 1.11 1.02 2.06.76.94-.26 1.55-1.02 1.36-1.7-.18-.68-1.1-1.03-2.05-.77-.94.26-1.55 1.02-1.36 1.7Zm-14.9-6.01c.82.86 1.94 1.13 2.5.6.57-.53.37-1.67-.45-2.53-.81-.87-1.94-1.14-2.5-.6-.57.53-.36 1.66.45 2.53Zm22.63 5.54c.69.22 1.54-.51 1.9-1.63.36-1.12.09-2.21-.6-2.43-.7-.22-1.54.51-1.9 1.63-.36 1.12-.09 2.2.6 2.43Zm6.47 4.21c.72.23 1.6-.54 1.98-1.71.38-1.18.1-2.32-.62-2.55-.73-.23-1.62.54-2 1.71-.37 1.18-.09 2.32.64 2.55Zm-71.92-9.95c.05 1.58.93 2.84 1.97 2.81 1.04-.03 1.84-1.34 1.8-2.93-.05-1.59-.94-2.85-1.98-2.82-1.03.04-1.84 1.35-1.79 2.94Zm22.38 15.1c.05 1.72 1 3.1 2.13 3.07 1.13-.03 2-1.46 1.96-3.18-.05-1.73-1-3.1-2.13-3.07-1.13.03-2 1.45-1.96 3.18Zm4.62 4.46c.66.2 1.48-.5 1.82-1.56.35-1.08.09-2.12-.57-2.33-.67-.21-1.48.49-1.83 1.56-.34 1.08-.08 2.12.58 2.33Zm-21.91-53.45c.05 1.64.97 2.95 2.04 2.92 1.08-.04 1.91-1.4 1.86-3.04-.05-1.65-.97-2.96-2.04-2.93-1.08.04-1.91 1.4-1.86 3.05Zm1.85-3.49c.68.22 1.52-.5 1.88-1.61.35-1.1.09-2.18-.6-2.4-.68-.22-1.52.5-1.87 1.61-.35 1.1-.09 2.18.6 2.4Zm-59.42 45.78c.77.46 1.97-.13 2.67-1.3.7-1.18.64-2.5-.13-2.96-.77-.46-1.96.13-2.66 1.3-.7 1.18-.65 2.5.12 2.96Zm2.74-4.33c.38.45 1.27.32 2-.29.73-.6 1.02-1.46.64-1.9-.37-.45-1.27-.33-2 .28-.72.6-1 1.46-.64 1.9Zm110.13-28.9c.72.17 1.55-.7 1.85-1.95.3-1.26-.05-2.4-.77-2.58-.73-.17-1.56.7-1.86 1.95-.3 1.25.05 2.4.78 2.58Zm6.53 2.04c.79 1.28 2 1.95 2.7 1.52.7-.43.65-1.81-.14-3.08-.78-1.28-1.99-1.95-2.7-1.52-.7.43-.64 1.81.14 3.08Zm-19.48 9.51c.2 1 .87 1.7 1.51 1.58.64-.13 1-1.04.8-2.03-.19-1-.86-1.7-1.5-1.58-.64.12-1 1.03-.8 2.03Zm12.51 11.57c-.03.92 1.11 1.71 2.56 1.76 1.45.05 2.65-.66 2.68-1.59.03-.92-1.12-1.7-2.57-1.76-1.44-.04-2.64.67-2.67 1.59Zm-75.54-6.05c.46.17 1.05-.32 1.33-1.1.28-.77.14-1.53-.32-1.7-.46-.16-1.06.33-1.34 1.1-.28.78-.13 1.54.33 1.7Zm-.98-4.58c.9 1.12 2.22 1.55 2.94.97.71-.58.55-1.95-.35-3.07-.91-1.11-2.23-1.54-2.94-.96-.71.57-.56 1.95.35 3.06Zm3.86.98c-.03.92 1.1 1.7 2.54 1.75 1.44.04 2.62-.66 2.65-1.58.03-.91-1.1-1.7-2.54-1.74-1.43-.05-2.62.66-2.65 1.57Zm74.26 47.44c.5.19 1.14-.34 1.44-1.18.3-.83.14-1.65-.35-1.83-.5-.18-1.14.35-1.44 1.19-.3.83-.15 1.65.35 1.83Zm-.96-4.66c.92 1.14 2.26 1.58 3 .99.72-.6.56-2-.36-3.13-.93-1.14-2.27-1.58-3-.99-.73.6-.57 2 .36 3.13Zm3.87.96c-.03.93 1.11 1.71 2.55 1.76 1.44.05 2.64-.66 2.67-1.58.03-.92-1.11-1.7-2.55-1.75-1.44-.05-2.64.66-2.67 1.58Zm-88.26-33.22c.86 1.05 2.1 1.46 2.78.92.67-.55.52-1.85-.34-2.9-.85-1.06-2.1-1.47-2.77-.92-.68.54-.53 1.84.33 2.9Zm.32-4.63c.3 1.07 1.74 1.6 3.22 1.19 1.48-.41 2.44-1.61 2.14-2.68-.3-1.07-1.75-1.6-3.23-1.2-1.48.42-2.43 1.62-2.14 2.7Zm-4.75 7.4c.8 1.3 2.03 2 2.75 1.55.72-.44.66-1.85-.14-3.15-.8-1.3-2.03-2-2.75-1.55-.72.44-.66 1.85.14 3.15Zm8.17-1.74c-.03.94 1.13 1.73 2.59 1.78 1.46.05 2.67-.67 2.7-1.6.04-.93-1.12-1.73-2.59-1.78-1.46-.05-2.67.67-2.7 1.6Zm84.9-9.24c1 .48 2.34-.26 3-1.64.66-1.38.38-2.88-.62-3.36-1-.47-2.35.26-3 1.64-.66 1.38-.39 2.89.62 3.36Zm-7.65-9.19c.72.75 1.7.99 2.2.52.49-.46.3-1.45-.4-2.21-.72-.76-1.7-1-2.2-.53-.5.47-.31 1.46.4 2.22Zm35.54-29.49c.7.13 1.43-.69 1.63-1.82.2-1.13-.19-2.15-.89-2.28-.7-.12-1.42.7-1.63 1.83-.2 1.13.2 2.14.9 2.27Zm-7.54 5.98c.25.6 1.25.75 2.22.34.98-.4 1.57-1.22 1.31-1.82-.25-.6-1.24-.75-2.22-.34-.97.4-1.56 1.22-1.3 1.82Zm17.94 20.93c-.13 1.24.35 2.3 1.07 2.37.71.08 1.4-.86 1.53-2.1.13-1.24-.35-2.3-1.07-2.37-.71-.08-1.4.86-1.53 2.1Zm-5.51-7.22c1.43.6 2.85.46 3.19-.32.33-.79-.55-1.91-1.97-2.52-1.42-.6-2.85-.46-3.18.32-.34.78.54 1.9 1.97 2.52Zm-4.93-12.25c.89 1.2 2.18 1.74 2.89 1.21.7-.52.56-1.92-.32-3.1-.89-1.2-2.18-1.74-2.9-1.22-.7.53-.56 1.92.33 3.11Zm-1.65 11.61c.93.35 2-.2 2.4-1.23.4-1.03-.04-2.15-.96-2.5-.93-.36-2 .19-2.4 1.22-.4 1.03.03 2.15.96 2.5Zm7.31 5.8c1 1.23 2.35 1.77 3.03 1.22.68-.55.42-1.98-.57-3.2-1-1.23-2.35-1.77-3.03-1.22-.67.55-.42 1.98.57 3.2Z" fill="#2A5EBC"/><path d="M142.62 32.3c.27.66 1.22.88 2.13.5.9-.38 1.4-1.22 1.13-1.87-.27-.65-1.23-.87-2.13-.5-.9.39-1.41 1.22-1.13 1.88Zm-26.63-5.53c.26.62 1.16.83 2.02.47.85-.36 1.33-1.15 1.07-1.77-.26-.61-1.16-.82-2.02-.46-.85.36-1.33 1.15-1.07 1.76Zm26.49 46.43c.36 1.06 1.2 1.74 1.87 1.51.68-.22.94-1.26.59-2.32-.36-1.06-1.2-1.73-1.87-1.5-.68.22-.94 1.26-.59 2.31Zm8.59-53.29c.1.96 1.39 1.61 2.88 1.47 1.5-.15 2.63-1.04 2.54-2-.1-.95-1.38-1.6-2.88-1.46-1.5.15-2.63 1.04-2.54 2Zm-1.35 10.69c1.15.37 2.5-.61 3-2.19.52-1.58 0-3.16-1.14-3.53-1.14-.37-2.49.61-3 2.2-.51 1.57 0 3.15 1.14 3.52Zm11.4 11.07c1.54 1.25 3.46 1.46 4.28.45.82-1 .24-2.84-1.3-4.1-1.55-1.25-3.47-1.46-4.3-.45-.81 1-.23 2.84 1.32 4.1Zm-76.07 57.75c.47.9 1.38 1.35 2.03 1.01.65-.34.8-1.34.33-2.24-.47-.9-1.38-1.35-2.03-1-.65.33-.8 1.33-.33 2.23Zm-2.2-3.84c.79 1.13 1.99 1.65 2.68 1.16.69-.48.61-1.78-.18-2.9-.79-1.13-1.99-1.65-2.68-1.17-.7.48-.61 1.79.18 2.91Zm62.45-32.18c-.14 1.32.36 2.45 1.13 2.53.76.08 1.5-.93 1.63-2.24.14-1.32-.37-2.45-1.13-2.53-.77-.08-1.5.92-1.64 2.24Zm-3.8-10.29c1.43.61 2.9.4 3.27-.48.38-.88-.48-2.08-1.9-2.69-1.44-.6-2.9-.4-3.28.49-.37.87.48 2.08 1.91 2.68Zm-2.34 6.83c1.41 1.73 3.34 2.5 4.3 1.72.97-.78.6-2.81-.8-4.55-1.4-1.73-3.33-2.5-4.3-1.72-.96.78-.6 2.82.8 4.55Zm-72.93-30.96c.41.97 2.02 1.22 3.6.55 1.59-.66 2.54-1.98 2.13-2.95-.4-.97-2.02-1.22-3.6-.56-1.58.67-2.54 1.99-2.13 2.96Zm85.57 20.79c.35 1.04 1.17 1.7 1.84 1.48.67-.22.92-1.24.58-2.28-.35-1.04-1.17-1.7-1.84-1.48-.66.22-.92 1.24-.57 2.28Zm-11.2-9.18c.1.96 1.4 1.63 2.91 1.48 1.51-.15 2.66-1.05 2.57-2.01-.1-.97-1.4-1.63-2.9-1.48-1.52.14-2.67 1.05-2.57 2.01Zm-90.68 14.06c.57.44 1.6.08 2.3-.81.7-.9.8-1.98.23-2.42-.57-.45-1.6-.08-2.3.8-.7.9-.8 1.98-.23 2.43Zm6.45 2.55c.95.36 2.05-.2 2.46-1.26.4-1.06-.03-2.21-.98-2.58-.95-.36-2.06.2-2.46 1.26-.41 1.06.03 2.22.98 2.58Z" fill="#2A5EBC"/><path d="M53.52 53.3c.27.64 1.2.86 2.08.49.88-.37 1.38-1.19 1.1-1.82-.26-.64-1.2-.86-2.07-.49-.88.37-1.38 1.19-1.11 1.82Zm77.84-14.84c.29.69 1.23.95 2.1.59.86-.37 1.32-1.22 1.03-1.9-.29-.7-1.22-.95-2.09-.6-.86.37-1.33 1.23-1.04 1.91Zm-83.78 7.15c.3 1.54 1.45 2.6 2.56 2.38 1.11-.22 1.77-1.64 1.47-3.17-.3-1.54-1.46-2.6-2.57-2.38-1.1.22-1.76 1.64-1.46 3.17Zm.9-3.87c.67.4 1.63.06 2.15-.79.51-.84.39-1.85-.28-2.26-.68-.4-1.64-.05-2.15.79-.51.84-.39 1.85.28 2.26Zm90.3 5.58c.7.23 1.54-.38 1.86-1.35.31-.98 0-1.96-.71-2.19-.71-.23-1.55.38-1.86 1.36-.32.97 0 1.95.7 2.18Zm9.16 9.02c.85.7 1.9.8 2.36.25.46-.56.13-1.57-.72-2.27-.85-.69-1.91-.8-2.37-.25-.45.56-.13 1.57.73 2.27Zm2.25 7.3c1 .24 2.14-.97 2.55-2.68.4-1.72-.06-3.3-1.06-3.55-1-.23-2.14.97-2.55 2.69-.41 1.71.06 3.3 1.06 3.54Zm3.1 4.72c0 2.34 1.1 4.23 2.43 4.23 1.34 0 2.42-1.9 2.42-4.24 0-2.34-1.1-4.23-2.43-4.23-1.34 0-2.42 1.9-2.42 4.24Zm-67.13-30.82c-.12 1.22.35 2.27 1.05 2.34.71.08 1.39-.85 1.51-2.07.13-1.22-.34-2.27-1.04-2.34-.71-.07-1.39.85-1.52 2.07Zm-5.69-2.64c1.56 1.92 3.68 2.77 4.74 1.91 1.07-.86.67-3.1-.88-5.02-1.56-1.91-3.68-2.77-4.74-1.9-1.07.86-.67 3.1.88 5.02Zm10.49 2.85c1 .24 2.13-.96 2.54-2.67.4-1.7-.07-3.29-1.06-3.52-.99-.24-2.13.96-2.54 2.67-.4 1.7.07 3.29 1.06 3.52Zm3.09 4.75c0 2.34 1.1 4.24 2.44 4.24 1.34 0 2.43-1.9 2.42-4.25 0-2.35-1.1-4.25-2.44-4.25-1.34 0-2.43 1.9-2.42 4.25Zm54.67 27.04c.23 1.18 1.03 2.02 1.8 1.88.75-.15 1.17-1.23.94-2.41-.22-1.18-1.03-2.02-1.78-1.88-.76.15-1.19 1.23-.96 2.41Zm-16.41-13.44c1.09.53 2.24.42 2.57-.25.33-.66-.29-1.64-1.38-2.17-1.09-.54-2.23-.43-2.56.24-.33.66.28 1.64 1.37 2.17Zm29.62-32.96c.36.84 1.76 1.04 3.13.45 1.36-.59 2.18-1.74 1.81-2.58-.36-.84-1.76-1.04-3.12-.45-1.37.59-2.19 1.74-1.82 2.58Zm14.03-1.11c1 .66 2.12.7 2.53.1.4-.62-.07-1.64-1.06-2.3-1-.66-2.13-.7-2.53-.09-.4.6.07 1.63 1.06 2.3Zm-12.98-6.23c.9 1.1 2.19 1.53 2.9.96.7-.57.54-1.93-.35-3.03-.9-1.1-2.2-1.52-2.9-.95-.7.57-.55 1.92.35 3.02Zm8.09 11.54c1.63 1.08 3.54 1.08 4.26-.01.73-1.09 0-2.85-1.63-3.93s-3.54-1.07-4.26.01c-.73 1.1 0 2.85 1.63 3.93Zm-76.84 37.02c.87.43 1.85.21 2.19-.48.34-.69-.1-1.6-.96-2.02-.87-.43-1.85-.21-2.2.48-.33.69.1 1.6.97 2.02Z" fill="#2A5EBC"/><path d="M88.63 65.12c1.63 1.07 3.53 1.07 4.25-.02.72-1.08-.01-2.83-1.63-3.9-1.63-1.08-3.53-1.08-4.25 0-.72 1.09.01 2.84 1.63 3.92Zm82.05-49.73c.2.7 1.14 1.04 2.1.78.97-.27 1.6-1.06 1.4-1.76-.2-.7-1.14-1.04-2.1-.77-.97.27-1.6 1.05-1.4 1.75Zm-40.36 35.87c.2 1.03.9 1.77 1.56 1.64.66-.13 1.03-1.07.83-2.1-.2-1.04-.9-1.78-1.56-1.65-.66.13-1.03 1.07-.83 2.1Zm29.74-.29c.8.84 1.9 1.1 2.44.59.55-.52.35-1.62-.44-2.47-.8-.84-1.89-1.1-2.44-.58-.55.52-.35 1.62.44 2.46Zm-56.99-35.56c-.15 1.37.38 2.54 1.17 2.62.79.09 1.55-.95 1.69-2.32.14-1.36-.38-2.54-1.17-2.62-.8-.08-1.55.96-1.7 2.32Zm-10.37-5.18c1.07 1.3 2.53 1.9 3.26 1.3.73-.59.46-2.13-.61-3.44-1.07-1.32-2.53-1.9-3.26-1.31-.73.59-.45 2.13.61 3.45Zm14.04-.39c.33 1 1.12 1.64 1.76 1.43.64-.22.89-1.2.55-2.2-.33-1-1.12-1.63-1.76-1.42-.64.21-.89 1.2-.55 2.2Zm-6.04-1.25c.9.74 2.03.86 2.52.27.48-.6.14-1.67-.77-2.42-.91-.74-2.04-.86-2.53-.27-.48.6-.14 1.68.77 2.42Zm26.1 21.07c.22.75 1.39 1.1 2.63.75 1.24-.34 2.07-1.23 1.86-1.99-.2-.75-1.38-1.1-2.62-.75-1.24.34-2.07 1.23-1.86 1.99Zm-16.34-17.14c.69.17 1.48-.66 1.77-1.86.28-1.19-.05-2.29-.74-2.45-.7-.17-1.48.67-1.77 1.86-.28 1.19.05 2.29.74 2.45Zm-1.96 12.18c.94 1.7 2.53 2.62 3.54 2.06 1-.56 1.06-2.4.11-4.09-.95-1.7-2.53-2.62-3.54-2.05-1.01.56-1.06 2.39-.12 4.09Zm14.46 6.23c.97.53 2.42-.25 3.23-1.74.8-1.49.67-3.12-.3-3.64-.98-.53-2.42.25-3.23 1.74-.8 1.49-.67 3.12.3 3.64Zm40.93 1.37c.2.72 1.33 1.05 2.52.72 1.2-.33 2-1.18 1.8-1.91-.2-.74-1.34-1.06-2.53-.74-1.2.33-2 1.19-1.8 1.92Zm-3.87 1.18c.93.5 2.32-.25 3.1-1.67.76-1.43.64-3-.3-3.5-.93-.5-2.31.24-3.09 1.67-.77 1.43-.64 3 .29 3.5Zm-40.26-19.13c.77 1.25 1.96 1.92 2.66 1.5.7-.43.64-1.8-.14-3.05-.77-1.25-1.96-1.92-2.66-1.5-.7.43-.63 1.8.14 3.05Zm3.21 6.7c.38 1.37 2.22 2.06 4.1 1.54 1.9-.52 3.13-2.05 2.75-3.42-.38-1.36-2.21-2.05-4.1-1.53-1.9.52-3.13 2.05-2.75 3.41Zm-16.92-2.47c.24 1.23 1.07 2.1 1.86 1.95.79-.16 1.23-1.28 1-2.5-.25-1.23-1.08-2.1-1.86-1.95-.8.15-1.23 1.27-1 2.5Zm9.28 12.15c-.03.91 1.1 1.69 2.52 1.73 1.42.05 2.6-.65 2.63-1.56.03-.9-1.1-1.68-2.52-1.73-1.43-.05-2.6.65-2.63 1.56Zm7.16 6.31c.39 1.41 2.15 2.16 3.94 1.67 1.78-.48 2.91-2.03 2.52-3.45-.39-1.41-2.15-2.16-3.94-1.67-1.78.49-2.91 2.03-2.52 3.45Zm-81.44 10.08c.21.74 1.37 1.08 2.59.74 1.22-.33 2.04-1.2 1.83-1.96-.2-.74-1.36-1.08-2.58-.74-1.22.33-2.04 1.2-1.84 1.96Zm-3.86 1.27c.96.52 2.4-.25 3.2-1.73.8-1.48.66-3.1-.3-3.62-.97-.52-2.4.26-3.2 1.73-.8 1.48-.67 3.1.3 3.62Zm3.26 13.08c.39 1.4 2.13 2.14 3.89 1.66 1.76-.48 2.87-2.01 2.49-3.4-.39-1.4-2.13-2.15-3.89-1.66-1.76.48-2.87 2-2.49 3.4Z" fill="#2A5EBC"/><path d="M115.93 17.12c1.35 1.43 3.2 1.88 4.14 1 .93-.88.6-2.76-.76-4.19-1.35-1.43-3.2-1.87-4.14-1-.93.89-.6 2.76.76 4.19Zm19.12 4.27c.68.21 1.51-.5 1.86-1.6.36-1.1.1-2.17-.59-2.38-.67-.22-1.5.5-1.86 1.6-.35 1.1-.09 2.16.6 2.38Zm-37.34-17.78c.88 1.43 2.24 2.2 3.03 1.7.8-.48.73-2.03-.15-3.46-.88-1.43-2.24-2.19-3.03-1.7-.8.48-.73 2.04.15 3.46Zm29.49 9.33c-.04.9 1.1 1.68 2.52 1.73 1.42.05 2.6-.65 2.63-1.56.03-.9-1.1-1.68-2.53-1.72-1.42-.05-2.6.64-2.63 1.55Zm12.2 4.02c.21.74 1.13 1.13 2.05.87.93-.25 1.52-1.05 1.31-1.79-.2-.74-1.11-1.13-2.04-.87-.93.25-1.51 1.06-1.31 1.8Zm-35.3 22.88c.4 1.5 2.27 2.29 4.15 1.77 1.88-.52 3.07-2.15 2.66-3.65-.41-1.5-2.27-2.28-4.15-1.77-1.89.52-3.08 2.15-2.67 3.65Zm-33.45 14.42c-.18 1.77.5 3.3 1.53 3.4 1.02.11 2-1.24 2.2-3.01.18-1.77-.5-3.3-1.53-3.4-1.03-.1-2.01 1.24-2.2 3.01Zm2.7-3.42c.82.67 1.84.78 2.28.25.44-.54.13-1.51-.7-2.18-.82-.67-1.84-.78-2.28-.25-.43.54-.12 1.51.7 2.18Zm4.71 73.73c-.13 1.2.33 2.22 1.03 2.3.7.07 1.36-.84 1.48-2.04.13-1.2-.33-2.23-1.03-2.3-.7-.07-1.36.84-1.48 2.04Zm28.61-71.07c.08.74.51 1.3.97 1.26.46-.05.77-.69.7-1.44-.08-.74-.52-1.3-.98-1.26-.45.04-.77.69-.69 1.43Zm1.67-1.5c.67.13 1.4-.7 1.6-1.86.23-1.16-.14-2.2-.81-2.32-.67-.13-1.4.71-1.6 1.87-.22 1.15.14 2.2.81 2.32Zm33.92 28.55c.22.8 1.3 1.2 2.4.89 1.1-.3 1.8-1.2 1.58-2-.22-.8-1.3-1.2-2.4-.89-1.1.3-1.8 1.2-1.58 2Z" fill="#2A5EBC"/><path d="M139.26 82.4c1.09.36 2.37-.58 2.86-2.08.49-1.5 0-3.01-1.1-3.36-1.09-.36-2.37.58-2.85 2.08-.5 1.5 0 3.01 1.09 3.37Zm-59.73-28.25c1.13.5 2.28.39 2.57-.27.3-.65-.39-1.58-1.52-2.09-1.12-.5-2.27-.38-2.57.27-.29.65.39 1.59 1.52 2.1Zm3.19 7.33c.8.76 1.89.9 2.44.32.55-.57.35-1.65-.45-2.4-.8-.76-1.89-.9-2.43-.33-.55.58-.35 1.66.44 2.41Zm-3.66-4.08c.26 1.12 1.73 1.75 3.29 1.39 1.56-.36 2.6-1.56 2.35-2.68-.26-1.13-1.73-1.75-3.29-1.4-1.56.36-2.6 1.56-2.35 2.69Zm20.52 21.83c.23.83 1.34 1.24 2.48.92 1.14-.31 1.88-1.24 1.65-2.07-.23-.83-1.34-1.24-2.48-.93-1.14.32-1.88 1.25-1.65 2.08Zm4.86 1.53c.74.79 1.75 1.03 2.27.55.51-.48.33-1.5-.41-2.3-.74-.78-1.76-1.02-2.27-.54s-.33 1.51.41 2.3Zm48.42-68.72c1.56 1.03 3.44.96 4.2-.17.75-1.13.09-2.9-1.47-3.93-1.57-1.04-3.45-.96-4.2.17s-.1 2.89 1.47 3.93Zm-5.55-5.11c.27.96 1.58 1.45 2.92 1.07 1.34-.37 2.2-1.46 1.93-2.43-.27-.96-1.57-1.45-2.91-1.07-1.34.37-2.21 1.46-1.94 2.43Zm-23.81 43.46c.74.79 1.76 1.03 2.28.55.51-.49.33-1.52-.42-2.3-.74-.8-1.76-1.04-2.28-.56-.51.49-.33 1.52.42 2.3Zm-28.26-25.64c.26.95 1.54 1.43 2.85 1.06 1.3-.36 2.15-1.43 1.89-2.38-.27-.95-1.55-1.42-2.85-1.06-1.31.37-2.16 1.43-1.9 2.38Z" fill="#2A5EBC"/><path d="M91.94 26.92c1.26.41 2.74-.67 3.3-2.41.57-1.74 0-3.49-1.26-3.9-1.26-.4-2.74.68-3.3 2.42-.57 1.74 0 3.49 1.26 3.9Zm9.26-.24c.9.96 2.14 1.26 2.76.67.62-.59.4-1.84-.5-2.79s-2.14-1.25-2.76-.66c-.63.58-.4 1.83.5 2.78Zm-58.02 51.42c.68.11 1.39-.68 1.59-1.78.2-1.1-.19-2.08-.87-2.2-.67-.13-1.38.66-1.58 1.76-.2 1.1.19 2.09.86 2.21Zm-6.65 6.94c.28.65 1.37.82 2.43.37 1.07-.45 1.7-1.34 1.43-2-.27-.65-1.36-.81-2.43-.37-1.06.45-1.7 1.34-1.43 2Zm16.59 8.23c-.12 1.17.33 2.17 1 2.24.68.07 1.33-.82 1.45-1.99.12-1.16-.33-2.17-1-2.24-.68-.07-1.33.82-1.45 1.99Zm6.98 4.66c.24 1.83 1.28 3.2 2.33 3.06 1.05-.13 1.7-1.73 1.46-3.56s-1.29-3.2-2.34-3.06c-1.04.13-1.7 1.73-1.45 3.56Zm-3.45-11.76c1.6.68 3.19.52 3.57-.36.37-.88-.62-2.14-2.21-2.82-1.6-.68-3.2-.52-3.57.36-.38.87.61 2.14 2.2 2.82Zm-16.06 7.11c.25.6 1.12.8 1.94.45.82-.34 1.29-1.1 1.04-1.7-.26-.6-1.12-.8-1.95-.45-.82.35-1.28 1.1-1.03 1.7Zm-25.3-8.02c.26.63 1.18.84 2.05.48.86-.37 1.35-1.17 1.08-1.8-.26-.62-1.18-.83-2.04-.47-.87.36-1.35 1.17-1.09 1.8Zm44.76 6.23c.35 1.07 1.2 1.76 1.9 1.53.68-.23.95-1.29.59-2.36-.36-1.07-1.21-1.76-1.9-1.53-.69.23-.95 1.28-.6 2.36Zm-5.44-45.74c.23 1.73 1.22 3.03 2.22 2.9.99-.14 1.6-1.65 1.38-3.38-.23-1.73-1.22-3.03-2.21-2.9-1 .13-1.61 1.64-1.39 3.38Zm-.27-6.78c.41 1.24 1.39 2.03 2.18 1.76.8-.26 1.1-1.48.69-2.71-.42-1.24-1.4-2.03-2.18-1.76-.8.26-1.1 1.48-.69 2.71Zm-5.5 40.27c.12 1.23 1.77 2.07 3.7 1.88 1.91-.18 3.37-1.33 3.26-2.56-.12-1.22-1.78-2.06-3.7-1.88-1.92.19-3.38 1.33-3.26 2.56Zm6.66 19.3c.88.71 1.96.83 2.42.26.46-.57.13-1.6-.73-2.3-.87-.72-1.96-.83-2.42-.27-.46.57-.13 1.6.74 2.31Zm-30.62-9.44c.32.74 1.33 1.02 2.27.63.94-.4 1.45-1.32 1.13-2.06-.31-.75-1.33-1.03-2.27-.64-.93.4-1.44 1.32-1.13 2.06Zm43.77 9.94c.68.16 1.46-.65 1.74-1.82s-.05-2.25-.72-2.41c-.68-.16-1.46.65-1.74 1.82s.05 2.25.72 2.41Zm-10.91 10.7c.3 1.53 1.33 2.62 2.3 2.43.99-.19 1.54-1.58 1.24-3.11-.3-1.53-1.33-2.62-2.3-2.43-.99.2-1.54 1.59-1.24 3.11Zm-41.69-56.62c.04 1.58.92 2.83 1.95 2.8 1.03-.04 1.83-1.34 1.78-2.92-.05-1.58-.93-2.83-1.96-2.8-1.03.04-1.82 1.34-1.77 2.92Z" fill="#2A5EBC"/><path d="M14.03 49.18c.32 1.61 1.41 2.75 2.44 2.55 1.04-.2 1.61-1.68 1.3-3.29-.33-1.61-1.42-2.75-2.45-2.55-1.04.2-1.61 1.68-1.3 3.29Zm7.97 24.14c.04 1.52.88 2.73 1.87 2.7 1-.03 1.76-1.29 1.71-2.8-.05-1.52-.89-2.73-1.88-2.7-.99.03-1.75 1.29-1.7 2.8Zm-2.76-4.24c.3 1.53 1.33 2.61 2.3 2.42.98-.19 1.53-1.58 1.24-3.1-.3-1.53-1.33-2.61-2.3-2.42-.99.18-1.54 1.57-1.24 3.1Zm47.65 46.8c1.13 1.2 2.68 1.57 3.47.84.78-.74.5-2.31-.63-3.5-1.13-1.2-2.69-1.58-3.47-.84-.78.73-.5 2.3.63 3.5Zm-59.86-58.36c-.12 1.22.34 2.26 1.05 2.33.7.08 1.38-.85 1.5-2.06.13-1.22-.33-2.26-1.04-2.34-.7-.07-1.38.86-1.5 2.07Zm-1.03-5.05c-.12 1.23.35 2.29 1.07 2.36.71.08 1.4-.86 1.52-2.1.13-1.22-.34-2.28-1.06-2.36-.71-.07-1.4.87-1.52 2.1Zm-2.83 10.65c.32.96 1.08 1.57 1.69 1.37.61-.2.85-1.15.53-2.1-.32-.97-1.08-1.58-1.69-1.37-.61.2-.85 1.14-.53 2.1Zm17.61 25.08c.18.64 1.17.93 2.21.64 1.05-.28 1.75-1.04 1.58-1.67-.18-.64-1.17-.93-2.21-.64-1.05.28-1.75 1.03-1.58 1.67Zm-9.03-19.04c.7.17 1.48-.66 1.76-1.85.29-1.18-.04-2.28-.73-2.44-.69-.16-1.48.66-1.76 1.85s.04 2.28.73 2.44Zm-7.24 18.98c.76 1.37 2.04 2.1 2.86 1.65.8-.45.85-1.92.09-3.29-.77-1.36-2.05-2.1-2.86-1.65-.81.45-.85 1.92-.09 3.3Zm9.62-11.31c1.45 2.35 3.69 3.6 5 2.8 1.3-.8 1.19-3.36-.26-5.7-1.45-2.36-3.68-3.61-4.99-2.81-1.3.8-1.2 3.36.25 5.7Zm10.42 4.55c.19.7 1.11 1.04 2.06.78s1.57-1.03 1.38-1.72c-.2-.69-1.12-1.03-2.07-.77-.95.26-1.56 1.03-1.37 1.71Zm-14.42 9.82c-.03.93 1.12 1.71 2.56 1.76 1.44.05 2.63-.66 2.66-1.58.03-.92-1.1-1.7-2.55-1.75-1.44-.05-2.63.66-2.67 1.58Zm6.07.55c.3 1.1 1.68 1.7 3.08 1.31 1.4-.38 2.28-1.6 1.97-2.7-.3-1.1-1.68-1.7-3.08-1.31-1.4.38-2.28 1.59-1.97 2.7Zm71.65-39.25c-.03.9 1.08 1.66 2.48 1.7 1.4.05 2.55-.64 2.58-1.53.03-.9-1.08-1.65-2.48-1.7-1.4-.04-2.55.64-2.58 1.53Zm5.95.55c.3 1.13 1.71 1.73 3.13 1.34 1.43-.4 2.33-1.62 2.02-2.75-.32-1.13-1.72-1.73-3.14-1.34-1.43.39-2.33 1.62-2.02 2.75Zm-16.3 59.02c-.03.86 1.02 1.58 2.36 1.63 1.33.04 2.44-.61 2.47-1.47.03-.85-1.03-1.58-2.37-1.62-1.33-.05-2.44.61-2.47 1.46Zm5.2.41c.3 1.1 1.67 1.68 3.05 1.3 1.39-.38 2.27-1.58 1.96-2.68-.3-1.1-1.67-1.68-3.06-1.3-1.38.38-2.26 1.58-1.96 2.68Zm-74.66-36.04c.78.82 1.84 1.08 2.38.58.53-.5.34-1.58-.44-2.4-.77-.83-1.84-1.08-2.37-.58-.54.5-.35 1.58.43 2.4Zm21.59 4.53c.65.2 1.45-.5 1.78-1.55.33-1.06.08-2.08-.57-2.28-.65-.2-1.45.49-1.78 1.54-.33 1.06-.08 2.08.57 2.29Zm6.43-9.16c.2.7 1.29 1.02 2.45.7 1.15-.31 1.93-1.14 1.74-1.85-.2-.7-1.3-1.02-2.45-.7-1.16.31-1.94 1.14-1.74 1.85Zm-20.98-7.29c.43.78 1.16 1.2 1.61.94.46-.26.49-1.09.05-1.86-.43-.77-1.15-1.19-1.6-.93-.47.25-.49 1.08-.06 1.85Zm-2.55-4.42c.29 1.5 1.3 2.56 2.26 2.38.95-.19 1.5-1.55 1.2-3.05-.29-1.5-1.3-2.56-2.26-2.37-.95.18-1.5 1.55-1.2 3.04Z" fill="#2A5EBC"/><path d="M25.3 73.86c-.02.8.98 1.5 2.25 1.54 1.27.04 2.32-.58 2.34-1.4.03-.8-.97-1.49-2.24-1.53-1.27-.04-2.32.58-2.34 1.39Zm13.48 3.63c.2.73 1.12 1.12 2.05.87.92-.26 1.51-1.06 1.3-1.8-.2-.73-1.11-1.12-2.04-.87-.92.26-1.51 1.06-1.3 1.8Z" fill="#2A5EBC"/></svg>