<svg viewBox="0 0 363 368" fill="none" xmlns="http://www.w3.org/2000/svg"><g clip-path="url(#a)" fill="#F7EEE5"><path d="M21.96 327.5a.93.93 0 0 0 .3.87c.11.12.26.2.44.25.17.06.35.07.54.06a21.3 21.3 0 0 0 12.1-4.06 1.44 1.44 0 0 0 .66-.84.93.93 0 0 0-.22-.9 1.42 1.42 0 0 0-.94-.25c-.36.02-.71.16-1 .38a17.97 17.97 0 0 1-10.22 3.43c-.35-.01-.72.1-1.02.29-.3.2-.54.47-.64.78Zm9.99-21.47a14.86 14.86 0 0 0-10.27-1.8c-.37.07-.73.02-1.02-.13-.3-.16-.5-.41-.56-.72-.01-.17.02-.35.1-.52.06-.17.18-.33.32-.47a1.74 1.74 0 0 1 1.08-.5c4.44-.71 8.78.05 12.14 2.14a1 1 0 0 1 .57.8c.02.17 0 .34-.06.52-.07.17-.17.33-.3.48a1.9 1.9 0 0 1-1.01.43c-.37.03-.72-.05-.99-.23Zm-25.59 14.61c.25.19.4.45.42.74.02.3-.09.6-.3.87a1.66 1.66 0 0 1-1.58.38 1.1 1.1 0 0 1-.43-.26 11.45 11.45 0 0 1-4.46-9.16 1 1 0 0 1 .06-.48c.07-.16.16-.32.3-.45a1.64 1.64 0 0 1 1-.5c.35.01.67.12.9.33a1 1 0 0 1 .32.77 9.7 9.7 0 0 0 3.77 7.76Zm45.76-15.84c.23.06.43.18.57.34.14.17.2.37.2.59 0 .21-.08.44-.22.63a1.59 1.59 0 0 1-1.33.62 1.2 1.2 0 0 1-.66-.22.88.88 0 0 1-.34-.52.99.99 0 0 1 .08-.64 1.53 1.53 0 0 1 1.7-.79Zm-17.53 30.69c.65.15.95.75.67 1.35-.28.59-1.04.94-1.7.79-.65-.16-.95-.76-.67-1.36a1.55 1.55 0 0 1 1.7-.78Zm7.02-70.89c-.19.04-.38.04-.56.02a1.24 1.24 0 0 1-.49-.18.92.92 0 0 1-.45-.8c.05-.3.23-.6.5-.82.27-.23.62-.38.97-.42 3.6-.5 7.05-2.14 9.65-4.59.25-.25.58-.42.93-.49.35-.06.7-.02.98.13.13.1.23.22.3.36.07.14.1.3.08.46a1.27 1.27 0 0 1-.51.89 21.01 21.01 0 0 1-11.4 5.44Zm10.37 30.1a1.75 1.75 0 0 1-1.51.63 1.28 1.28 0 0 1-.5-.17 12.22 12.22 0 0 1-6.92-7.94.96.96 0 0 1-.05-.47c.03-.17.09-.33.18-.49a1.75 1.75 0 0 1 .9-.67c.37-.05.72 0 1 .15s.47.4.53.7a10.33 10.33 0 0 0 5.84 6.73c.3.13.52.36.62.64.1.28.06.6-.1.89Zm16.04 19.7a1.68 1.68 0 0 1-1.57.4 1.14 1.14 0 0 1-.44-.25 11.44 11.44 0 0 1-4.66-9.08c-.02-.16 0-.33.06-.49.06-.16.16-.31.28-.45a1.63 1.63 0 0 1 1-.5c.35 0 .67.1.9.3.23.2.35.48.34.78a9.68 9.68 0 0 0 3.92 7.68 1 1 0 0 1 .45.73c.03.3-.07.61-.28.88Zm-19.86-66.28c.65.15.96.76.67 1.35-.28.59-1.04.94-1.69.79-.65-.16-.95-.76-.67-1.35.28-.6 1.04-.95 1.7-.8Zm-21.27-8.24c.65.15.95.76.67 1.35-.28.59-1.04.94-1.69.79-.65-.16-.95-.76-.67-1.35a1.55 1.55 0 0 1 1.69-.8Zm-20.02 91.53c.66.15.96.76.67 1.35-.28.6-1.04.94-1.69.79-.65-.16-.95-.76-.67-1.35.28-.6 1.04-.94 1.7-.79Zm16.75-18.63c.65.15.95.76.67 1.35-.28.59-1.04.94-1.7.79-.64-.16-.95-.76-.66-1.36a1.54 1.54 0 0 1 1.69-.78Zm27.14-35.46a1.07 1.07 0 0 1-.58-.33.87.87 0 0 1-.2-.59c0-.22.08-.44.22-.64.15-.2.35-.36.6-.47.23-.12.5-.17.74-.15.25.01.48.09.66.22.18.14.3.32.34.53a1 1 0 0 1-.08.65 1.54 1.54 0 0 1-1.7.78Zm15.96 13.56a1.07 1.07 0 0 1-.58-.33.88.88 0 0 1-.21-.59c0-.22.08-.44.23-.64a1.6 1.6 0 0 1 1.34-.63c.25.02.48.1.66.23.18.14.3.32.34.53a1 1 0 0 1-.09.65 1.57 1.57 0 0 1-1.69.79Zm7.3-30.56a1.07 1.07 0 0 1-.57-.34.88.88 0 0 1-.2-.59c0-.22.08-.44.22-.64.15-.2.35-.36.6-.47.23-.11.5-.16.74-.15.25.01.48.1.66.23.18.13.3.31.34.52a1 1 0 0 1-.09.65c-.06.14-.16.27-.28.39a1.6 1.6 0 0 1-1.42.4Zm-23.42 68.82c-.23.08-.47.1-.68.05-.31-.1-.55-.29-.68-.54a1.04 1.04 0 0 1-.02-.85c1.05-3 .8-6.06-.72-8.56a1 1 0 0 1-.12-.83c.09-.3.29-.58.57-.78a1.5 1.5 0 0 1 1.07-.18c.17.04.32.1.45.2s.23.22.3.36a11.39 11.39 0 0 1 1.45 7.71c-.12.81-.33 1.62-.6 2.42-.07.21-.2.42-.38.6-.18.17-.4.31-.64.4Zm3.73 14.89a1.81 1.81 0 0 1-1.91.65 16.16 16.16 0 0 0-7.6-.25c-1.06.21-2.1.52-3.13.92-.34.14-.72.17-1.05.1-.33-.09-.6-.28-.76-.54a.98.98 0 0 1-.06-.49c.02-.17.09-.33.19-.5a1.77 1.77 0 0 1 .92-.69 19.92 19.92 0 0 1 12.67-.78c.18.04.35.11.49.21a.98.98 0 0 1 .4.87c-.01.17-.07.34-.16.5Zm96.07 16.52a18 18 0 0 0 10.24-3.43c.29-.22.64-.35 1-.37.35-.03.69.06.93.25.11.12.2.26.23.41.04.15.04.32 0 .48-.04.16-.12.32-.23.47a1.6 1.6 0 0 1-.42.38 21.3 21.3 0 0 1-12.1 4.05c-.2.02-.39 0-.56-.05a1.15 1.15 0 0 1-.44-.25.93.93 0 0 1-.3-.87c.11-.3.34-.57.64-.77.3-.2.66-.3 1.01-.3Zm-64.2-25.52c.1.27.09.57-.05.85-.13.29-.37.54-.68.7a15.17 15.17 0 0 0-6.69 7.3 1.69 1.69 0 0 1-1.58.99 1.17 1.17 0 0 1-.48-.18.9.9 0 0 1-.41-.8c.01-.17.06-.33.14-.49a17.87 17.87 0 0 1 7.9-8.59 1.63 1.63 0 0 1 1.04-.26 1.1 1.1 0 0 1 .81.48Zm25.28 20.43c.37-.05.72.01 1 .18.29.17.48.44.53.75 0 .17-.04.35-.12.51-.08.17-.2.33-.35.47a1.76 1.76 0 0 1-1.09.45c-4.45.56-8.72-.39-11.94-2.65a1 1 0 0 1-.53-.82.93.93 0 0 1 .08-.51c.06-.17.17-.34.3-.48.3-.23.67-.38 1.03-.4.37-.03.72.06.98.26 2.73 1.9 6.34 2.7 10.1 2.24Zm-30.14-57.09c-.3-.1-.53-.3-.65-.56a1.05 1.05 0 0 1 0-.85c1.13-2.98.96-6.05-.47-8.6a1.02 1.02 0 0 1-.1-.83c.1-.3.3-.57.59-.77a1.62 1.62 0 0 1 1.07-.15c.17.04.32.12.44.21.13.1.22.23.28.37a11.85 11.85 0 0 1 .34 10.59 1.67 1.67 0 0 1-.95.58c-.19.04-.37.04-.55.01Zm18.63 22.51a17 17 0 0 0-10.72.8c-.35.14-.72.19-1.06.12a1.2 1.2 0 0 1-.78-.5.99.99 0 0 1-.06-.5c.01-.16.07-.33.17-.49.1-.16.23-.3.38-.42.16-.12.34-.21.53-.27 4.17-1.7 8.7-2.04 12.67-.95.19.04.35.1.5.2a.98.98 0 0 1 .43.84c-.02.17-.06.34-.15.5a1.8 1.8 0 0 1-1.9.67Zm58.79 19.26a14.88 14.88 0 0 0-10.27-1.8 1.5 1.5 0 0 1-1.03-.13 1.1 1.1 0 0 1-.56-.71c-.01-.18.02-.35.1-.52.06-.18.17-.34.32-.48a1.71 1.71 0 0 1 1.08-.49c4.44-.72 8.78.04 12.13 2.14a.99.99 0 0 1 .57.8c.03.16 0 .34-.06.51-.06.17-.16.34-.3.48-.28.24-.63.4-1 .43-.37.04-.71-.04-.98-.23Zm-93.7-13.9c-.1.22-.27.4-.49.55-.21.15-.46.24-.71.27-.26.03-.5 0-.72-.1a.95.95 0 0 1-.46-.44.9.9 0 0 1-.07-.62c.06-.22.18-.43.37-.6a1.6 1.6 0 0 1 1.4-.4c.32.07.56.25.69.5.12.26.12.56-.01.84Zm.51 17.58c.65.16.95.76.67 1.35-.28.6-1.04.95-1.7.8-.64-.16-.95-.77-.66-1.36a1.56 1.56 0 0 1 1.69-.79Zm20.37-69.93c.65.15.95.76.67 1.35-.28.59-1.04.94-1.7.79-.65-.16-.95-.76-.67-1.35.28-.6 1.04-.95 1.7-.8Zm-3.81 35.61a1.07 1.07 0 0 1-.58-.34.87.87 0 0 1-.21-.59c0-.22.08-.44.22-.64.15-.2.35-.36.59-.47.24-.11.5-.17.75-.15.25 0 .48.09.66.22.18.13.3.31.35.52a1 1 0 0 1-.09.65 1.54 1.54 0 0 1-1.7.8Zm16.09 22.2c.65.15.96.75.67 1.35-.28.59-1.04.94-1.69.78-.65-.15-.95-.75-.67-1.35a1.55 1.55 0 0 1 1.7-.79Zm34.95 23.06c.24.18.39.44.4.74.03.3-.08.6-.3.86a1.65 1.65 0 0 1-1.57.38 1.1 1.1 0 0 1-.42-.25 11.4 11.4 0 0 1-4.47-9.17.91.91 0 0 1 .07-.48c.06-.16.16-.3.29-.44a1.53 1.53 0 0 1 1.01-.5c.35 0 .67.11.9.31a1 1 0 0 1 .34.8 9.69 9.69 0 0 0 3.75 7.75Zm45.74-15.84c.24.06.44.17.58.33a.9.9 0 0 1 .21.59c0 .21-.08.44-.22.63-.15.2-.35.36-.59.47-.24.12-.5.17-.74.16a1.2 1.2 0 0 1-.66-.23.88.88 0 0 1-.34-.52.98.98 0 0 1 .08-.64c.13-.28.39-.52.7-.67.32-.15.67-.2.98-.12Zm-90.76 19.89c.66.16.96.76.68 1.35-.28.6-1.04.95-1.7.8-.65-.16-.95-.77-.67-1.36a1.56 1.56 0 0 1 1.7-.79Zm21.2-77.23c-4.18-.64-7.67-2.7-9.78-5.73a.96.96 0 0 1-.22-.44c-.03-.16-.02-.33.02-.5a1.61 1.61 0 0 1 .7-.86c.34-.15.72-.2 1.06-.12.34.07.62.25.79.51 1.78 2.57 4.73 4.3 8.27 4.85.34.05.64.2.84.44.2.24.27.55.22.86-.06.17-.16.33-.3.48a1.68 1.68 0 0 1-1.03.53c-.2.03-.39.02-.57-.02Zm-35.67-5.81c-4.36-.17-8.23-1.8-10.82-4.59a1 1 0 0 1-.33-.9c.02-.17.09-.34.19-.5.1-.16.23-.3.4-.43.32-.18.7-.27 1.05-.23.36.03.67.18.87.42 2.19 2.34 5.45 3.73 9.13 3.87.36 0 .7.13.92.34.23.22.35.51.34.83-.04.17-.1.34-.22.5a1.76 1.76 0 0 1-1.53.7Zm27.87 31.19a1.1 1.1 0 0 1 .09-.85c.14-.29.4-.53.7-.69a15.37 15.37 0 0 0 6.93-7.13c.12-.3.35-.56.65-.74.3-.18.65-.26.98-.24.17.04.32.1.45.2s.23.21.3.35c.05.14.08.3.07.45-.01.16-.06.32-.14.47a18.2 18.2 0 0 1-8.19 8.43 1.62 1.62 0 0 1-1.05.25 1.2 1.2 0 0 1-.47-.17.95.95 0 0 1-.32-.33Zm66.85-8.26c-.18.05-.37.06-.55.03a1.24 1.24 0 0 1-.49-.18.92.92 0 0 1-.45-.8c.06-.29.23-.58.5-.8.27-.24.61-.38.97-.43 3.6-.5 7.04-2.14 9.65-4.58.24-.25.57-.42.92-.49.36-.07.7-.02.98.12a.94.94 0 0 1 .38.83c0 .16-.06.32-.15.47-.08.16-.2.3-.35.42a21 21 0 0 1-11.4 5.42Zm-10.78 11.55a18 18 0 0 0-10.25 3.32c-.28.22-.64.35-1 .36a1.4 1.4 0 0 1-.93-.26.93.93 0 0 1-.22-.41.99.99 0 0 1 0-.48 1.53 1.53 0 0 1 .68-.84 21.22 21.22 0 0 1 12.12-3.94c.19-.01.38 0 .54.06.18.05.33.13.45.24a.93.93 0 0 1 .28.88c-.1.3-.33.58-.64.78-.31.2-.68.3-1.03.3Zm-16.37-12.31a1.1 1.1 0 0 1-.69-.53 1.03 1.03 0 0 1-.03-.85 9.9 9.9 0 0 0-.8-8.56 1 1 0 0 1-.12-.83c.08-.3.28-.57.56-.78a1.65 1.65 0 0 1 1.07-.18 1.03 1.03 0 0 1 .76.56 11.72 11.72 0 0 1 .94 10.1c-.04.17-.12.32-.22.47a1.64 1.64 0 0 1-1.47.6Zm37.52 30.87a1.76 1.76 0 0 1-1.51.63 1.27 1.27 0 0 1-.5-.17c-3.53-1.64-6-4.5-6.9-7.97a.96.96 0 0 1-.04-.47 1.32 1.32 0 0 1 .56-.88c.16-.12.34-.21.52-.27.36-.06.71 0 1 .14.27.16.46.4.53.7a10.32 10.32 0 0 0 5.84 6.73c.3.13.52.37.62.65.09.3.05.62-.12.91Zm-55.67-13.94c1.78 2.58 4.74 4.32 8.27 4.87.35.04.65.2.84.44.2.24.27.55.21.86a1.4 1.4 0 0 1-.29.47 1.7 1.7 0 0 1-1.6.5c-4.18-.64-7.67-2.7-9.77-5.74a.96.96 0 0 1-.22-.43c-.03-.16-.02-.33.02-.5a1.61 1.61 0 0 1 .7-.86c.34-.15.72-.2 1.06-.12.34.07.62.25.79.51Zm-8.86 15.99c.18 0 .34.04.5.11a1 1 0 0 1 .36.28c.1.12.15.26.18.41a1 1 0 0 1-.04.47c-.72 3.53-2.92 6.88-6.14 9.38a1.57 1.57 0 0 1-.98.4c-.18 0-.35-.02-.5-.08a1.01 1.01 0 0 1-.4-.25 1 1 0 0 1-.1-.82c.08-.3.27-.56.54-.76a13.8 13.8 0 0 0 5.2-7.93c.05-.3.21-.58.47-.8.25-.23.58-.37.91-.4Zm7.33-51.02c.66.16.96.76.68 1.35-.28.6-1.04.95-1.7.8-.65-.16-.95-.77-.67-1.36a1.56 1.56 0 0 1 1.7-.79Zm-20.35 11.02c.66.16.96.76.68 1.35-.29.6-1.04.94-1.7.8-.65-.16-.95-.77-.67-1.36a1.55 1.55 0 0 1 1.7-.79Zm73.74-8.63c.65.15.95.76.67 1.35-.28.6-1.04.94-1.7.79-.64-.16-.94-.76-.66-1.35a1.55 1.55 0 0 1 1.69-.79Zm-21.27-8.23c.65.15.95.75.67 1.34-.28.6-1.04.95-1.7.8-.65-.16-.95-.77-.66-1.36a1.56 1.56 0 0 1 1.69-.79Zm-20.02 91.52c.65.16.96.76.67 1.35-.28.6-1.04.95-1.7.8-.64-.16-.94-.77-.66-1.36a1.56 1.56 0 0 1 1.69-.79Zm16.75-18.63c.23.06.43.17.57.34.14.16.2.36.2.58 0 .21-.08.44-.22.63-.15.2-.35.36-.59.47-.23.11-.5.17-.74.15a1.2 1.2 0 0 1-.66-.22.9.9 0 0 1-.34-.52.98.98 0 0 1 .09-.64 1.55 1.55 0 0 1 1.7-.79Zm-.45-26.18c.65.16.96.77.67 1.36-.28.59-1.04.94-1.69.78-.65-.15-.95-.75-.67-1.35a1.55 1.55 0 0 1 1.7-.79Zm-22.97-17.71c.65.16.95.76.67 1.35-.29.6-1.05.95-1.7.8-.65-.16-.95-.77-.67-1.36a1.55 1.55 0 0 1 1.7-.79Zm1.85 28.82c.65.16.95.76.67 1.36-.28.59-1.04.94-1.7.78-.65-.15-.95-.75-.67-1.35a1.57 1.57 0 0 1 1.7-.79Zm27.65-38.95c.65.16.95.76.67 1.35-.28.6-1.04.94-1.7.79-.65-.15-.95-.76-.67-1.35a1.55 1.55 0 0 1 1.7-.79Zm21.08 18.57a1.07 1.07 0 0 1-.58-.33.88.88 0 0 1-.21-.6c0-.21.08-.43.22-.63a1.6 1.6 0 0 1 1.34-.63c.26.02.49.1.66.23.18.13.3.32.35.53a1 1 0 0 1-.09.64 1.55 1.55 0 0 1-1.7.79Zm15.92 13.56a1.06 1.06 0 0 1-.57-.34.87.87 0 0 1-.22-.59c0-.22.09-.44.23-.64.15-.2.35-.36.6-.47.23-.11.5-.17.74-.15.25.01.48.09.66.22.18.14.3.32.34.53a1 1 0 0 1-.08.64c-.14.29-.4.53-.71.68-.32.15-.67.19-.99.11Zm7.33-30.57a1.07 1.07 0 0 1-.58-.33.88.88 0 0 1-.21-.6c0-.21.08-.43.23-.63a1.59 1.59 0 0 1 1.34-.63c.25.02.48.1.66.23.18.13.3.32.34.53a1 1 0 0 1-.09.64c-.13.29-.39.53-.7.67-.32.15-.68.2-.99.12Zm-134.43-69.09a18 18 0 0 0 10.24-3.46 1.8 1.8 0 0 1 1-.37c.35-.03.68.06.93.25a.9.9 0 0 1 .23.4 1 1 0 0 1 0 .49c-.05.16-.13.32-.24.47a1.6 1.6 0 0 1-.42.38 21.3 21.3 0 0 1-12.1 4.05c-.2.02-.38 0-.55-.05a1.14 1.14 0 0 1-.44-.25.94.94 0 0 1-.3-.87c.11-.3.34-.56.64-.76.3-.19.67-.29 1.01-.28Zm25.6 1.36c1.05-3 .8-6.05-.72-8.56a1 1 0 0 1-.11-.83c.08-.3.28-.57.56-.77a1.65 1.65 0 0 1 1.07-.17c.17.03.33.1.45.2a1 1 0 0 1 .3.35c1.79 2.97 2.1 6.59.84 10.13-.04.16-.11.31-.22.45a1.67 1.67 0 0 1-1.47.6c-.31-.1-.55-.29-.68-.54a1.04 1.04 0 0 1-.02-.86Zm126.8 34.11c1.05-3 .8-6.05-.72-8.55a1 1 0 0 1-.11-.83c.08-.3.28-.58.56-.78a1.66 1.66 0 0 1 1.07-.17 1.1 1.1 0 0 1 .75.55 11.77 11.77 0 0 1 .84 10.13c-.04.16-.11.32-.22.46a1.56 1.56 0 0 1-.93.57c-.19.04-.37.05-.54.03-.31-.1-.56-.3-.68-.55a1.04 1.04 0 0 1-.02-.86Zm-184.56-24.38c2.7 1.94 6.3 2.79 10.06 2.36.37-.05.73.01 1.01.18.28.18.46.45.51.76 0 .17-.04.35-.13.52-.08.17-.2.32-.34.46a1.73 1.73 0 0 1-1.1.44c-4.45.5-8.7-.49-11.9-2.78a1.01 1.01 0 0 1-.52-.83c0-.17.02-.35.1-.52.07-.17.17-.33.31-.48.3-.23.67-.37 1.03-.39.37-.02.72.08.97.28Zm-6.78-16.18c.37-.06.73 0 1.01.18.28.17.47.43.52.74 0 .17-.04.35-.12.52-.08.17-.2.33-.34.46a1.74 1.74 0 0 1-1.1.46c-4.45.55-8.72-.4-11.94-2.65-.15-.09-.28-.2-.37-.35a1 1 0 0 1-.16-.47c-.02-.17.01-.35.08-.52.07-.18.18-.34.32-.48.3-.23.66-.37 1.02-.4.37-.02.71.07.97.27 2.73 1.9 6.35 2.7 10.11 2.24Zm47.28-15.32a14.88 14.88 0 0 0-10.27-1.8c-.37.07-.74.02-1.03-.13a1.12 1.12 0 0 1-.56-.72 1.34 1.34 0 0 1 .43-.99 1.73 1.73 0 0 1 1.08-.5c4.44-.72 8.78.04 12.13 2.14.16.08.3.2.4.33.1.13.16.3.18.46.02.17 0 .34-.06.52-.06.17-.15.33-.28.48-.3.24-.65.4-1.03.44-.37.04-.72-.04-1-.23Zm-25.59 14.61a1 1 0 0 1 .41.74c.02.3-.08.6-.3.87a1.69 1.69 0 0 1-1.04.44c-.19.01-.37 0-.54-.06a1.1 1.1 0 0 1-.42-.26 11.45 11.45 0 0 1-4.47-9.16.93.93 0 0 1 .07-.49c.06-.16.16-.3.29-.44a1.7 1.7 0 0 1 1.01-.5c.35 0 .66.12.89.32a1 1 0 0 1 .32.78 9.67 9.67 0 0 0 3.78 7.76Zm45.75-15.84c.23.06.43.18.57.34.14.17.21.37.2.59 0 .21-.08.43-.22.63s-.35.36-.58.47c-.24.11-.5.16-.75.15a1.2 1.2 0 0 1-.65-.22.89.89 0 0 1-.35-.52.99.99 0 0 1 .09-.64 1.53 1.53 0 0 1 1.7-.79Zm-17.53 30.69c.65.15.95.76.67 1.35-.28.59-1.04.94-1.7.78-.64-.15-.95-.76-.66-1.35a1.55 1.55 0 0 1 1.69-.78Zm-3.77-59.35c-3.59 0-7.25 1.2-10.25 3.33a1.9 1.9 0 0 1-1 .36 1.4 1.4 0 0 1-.93-.26.92.92 0 0 1-.22-.41 1 1 0 0 1 .01-.49c.04-.16.12-.32.24-.47.11-.14.26-.27.42-.37a21.22 21.22 0 0 1 12.12-3.93 1.26 1.26 0 0 1 .99.3.94.94 0 0 1 .28.88c-.1.3-.33.57-.64.77-.3.2-.66.3-1.01.29Zm21.16 18.56a1.75 1.75 0 0 1-1.52.66 1.3 1.3 0 0 1-.5-.17c-3.54-1.65-6-4.5-6.9-7.97a.96.96 0 0 1-.05-.47c.02-.17.08-.33.18-.49a1.72 1.72 0 0 1 .9-.67c.36-.05.72 0 1 .15s.47.4.53.7a10.33 10.33 0 0 0 5.84 6.73c.3.13.51.36.61.64.1.28.06.6-.09.89Zm-64.52 2.02c.18 0 .34.04.49.1.15.07.27.17.37.29.09.12.15.26.18.4a1 1 0 0 1-.04.47 16.3 16.3 0 0 1-6.15 9.39 1.59 1.59 0 0 1-.98.4c-.17 0-.34-.02-.5-.08a1.02 1.02 0 0 1-.38-.26 1 1 0 0 1-.12-.81c.08-.3.28-.57.55-.77a13.8 13.8 0 0 0 5.19-7.9c.04-.3.2-.6.46-.82.26-.23.6-.38.93-.41Zm19.42 34.68c.65.16.95.76.67 1.35-.28.6-1.04.95-1.7.8-.65-.16-.95-.77-.66-1.36a1.55 1.55 0 0 1 1.69-.79Zm17.32-17.99c.62.23.82.87.45 1.43-.37.55-1.17.82-1.78.6-.62-.23-.82-.87-.46-1.43a1.59 1.59 0 0 1 1.79-.6Zm-1.02-26.81c.65.16.95.76.67 1.35-.28.6-1.04.94-1.7.79-.65-.15-.95-.76-.67-1.35a1.56 1.56 0 0 1 1.7-.79Zm-21.13 11.11c.66.16.96.76.68 1.35-.29.6-1.04.94-1.7.79-.65-.16-.95-.76-.67-1.35.28-.6 1.04-.94 1.7-.79Zm48.72-20.39a1.07 1.07 0 0 1-.58-.33.88.88 0 0 1-.21-.59c0-.22.08-.44.23-.64.14-.2.35-.36.59-.47.23-.12.5-.17.75-.15.25.01.48.09.66.22.17.14.3.32.34.53a1 1 0 0 1-.09.65 1.54 1.54 0 0 1-1.7.79Zm23.25-17a1.07 1.07 0 0 1-.57-.34.88.88 0 0 1-.2-.59c0-.22.08-.44.23-.64a1.6 1.6 0 0 1 1.34-.62c.25.01.48.1.66.23.17.13.3.31.34.52a1 1 0 0 1-.1.65c-.06.14-.16.27-.28.39a1.6 1.6 0 0 1-1.41.4Zm76.39 100.23a17.97 17.97 0 0 0 10.25-3.46 1.8 1.8 0 0 1 1-.37c.35-.02.68.06.93.25.11.12.19.26.23.41a1 1 0 0 1 0 .48 1.4 1.4 0 0 1-.24.47 1.4 1.4 0 0 1-.42.38 21.3 21.3 0 0 1-12.1 4.05c-.2.02-.38 0-.55-.05a1.13 1.13 0 0 1-.44-.24.94.94 0 0 1-.3-.87 1.8 1.8 0 0 1 1.64-1.06Zm-64.21-25.52c.1.27.1.57-.04.85-.13.29-.38.53-.68.7a15.15 15.15 0 0 0-6.7 7.3c-.1.28-.33.54-.62.72-.29.18-.63.28-.95.26a.99.99 0 0 1-.46-.18.91.91 0 0 1-.4-.79 1 1 0 0 1 .13-.47 17.87 17.87 0 0 1 7.9-8.59 1.61 1.61 0 0 1 1.02-.26c.17.02.33.07.47.15.14.08.25.19.33.31Zm32.07 36.61a14.3 14.3 0 0 0 10.06 2.36c.37-.05.72.02 1 .19s.46.44.51.75a1.4 1.4 0 0 1-.48.98 1.76 1.76 0 0 1-1.1.45c-4.45.5-8.7-.5-11.89-2.78a1.01 1.01 0 0 1-.52-.83c0-.18.02-.35.1-.53.06-.17.17-.33.31-.47a2 2 0 0 1 1.04-.4c.36-.01.7.08.97.28Zm-6.79-16.18c.37-.05.73.01 1.01.18.28.17.47.44.53.75 0 .17-.05.34-.13.51-.08.17-.2.33-.34.46a1.75 1.75 0 0 1-1.1.46c-4.45.56-8.72-.4-11.94-2.65-.15-.09-.28-.2-.37-.35a1 1 0 0 1-.16-.47c-.01-.17.02-.35.08-.52.07-.17.18-.33.32-.48.29-.23.66-.37 1.02-.4.37-.02.71.07.97.27 2.73 1.9 6.34 2.7 10.11 2.24Zm-30.14-57.09c-.3-.1-.53-.3-.65-.56a1.05 1.05 0 0 1 0-.85c1.13-2.98.96-6.05-.47-8.6a1.02 1.02 0 0 1-.09-.83c.1-.3.3-.57.58-.77.17-.09.35-.15.54-.17.18-.03.36-.02.53.02.17.04.32.11.45.21.12.1.22.23.28.37 1.7 3 1.89 6.64.55 10.16a1.4 1.4 0 0 1-.24.45c-.11.14-.25.26-.41.36a1.64 1.64 0 0 1-1.07.2Zm18.64 22.51a17 17 0 0 0-10.73.8c-.34.14-.72.19-1.06.11a1.2 1.2 0 0 1-.77-.5.99.99 0 0 1-.07-.49c.02-.17.08-.34.18-.5a1.76 1.76 0 0 1 .9-.7 20.12 20.12 0 0 1 12.68-.93c.18.04.35.1.49.2a.97.97 0 0 1 .43.84 1.3 1.3 0 0 1-.14.5 1.8 1.8 0 0 1-1.91.67Zm58.78 19.26a14.88 14.88 0 0 0-10.27-1.8c-.37.07-.73.02-1.02-.13a1.1 1.1 0 0 1-.57-.72c0-.17.03-.35.1-.52a1.71 1.71 0 0 1 1.4-.96c4.45-.73 8.79.04 12.14 2.14a.98.98 0 0 1 .58.79c.02.16 0 .34-.06.5-.06.18-.16.35-.29.5-.28.24-.64.4-1.01.43-.37.04-.73-.04-1-.23Zm-94.39-15.28c.65.16.95.76.67 1.35-.28.6-1.04.95-1.7.8-.65-.16-.95-.77-.66-1.36a1.56 1.56 0 0 1 1.69-.79Zm1.86 20.31c-.1.21-.27.4-.49.55-.21.14-.46.24-.72.27-.26.03-.5 0-.72-.1a.95.95 0 0 1-.47-.45.9.9 0 0 1-.05-.63c.05-.22.18-.43.36-.6a1.62 1.62 0 0 1 1.42-.4c.16.04.3.1.42.19.11.09.2.2.27.32.06.13.1.27.09.41 0 .15-.04.3-.1.44Zm19.71-71.29c.66.16.96.76.68 1.35-.29.6-1.05.95-1.7.8-.65-.16-.95-.77-.67-1.36a1.55 1.55 0 0 1 1.7-.79Zm-3.81 35.61a1.06 1.06 0 0 1-.57-.34.87.87 0 0 1-.2-.58c0-.22.08-.44.22-.64a1.58 1.58 0 0 1 1.33-.62c.25.02.48.1.66.23.18.13.3.31.34.52.05.2.02.43-.08.64-.14.28-.4.52-.71.67-.32.15-.67.2-.99.12Zm16.09 22.2c.66.15.96.76.68 1.35-.28.59-1.04.94-1.7.79-.65-.16-.95-.76-.66-1.35.28-.6 1.03-.95 1.69-.8Zm34.96 23.06a1 1 0 0 1 .4.75c.02.3-.09.6-.3.86a1.65 1.65 0 0 1-1.57.38 1.12 1.12 0 0 1-.43-.25 11.41 11.41 0 0 1-4.47-9.17c-.01-.16.01-.32.07-.48a1.63 1.63 0 0 1 1.3-.95c.35.01.66.13.88.33.23.2.34.48.33.78a9.66 9.66 0 0 0 3.79 7.75Zm45.74-15.83c.23.06.43.17.57.34a.8.8 0 0 1 .2.58c0 .22-.08.44-.22.63a1.59 1.59 0 0 1-1.33.62 1.2 1.2 0 0 1-.66-.22.89.89 0 0 1-.34-.52 1 1 0 0 1 .09-.64c.13-.28.39-.53.7-.67.32-.15.67-.2.99-.12Zm-17.53 30.68c.65.15.95.76.67 1.35-.28.59-1.04.94-1.7.79-.65-.16-.95-.76-.66-1.35.28-.6 1.03-.95 1.69-.8Zm-73.23-10.79c.65.16.95.76.67 1.35-.28.6-1.04.95-1.7.8-.65-.16-.95-.77-.66-1.36a1.56 1.56 0 0 1 1.69-.79Zm21.19-77.24c-4.17-.63-7.67-2.68-9.78-5.73a.96.96 0 0 1-.21-.43.95.95 0 0 1 .02-.5c.04-.17.13-.33.25-.48.12-.15.27-.28.44-.38.35-.15.73-.2 1.06-.12.34.07.62.25.79.51 1.79 2.56 4.75 4.3 8.28 4.83.35.05.65.2.84.44.2.24.28.55.22.86-.06.17-.15.34-.28.48a1.71 1.71 0 0 1-1.63.53Zm-7.79 25.39a1.1 1.1 0 0 1 .08-.86c.15-.28.4-.52.71-.68a15.37 15.37 0 0 0 6.93-7.13c.11-.3.34-.56.64-.74.3-.18.65-.26.99-.24.17.03.32.1.45.2a.91.91 0 0 1 .37.8c-.02.16-.06.32-.15.47a18.15 18.15 0 0 1-8.18 8.43 1.62 1.62 0 0 1-1.05.24 1.19 1.19 0 0 1-.47-.16.94.94 0 0 1-.32-.33Zm66.86-8.26c-.2.05-.38.06-.56.03a1.26 1.26 0 0 1-.5-.18.92.92 0 0 1-.45-.8c.06-.29.24-.58.5-.81.28-.23.62-.38.97-.41 3.6-.5 7.05-2.14 9.65-4.59.24-.24.57-.42.93-.49.35-.06.7-.02.98.12a.93.93 0 0 1 .38.83c-.01.16-.07.32-.15.48-.1.15-.21.3-.36.41a21.02 21.02 0 0 1-11.4 5.42Zm-10.8 11.55c-3.59 0-7.25 1.2-10.25 3.33-.29.22-.64.34-1 .36-.35.02-.68-.07-.93-.25a.92.92 0 0 1-.21-.9c.04-.17.13-.33.24-.47.12-.15.26-.28.43-.38a21.22 21.22 0 0 1 12.12-3.93c.19-.01.37 0 .54.06.17.05.32.13.44.25a.92.92 0 0 1 .29.87c-.1.3-.34.58-.64.77-.31.2-.67.3-1.02.29Zm-16.37-12.31a1.1 1.1 0 0 1-.68-.53 1.03 1.03 0 0 1-.04-.85c1.03-3 .75-6.06-.79-8.56a1 1 0 0 1-.12-.83c.08-.3.28-.57.56-.78a1.63 1.63 0 0 1 1.07-.18c.17.04.32.1.45.2s.23.22.3.36a11.73 11.73 0 0 1 .94 10.1c-.04.17-.11.32-.22.47a1.66 1.66 0 0 1-1.47.6Zm37.53 30.87c-.1.15-.25.28-.41.39a1.76 1.76 0 0 1-1.11.27 1.29 1.29 0 0 1-.5-.17 12.2 12.2 0 0 1-6.9-7.97.97.97 0 0 1-.05-.47c.02-.17.08-.33.18-.48a1.72 1.72 0 0 1 .9-.67c.36-.06.71 0 1 .15.27.15.46.4.53.69a10.33 10.33 0 0 0 5.84 6.73c.3.13.52.36.61.64.1.28.06.6-.1.89Zm-55.67-13.94c1.78 2.58 4.73 4.32 8.26 4.86.35.05.65.2.84.45.2.24.27.54.22.86-.07.17-.17.33-.3.47a1.7 1.7 0 0 1-1.6.5c-4.17-.64-7.66-2.7-9.76-5.74a.96.96 0 0 1-.22-.44c-.03-.16-.02-.33.02-.5a1.61 1.61 0 0 1 .7-.86 1.7 1.7 0 0 1 1.06-.11c.34.07.61.25.78.51Zm-8.85 15.96c.17 0 .34.04.49.11.15.07.27.16.36.28.1.12.16.26.19.41a1 1 0 0 1-.04.47 16.3 16.3 0 0 1-6.14 9.38 1.57 1.57 0 0 1-.99.4c-.17 0-.34-.02-.5-.07a1.01 1.01 0 0 1-.38-.26 1 1 0 0 1-.12-.82c.08-.3.28-.56.55-.76a13.8 13.8 0 0 0 5.2-7.93c.04-.3.21-.58.47-.8.25-.23.58-.37.91-.4Zm7.32-50.99c.65.16.95.76.67 1.35-.28.6-1.04.95-1.7.8-.65-.16-.95-.77-.67-1.36a1.58 1.58 0 0 1 1.7-.79Zm-20.35 11.01c.65.16.96.76.67 1.35-.28.6-1.04.95-1.69.8-.65-.16-.95-.77-.67-1.36a1.55 1.55 0 0 1 1.7-.78Zm73.74-8.62c.65.16.95.76.67 1.35-.28.6-1.04.94-1.7.79-.65-.16-.95-.76-.67-1.35.28-.6 1.04-.94 1.7-.79Zm-41.29 83.29c.65.15.95.76.67 1.35-.28.59-1.04.94-1.7.79-.65-.16-.95-.76-.67-1.35.29-.6 1.04-.95 1.7-.8Zm16.74-18.63c.24.05.44.17.57.34.14.16.21.36.21.58 0 .22-.08.44-.23.63a1.59 1.59 0 0 1-1.33.62 1.2 1.2 0 0 1-.65-.22.88.88 0 0 1-.34-.52.99.99 0 0 1 .08-.64 1.53 1.53 0 0 1 1.7-.79Zm-.45-26.17c.66.15.96.75.68 1.34-.28.6-1.04.95-1.7.8-.65-.16-.95-.77-.67-1.36a1.55 1.55 0 0 1 1.7-.78Zm-22.97-17.72c.65.16.95.76.67 1.35-.28.6-1.04.95-1.7.8-.65-.16-.95-.77-.67-1.36a1.57 1.57 0 0 1 1.7-.79Zm1.85 28.82c.66.16.96.76.68 1.35-.29.6-1.05.95-1.7.8-.65-.16-.95-.77-.67-1.36a1.55 1.55 0 0 1 1.7-.79Zm27.65-38.96c.66.16.96.76.68 1.36-.28.59-1.04.94-1.7.78-.65-.15-.95-.75-.67-1.35a1.56 1.56 0 0 1 1.7-.79Zm21.08 18.58a1.06 1.06 0 0 1-.58-.34.87.87 0 0 1-.2-.58c0-.22.07-.44.22-.64a1.58 1.58 0 0 1 1.34-.63c.25.02.48.1.66.23.18.13.3.32.34.53a1 1 0 0 1-.09.64c-.13.28-.39.53-.7.67-.32.15-.67.2-.99.12Zm15.92 13.58a1.08 1.08 0 0 1-.58-.34.87.87 0 0 1-.21-.58c0-.22.08-.44.22-.64a1.61 1.61 0 0 1 1.34-.63c.25.01.48.1.66.22.18.14.3.32.35.53.04.2.01.43-.09.64-.06.14-.16.28-.28.4a1.6 1.6 0 0 1-1.41.4Zm7.33-30.59a1.07 1.07 0 0 1-.58-.34.88.88 0 0 1-.2-.58c0-.22.08-.44.22-.64a1.6 1.6 0 0 1 1.34-.63c.25.02.48.1.66.23.18.13.3.32.35.53a1 1 0 0 1-.1.64c-.13.28-.38.53-.7.67-.32.15-.67.2-.99.12Zm-134.44-69.05c3.6-.04 7.26-1.26 10.24-3.42.28-.22.64-.36 1-.38.35-.02.68.07.93.25.11.12.19.26.23.41a1 1 0 0 1 0 .48 1.4 1.4 0 0 1-.24.47 1.4 1.4 0 0 1-.42.38c-3.52 2.56-7.84 4-12.1 4.05-.19.02-.38 0-.55-.05a1.12 1.12 0 0 1-.44-.24.93.93 0 0 1-.3-.87c.1-.3.33-.58.63-.78.3-.2.67-.3 1.02-.3Zm8.33-20.4a14.91 14.91 0 0 0-10.27-1.8c-.37.06-.73.02-1.02-.14-.3-.16-.5-.41-.56-.72-.01-.17.02-.34.1-.51.07-.17.18-.33.32-.47a1.7 1.7 0 0 1 1.08-.5c4.44-.72 8.78.04 12.14 2.13a1.01 1.01 0 0 1 .58.79c.02.17 0 .34-.06.52a1.5 1.5 0 0 1-.29.48c-.28.25-.65.4-1.02.45-.37.04-.73-.05-1-.23Zm-25.59 14.6a1 1 0 0 1 .42.75c.02.3-.09.61-.31.88a1.7 1.7 0 0 1-1.04.44c-.19.01-.37-.01-.54-.07a1.13 1.13 0 0 1-.43-.25 11.44 11.44 0 0 1-4.46-9.17.9.9 0 0 1 .07-.48c.06-.16.16-.31.29-.45a1.64 1.64 0 0 1 1.01-.5c.35.01.66.13.89.33a1 1 0 0 1 .33.78 9.69 9.69 0 0 0 3.77 7.74Zm45.76-15.83c.23.05.44.17.58.33.14.17.21.37.2.59 0 .22-.07.44-.22.64a1.6 1.6 0 0 1-1.34.63 1.2 1.2 0 0 1-.66-.23.9.9 0 0 1-.34-.52 1 1 0 0 1 .08-.65 1.57 1.57 0 0 1 1.7-.8Zm-17.53 30.68c.65.15.95.76.67 1.35-.28.59-1.04.94-1.7.79-.65-.16-.95-.76-.67-1.35.28-.6 1.04-.95 1.7-.8Zm49.41-71.36c-.2.04-.38.05-.56.02a1.25 1.25 0 0 1-.49-.18.93.93 0 0 1-.45-.8c.06-.3.24-.59.52-.82.27-.22.61-.37.96-.4 3.6-.48 7.07-2.1 9.7-4.53.25-.24.58-.41.93-.48.35-.06.7-.02.98.13a.94.94 0 0 1 .37.83c-.01.16-.06.32-.15.48-.1.15-.22.29-.36.4a21.12 21.12 0 0 1-11.45 5.35Zm-53.18 12.01c-3.6.01-7.26 1.2-10.25 3.33-.3.22-.65.35-1 .37-.36.01-.69-.08-.93-.27a.92.92 0 0 1-.22-.41 1.01 1.01 0 0 1 0-.48c.05-.17.13-.33.24-.47.12-.15.26-.27.43-.38a21.28 21.28 0 0 1 12.12-3.93 1.26 1.26 0 0 1 .98.31.93.93 0 0 1 .29.87c-.11.3-.34.58-.64.77-.3.2-.67.3-1.02.3Zm21.16 18.56a1.73 1.73 0 0 1-1.52.66 1.29 1.29 0 0 1-.5-.17c-3.54-1.64-6.01-4.49-6.9-7.96a.95.95 0 0 1-.06-.48c.03-.16.09-.33.19-.48a1.72 1.72 0 0 1 .9-.67c.36-.06.71 0 1 .14.27.16.46.4.53.7a10.33 10.33 0 0 0 5.83 6.74c.3.12.52.35.62.63.1.28.06.6-.1.89Zm-55.67-13.94c1.78 2.58 4.73 4.32 8.26 4.86.35.05.65.2.84.44.2.24.27.55.21.87a1.4 1.4 0 0 1-.29.47 1.69 1.69 0 0 1-1.03.54c-.2.02-.4.01-.57-.03-4.18-.65-7.67-2.7-9.77-5.75a.96.96 0 0 1-.21-.43.95.95 0 0 1 .02-.5c.04-.17.13-.34.25-.48.12-.15.27-.28.44-.38.35-.15.73-.2 1.06-.12.34.07.62.26.79.51Zm10.56 50.65c.66.16.96.76.68 1.35-.29.6-1.04.94-1.7.79-.65-.15-.95-.76-.67-1.35.28-.6 1.04-.94 1.7-.79Zm16.75-18.63c.65.15.95.76.67 1.35-.28.59-1.04.94-1.69.79-.65-.16-.96-.76-.67-1.35.28-.6 1.04-.95 1.69-.8Zm-.45-26.17c.65.15.95.76.67 1.35-.28.59-1.04.94-1.69.79-.65-.16-.95-.76-.67-1.35.28-.6 1.04-.95 1.7-.8Zm-21.12 11.1c.65.16.95.76.67 1.35-.28.6-1.04.95-1.69.8-.65-.16-.95-.77-.67-1.36a1.56 1.56 0 0 1 1.7-.79Zm48.71-20.39a1.06 1.06 0 0 1-.57-.33.87.87 0 0 1-.2-.58c0-.22.08-.44.22-.64a1.58 1.58 0 0 1 1.33-.62c.25.01.48.1.66.22.18.14.3.32.34.52a1 1 0 0 1-.08.65 1.53 1.53 0 0 1-1.7.79Zm23.27-17a1.04 1.04 0 0 1-.55-.36.88.88 0 0 1-.19-.59c.02-.21.1-.43.25-.62a1.57 1.57 0 0 1 1.34-.59c.25.02.48.1.65.24.17.13.28.32.32.52a1 1 0 0 1-.1.65 1.57 1.57 0 0 1-1.72.75Zm30.82 2.14a1.07 1.07 0 0 1-.57-.35.88.88 0 0 1-.2-.59c0-.21.08-.44.22-.63a1.59 1.59 0 0 1 1.34-.62c.25 0 .48.09.66.22.18.14.3.32.34.53a1 1 0 0 1-.09.64c-.06.14-.16.28-.28.4a1.58 1.58 0 0 1-1.41.4Zm-37.83 28.53a1.06 1.06 0 0 1-.57-.33.87.87 0 0 1-.2-.59c0-.21.07-.43.22-.63a1.58 1.58 0 0 1 1.33-.62c.25.01.48.09.65.22.18.13.3.31.35.52.04.2.01.43-.09.64a1.53 1.53 0 0 1-1.7.79Zm83.38 69.57c3.6-.05 7.27-1.27 10.24-3.44.29-.21.64-.35 1-.37.35-.02.69.06.93.25.12.12.2.26.23.41a1 1 0 0 1 0 .49c-.04.16-.12.32-.23.46a1.6 1.6 0 0 1-.43.38 21.3 21.3 0 0 1-12.1 4.05c-.19.02-.37 0-.54-.05a1.15 1.15 0 0 1-.45-.24.93.93 0 0 1-.3-.87c.11-.3.34-.58.64-.78.3-.2.66-.3 1.01-.3Zm25.75 1.4c1.05-3 .8-6.06-.72-8.57a1 1 0 0 1-.12-.83c.09-.3.29-.58.57-.78a1.63 1.63 0 0 1 1.07-.18c.17.04.33.11.46.2.13.1.22.23.29.37a11.79 11.79 0 0 1 .84 10.12c-.04.16-.11.31-.22.45s-.25.27-.41.37a1.63 1.63 0 0 1-1.07.23c-.3-.1-.54-.28-.67-.54a1.04 1.04 0 0 1-.03-.84Zm-126.61-34.07c1.05-3 .8-6.06-.72-8.56a1 1 0 0 1-.11-.84c.08-.3.28-.57.56-.77a1.52 1.52 0 0 1 1.08-.17 1.1 1.1 0 0 1 .75.55 11.79 11.79 0 0 1 .84 10.13 1.2 1.2 0 0 1-.23.45c-.1.14-.24.27-.4.37a1.63 1.63 0 0 1-1.07.23c-.3-.1-.54-.29-.67-.54a1.04 1.04 0 0 1-.03-.85Zm36.66 7.14c.1.27.09.57-.05.86-.13.28-.37.53-.68.7a15.15 15.15 0 0 0-6.69 7.3c-.11.28-.33.54-.62.72-.3.18-.63.27-.96.26-.17-.03-.33-.1-.46-.18a.9.9 0 0 1-.4-.79c.01-.16.06-.32.13-.47a17.86 17.86 0 0 1 7.9-8.6 1.63 1.63 0 0 1 1.03-.25c.17.02.33.07.47.14.13.08.25.19.33.31Zm32.06 36.62c2.7 1.94 6.3 2.78 10.06 2.35.37-.05.73.02 1 .2.29.17.47.44.51.75 0 .17-.04.35-.12.52-.08.17-.2.32-.35.46a1.74 1.74 0 0 1-1.1.44c-4.45.51-8.7-.48-11.9-2.78-.15-.1-.27-.21-.36-.36a1 1 0 0 1-.15-.47 1.2 1.2 0 0 1 .09-.52c.07-.17.18-.33.32-.47.3-.24.66-.37 1.03-.4.37-.02.71.08.97.28Zm-6.78-16.19c.37-.05.73.01 1.01.18.28.18.47.44.52.75 0 .18-.04.35-.12.52a1.76 1.76 0 0 1-1.44.92c-4.45.55-8.72-.4-11.94-2.65a1 1 0 0 1-.53-.82.95.95 0 0 1 .08-.52c.07-.17.17-.34.31-.48.3-.23.66-.38 1.03-.4.36-.03.71.06.97.26 2.73 1.91 6.34 2.71 10.1 2.24Zm-30.14-57.09c-.3-.1-.54-.3-.66-.55a1.04 1.04 0 0 1 0-.86c1.14-2.98.97-6.05-.46-8.6a1.02 1.02 0 0 1-.1-.83c.1-.3.3-.57.59-.77.17-.09.35-.14.53-.17.19-.03.37-.02.54.02.17.04.32.12.44.21.13.1.22.23.28.37 1.7 3 1.9 6.64.55 10.16a1.2 1.2 0 0 1-.23.45 1.55 1.55 0 0 1-.94.56 1.4 1.4 0 0 1-.54.01Zm18.63 22.51c-3.36-.91-7.2-.63-10.73.8-.34.15-.71.19-1.05.12a1.2 1.2 0 0 1-.78-.5.98.98 0 0 1-.06-.5c.02-.16.07-.33.17-.49.1-.15.23-.3.38-.42.16-.12.34-.21.53-.27a20.11 20.11 0 0 1 12.67-.95c.19.04.35.1.5.2a.96.96 0 0 1 .43.84c-.02.17-.06.34-.15.5a1.8 1.8 0 0 1-1.91.67Zm58.78 19.28a14.91 14.91 0 0 0-10.26-1.81c-.37.07-.73.02-1.03-.14a1 1 0 0 1-.56-.71c-.01-.17.02-.35.1-.52.07-.17.18-.33.32-.47a1.73 1.73 0 0 1 1.08-.49c4.44-.73 8.78.03 12.14 2.13a.98.98 0 0 1 .58.79c.02.16 0 .34-.06.51a1.4 1.4 0 0 1-.29.48c-.28.25-.65.4-1.02.45-.37.04-.72-.04-1-.23Zm-93.68-13.93a1.63 1.63 0 0 1-1.21.81 1.4 1.4 0 0 1-.71-.1.95.95 0 0 1-.46-.44.9.9 0 0 1-.06-.63c.05-.22.18-.42.36-.6a1.6 1.6 0 0 1 1.4-.4c.16.04.3.1.42.2a.87.87 0 0 1 .37.73c-.01.14-.05.29-.11.43Zm.5 17.59c.65.16.95.76.67 1.35-.28.6-1.04.95-1.69.8-.65-.16-.95-.77-.67-1.36a1.56 1.56 0 0 1 1.7-.79Zm20.37-69.93c.65.15.95.76.67 1.35-.28.59-1.04.94-1.7.79-.65-.16-.95-.76-.67-1.35.29-.6 1.04-.95 1.7-.8Zm-3.81 35.6a1.06 1.06 0 0 1-.58-.33.87.87 0 0 1-.21-.59c0-.22.08-.44.23-.64a1.58 1.58 0 0 1 1.34-.63c.25.02.48.1.66.23.17.14.3.32.34.53a1 1 0 0 1-.1.64 1.54 1.54 0 0 1-1.7.79Zm16.09 22.21c.66.15.96.75.67 1.35-.28.59-1.04.94-1.69.79-.65-.16-.95-.76-.67-1.36a1.55 1.55 0 0 1 1.7-.78Zm34.95 23.06a1 1 0 0 1 .4.74c.03.3-.08.6-.3.87a1.65 1.65 0 0 1-1.57.38 1.13 1.13 0 0 1-.43-.26 11.4 11.4 0 0 1-4.46-9.17c-.01-.15 0-.32.07-.48.06-.16.16-.3.29-.44a1.65 1.65 0 0 1 1-.5c.36 0 .69.11.91.32.23.2.35.5.33.8a9.67 9.67 0 0 0 3.76 7.74Zm45.75-15.84c.23.06.43.17.57.34a.9.9 0 0 1 .22.58c0 .22-.09.44-.23.64s-.35.37-.59.48c-.24.11-.5.16-.75.15a1.2 1.2 0 0 1-.66-.22.89.89 0 0 1-.34-.53 1 1 0 0 1 .08-.64c.07-.14.16-.28.28-.4a1.58 1.58 0 0 1 1.42-.4Zm-17.53 30.68c.65.16.95.76.67 1.35-.28.6-1.04.94-1.7.79-.65-.16-.95-.76-.67-1.35.28-.6 1.04-.94 1.7-.79Zm-73.24-10.78c.66.16.96.76.68 1.35-.29.6-1.04.94-1.7.79-.65-.16-.95-.76-.67-1.35.28-.6 1.04-.94 1.7-.79Zm21.2-77.24c-4.18-.64-7.67-2.69-9.78-5.73a.97.97 0 0 1-.22-.43c-.03-.16-.02-.33.03-.5.04-.17.13-.34.25-.48.12-.15.27-.28.44-.38.34-.15.72-.2 1.06-.13.34.08.62.26.78.52 1.78 2.57 4.74 4.3 8.28 4.84.35.05.65.2.84.45.2.24.27.54.22.86a1.7 1.7 0 0 1-1.33 1c-.2.03-.4.03-.57-.02Zm-7.8 25.38c-.1-.27-.06-.57.09-.85.14-.28.4-.52.7-.68a15.39 15.39 0 0 0 6.94-7.14c.11-.3.34-.55.64-.73.3-.18.65-.27.99-.25.16.04.32.1.44.2.13.1.23.22.3.36.06.14.08.29.07.45-.01.15-.06.31-.15.46a18.15 18.15 0 0 1-8.18 8.44 1.5 1.5 0 0 1-1.05.24 1.18 1.18 0 0 1-.47-.16.93.93 0 0 1-.32-.34Zm66.86-8.25c-.19.04-.38.05-.56.02a1.25 1.25 0 0 1-.49-.17.92.92 0 0 1-.45-.8c.06-.3.24-.6.5-.82.27-.23.62-.37.97-.41a17.8 17.8 0 0 0 9.65-4.6c.25-.24.57-.4.93-.47.35-.07.7-.03.98.11a.93.93 0 0 1 .38.82c-.02.17-.07.33-.15.48-.1.16-.21.3-.36.42a21.01 21.01 0 0 1-11.4 5.42Zm-10.79 11.55c-3.6 0-7.26 1.2-10.25 3.33-.3.21-.65.34-1 .36-.36.02-.69-.08-.93-.26a.92.92 0 0 1-.23-.42.99.99 0 0 1 .02-.48c.04-.17.12-.32.24-.47.11-.14.26-.27.42-.37a21.22 21.22 0 0 1 12.12-3.94c.2-.01.38 0 .55.06.17.06.32.14.44.25a.93.93 0 0 1 .28.88c-.1.3-.33.58-.64.77-.3.2-.67.3-1.02.29Zm-16.37-12.31a1.1 1.1 0 0 1-.69-.54 1.04 1.04 0 0 1-.03-.85 9.9 9.9 0 0 0-.8-8.53 1 1 0 0 1-.13-.83c.09-.3.28-.58.56-.78a1.63 1.63 0 0 1 1.07-.19 1.03 1.03 0 0 1 .76.56 11.73 11.73 0 0 1 .94 10.1c-.04.17-.12.32-.23.46a1.68 1.68 0 0 1-1.46.6Zm37.53 30.86a1.73 1.73 0 0 1-1.52.66 1.3 1.3 0 0 1-.5-.17 12.12 12.12 0 0 1-6.9-7.96.97.97 0 0 1-.06-.48c.03-.16.09-.33.18-.48a1.75 1.75 0 0 1 .9-.67c.37-.06.72 0 1 .15s.47.4.53.69a10.33 10.33 0 0 0 5.84 6.74c.3.13.52.35.62.63.1.28.06.6-.1.9Zm-55.68-13.93c1.78 2.57 4.74 4.3 8.27 4.86.35.04.65.2.84.44.2.24.27.55.21.86-.06.17-.16.33-.29.47a1.7 1.7 0 0 1-1.03.54c-.2.03-.4.02-.58-.03-4.17-.64-7.66-2.7-9.76-5.75a.97.97 0 0 1-.22-.43 1.23 1.23 0 0 1 .28-.98c.12-.15.27-.28.44-.38.35-.15.72-.2 1.06-.12.34.08.62.26.78.52Zm-8.85 15.98c.17.01.33.05.48.12.15.06.27.16.37.28.09.12.15.25.18.4a1 1 0 0 1-.04.47c-.72 3.53-2.92 6.88-6.14 9.38a1.6 1.6 0 0 1-.98.4 1.3 1.3 0 0 1-.5-.07 1.02 1.02 0 0 1-.4-.25 1 1 0 0 1-.1-.82c.08-.3.27-.57.54-.77a13.8 13.8 0 0 0 5.2-7.93c.05-.3.21-.58.47-.8.25-.22.58-.37.91-.4Zm7.32-51.01c.66.15.96.76.68 1.35-.29.59-1.04.94-1.7.79-.65-.16-.95-.76-.67-1.35.28-.6 1.04-.95 1.7-.79Zm-20.34 11.01c.65.16.95.76.67 1.35-.28.6-1.04.95-1.7.8-.65-.16-.95-.77-.67-1.36a1.56 1.56 0 0 1 1.7-.79Zm73.72-8.62c.66.15.96.76.68 1.35-.28.59-1.04.94-1.7.79-.65-.16-.95-.76-.66-1.35.28-.6 1.04-.95 1.69-.8Zm-41.28 83.28c.66.16.96.76.67 1.35-.28.6-1.04.95-1.69.8-.65-.16-.95-.77-.67-1.36a1.55 1.55 0 0 1 1.7-.79Zm16.75-18.63c.24.06.44.17.58.34.14.16.21.37.2.58 0 .22-.07.44-.22.64a1.6 1.6 0 0 1-1.34.63 1.2 1.2 0 0 1-.66-.23.89.89 0 0 1-.34-.52 1 1 0 0 1 .09-.65c.13-.28.39-.53.7-.67.32-.15.68-.2.99-.12Zm-.45-26.17c.65.16.95.76.67 1.35-.28.6-1.04.95-1.7.8-.64-.16-.95-.77-.66-1.36a1.56 1.56 0 0 1 1.69-.79Zm-22.98-17.72c.66.16.96.76.68 1.35-.28.6-1.04.95-1.7.8-.65-.16-.95-.77-.67-1.36a1.55 1.55 0 0 1 1.7-.78Zm1.86 28.83c.65.15.95.76.67 1.35-.28.59-1.04.94-1.7.78-.65-.15-.95-.76-.66-1.34.28-.6 1.03-.95 1.69-.8Zm27.65-38.96c.65.16.95.76.67 1.35-.28.6-1.04.95-1.7.8-.65-.16-.95-.77-.67-1.36a1.58 1.58 0 0 1 1.7-.79Zm21.08 18.57a1.05 1.05 0 0 1-.57-.33.86.86 0 0 1-.2-.59c0-.21.07-.43.22-.63a1.59 1.59 0 0 1 1.33-.62c.25.01.48.09.65.22.18.13.3.31.35.52.04.2.01.43-.09.64a1.53 1.53 0 0 1-1.7.79Zm23.25-17.01a1.06 1.06 0 0 1-.57-.33.87.87 0 0 1-.2-.59c0-.21.08-.43.22-.63a1.58 1.58 0 0 1 1.33-.62c.25.01.48.09.66.22.17.13.3.31.34.52.04.2.02.43-.09.64a1.53 1.53 0 0 1-1.7.79Zm-123.46-60.04c.65.15.96.76.67 1.35-.28.59-1.04.94-1.69.79-.65-.16-.95-.76-.67-1.35.28-.6 1.04-.95 1.7-.8Zm-9.09 16.97a1.66 1.66 0 0 1-1.58.4 1.12 1.12 0 0 1-.43-.26 11.44 11.44 0 0 1-4.66-9.08 1.2 1.2 0 0 1 .34-.93 1.64 1.64 0 0 1 1-.51c.35 0 .67.1.9.3a1 1 0 0 1 .34.78 9.7 9.7 0 0 0 3.95 7.7 1 1 0 0 1 .43.72c.02.3-.08.6-.3.87Zm124.91 8.1c3.6-.05 7.26-1.27 10.24-3.44.28-.21.63-.35.99-.37.36-.02.69.06.94.25a.94.94 0 0 1 .22.9c-.04.15-.12.31-.23.46a1.6 1.6 0 0 1-.42.37 21.3 21.3 0 0 1-12.1 4.06c-.2.02-.38 0-.55-.05a1.15 1.15 0 0 1-.44-.24.94.94 0 0 1-.3-.87c.1-.3.33-.58.63-.78.3-.2.67-.3 1.02-.3Zm-32.14 11.09c2.7 1.94 6.29 2.78 10.06 2.35.37-.05.72.02 1 .2.28.17.46.44.5.75 0 .17-.04.35-.12.52-.08.17-.2.32-.35.46a1.76 1.76 0 0 1-1.1.44c-4.45.51-8.7-.48-11.89-2.78-.15-.1-.28-.21-.37-.36a1 1 0 0 1-.15-.47c0-.17.02-.35.1-.52.06-.17.17-.33.31-.48.3-.23.67-.36 1.03-.39.37-.02.72.08.97.28Zm-6.79-16.19c.37-.05.73.01 1.01.18.29.17.47.44.53.75 0 .18-.05.35-.13.52-.08.17-.2.32-.34.46a1.75 1.75 0 0 1-1.1.46c-4.45.55-8.72-.4-11.94-2.65-.15-.09-.28-.2-.37-.35a1 1 0 0 1-.16-.47c-.02-.17.01-.35.08-.52.07-.17.18-.34.32-.48.29-.23.65-.38 1.02-.4.37-.03.71.07.97.26 2.73 1.91 6.34 2.71 10.11 2.24Zm47.29-15.3a14.92 14.92 0 0 0-10.28-1.82c-.37.07-.73.03-1.02-.13a1.1 1.1 0 0 1-.57-.71 1.34 1.34 0 0 1 .42-.99 1.74 1.74 0 0 1 1.09-.5c4.43-.71 8.76.05 12.11 2.15a.99.99 0 0 1 .58.79 1.34 1.34 0 0 1-.35 1c-.28.23-.64.39-1 .43-.37.03-.72-.05-.99-.23Zm-92.54 5c-.1.22-.27.41-.48.56-.22.15-.47.24-.73.27-.25.03-.5 0-.71-.1a.95.95 0 0 1-.47-.44.91.91 0 0 1-.07-.63c.06-.22.19-.43.37-.6a1.62 1.62 0 0 1 1.42-.4c.16.03.3.1.41.19a.86.86 0 0 1 .36.73c0 .14-.03.29-.1.43Zm32-13.46c.65.15.95.76.67 1.35-.28.59-1.04.94-1.7.78-.65-.15-.95-.75-.67-1.35a1.55 1.55 0 0 1 1.7-.78Zm34.94 23.06a1 1 0 0 1 .41.74c.02.3-.09.6-.3.87a1.65 1.65 0 0 1-1.57.37 1.1 1.1 0 0 1-.43-.25 11.38 11.38 0 0 1-4.45-9.2.91.91 0 0 1 .07-.48c.06-.16.16-.3.29-.44a1.64 1.64 0 0 1 1-.5c.35 0 .67.12.89.32.22.2.34.48.32.78a9.67 9.67 0 0 0 3.77 7.79Zm45.75-15.84c.24.06.44.17.58.34.14.16.21.37.21.58 0 .22-.08.45-.23.64a1.59 1.59 0 0 1-1.34.62 1.2 1.2 0 0 1-.66-.22.9.9 0 0 1-.34-.52 1 1 0 0 1 .09-.65c.13-.28.39-.53.7-.67.32-.15.68-.2 1-.12Zm-17.53 30.68c.65.15.95.76.67 1.35-.28.59-1.04.94-1.7.79-.64-.16-.95-.76-.66-1.35.28-.6 1.04-.95 1.69-.79Zm-73.23-10.79c.65.16.95.76.67 1.35-.28.6-1.04.95-1.69.8-.65-.16-.96-.77-.67-1.36a1.56 1.56 0 0 1 1.69-.79Zm69.46-48.55a18 18 0 0 0-10.25 3.32 1.8 1.8 0 0 1-1 .37 1.4 1.4 0 0 1-.93-.26.92.92 0 0 1-.21-.9c.04-.17.13-.33.24-.47.12-.14.26-.27.43-.37a21.22 21.22 0 0 1 12.12-3.94c.19-.01.38 0 .55.06.17.05.32.14.44.25a.94.94 0 0 1 .28.88 1.78 1.78 0 0 1-1.67 1.06Zm21.15 18.56c-.1.15-.24.28-.4.39a1.73 1.73 0 0 1-1.11.27 1.3 1.3 0 0 1-.5-.16c-3.55-1.65-6.01-4.5-6.9-7.97a.98.98 0 0 1-.06-.47c.02-.17.09-.33.18-.49a1.75 1.75 0 0 1 .9-.67c.37-.06.72 0 1 .15s.47.4.53.69a10.34 10.34 0 0 0 5.86 6.71c.3.13.52.36.62.65.1.28.05.6-.11.9Zm-55.66-13.94c1.78 2.57 4.73 4.3 8.27 4.86.35.04.64.2.84.44.19.24.26.54.2.86a1.2 1.2 0 0 1-.28.47 1.71 1.71 0 0 1-1.61.51c-4.18-.64-7.67-2.7-9.76-5.75a.96.96 0 0 1-.22-.43c-.03-.16-.03-.33.02-.5.05-.17.13-.33.25-.48.12-.15.28-.28.45-.38.34-.15.72-.2 1.06-.12.34.08.61.26.78.52Zm-8.86 15.98c.17.01.34.05.48.12a1 1 0 0 1 .37.28c.1.12.16.25.18.4.03.15.02.31-.03.47a16.3 16.3 0 0 1-6.14 9.38 1.58 1.58 0 0 1-.98.4 1.3 1.3 0 0 1-.5-.07 1.03 1.03 0 0 1-.4-.26 1.01 1.01 0 0 1-.11-.81c.08-.3.27-.57.55-.77a13.81 13.81 0 0 0 5.2-7.93c.04-.3.2-.58.46-.8.26-.22.58-.37.92-.4Zm19.42 34.66c.66.16.96.76.68 1.35-.28.6-1.04.95-1.7.8-.65-.16-.95-.77-.67-1.36a1.57 1.57 0 0 1 1.7-.79Zm-22.8 9.69c.65.15.95.76.67 1.35-.29.59-1.05.94-1.7.79-.65-.16-.95-.76-.67-1.35.28-.6 1.04-.95 1.7-.8Zm39.55-28.32a1 1 0 0 1 .58.34c.14.16.22.36.21.58 0 .22-.08.44-.22.64a1.59 1.59 0 0 1-1.34.63 1.2 1.2 0 0 1-.66-.23.9.9 0 0 1-.35-.52 1 1 0 0 1 .1-.65c.13-.28.38-.53.7-.67.32-.15.67-.2.98-.12Zm-.45-26.17c.66.15.96.75.68 1.35-.28.59-1.04.94-1.7.78-.65-.15-.95-.75-.67-1.35a1.55 1.55 0 0 1 1.7-.78Zm-21.12 11.11c.66.15.96.75.68 1.35-.29.59-1.04.94-1.7.78-.65-.15-.95-.76-.67-1.35a1.55 1.55 0 0 1 1.7-.78Zm48.73-20.39a1.06 1.06 0 0 1-.57-.33.88.88 0 0 1-.2-.59c0-.21.08-.43.22-.63a1.58 1.58 0 0 1 1.33-.62c.25.01.48.09.66.22.17.13.3.31.34.52.05.2.02.43-.08.64-.14.29-.4.53-.71.68-.32.15-.67.19-.99.11Zm16.05 13.62a1.06 1.06 0 0 1-.57-.34.87.87 0 0 1-.21-.59c0-.21.08-.43.23-.63a1.58 1.58 0 0 1 1.33-.62c.25.01.47.09.65.22.18.13.3.32.34.52.05.2.02.43-.08.64a1.53 1.53 0 0 1-1.7.79Zm-114.22 310.58c-.3-.1-.53-.3-.66-.56a1.05 1.05 0 0 1 0-.85c1.13-2.98.97-6.06-.47-8.6a1 1 0 0 1-.1-.84c.1-.3.3-.57.6-.76a1.62 1.62 0 0 1 1.06-.15c.17.04.32.1.45.2.12.1.22.23.28.37a11.84 11.84 0 0 1 .34 10.6 1.66 1.66 0 0 1-1.5.6Zm18.62 22.5c-3.36-.92-7.2-.63-10.73.8-.34.15-.72.19-1.06.12a1.2 1.2 0 0 1-.78-.5.99.99 0 0 1-.06-.5c.02-.16.08-.33.17-.49a1.75 1.75 0 0 1 .91-.7 20.05 20.05 0 0 1 12.68-.93c.18.03.35.1.5.2a.98.98 0 0 1 .43.84 1.3 1.3 0 0 1-.14.5 1.8 1.8 0 0 1-1.92.66Zm-34.93 5.36c-.1.22-.27.4-.49.56-.21.14-.46.24-.72.27-.25.03-.5 0-.72-.1a.9.9 0 0 1-.54-1.07c.06-.22.19-.43.37-.6.18-.18.42-.31.67-.38.25-.08.51-.09.75-.03a1 1 0 0 1 .69.51c.13.26.12.56-.01.84Zm19.89-50.21a1.07 1.07 0 0 1-.58-.33.88.88 0 0 1-.2-.6c0-.21.08-.43.22-.63.15-.2.36-.36.6-.47a1.4 1.4 0 0 1 1.4.07c.18.14.3.32.35.53a1 1 0 0 1-.1.65c-.06.14-.16.27-.28.39a1.57 1.57 0 0 1-1.41.4Zm-2.8 33.47a1.07 1.07 0 0 1-.58-.34.88.88 0 0 1-.2-.59c0-.21.08-.44.23-.63a1.6 1.6 0 0 1 1.34-.62c.25 0 .47.08.65.22.18.13.3.31.35.52a1 1 0 0 1-.09.64 1.55 1.55 0 0 1-1.7.8Zm27.23-27.92c-4.18-.64-7.67-2.69-9.78-5.73a.95.95 0 0 1-.22-.43c-.03-.16-.03-.34.02-.5.05-.17.13-.34.25-.49.13-.14.28-.27.45-.38.34-.15.72-.19 1.06-.12.34.08.61.26.78.51 1.78 2.58 4.74 4.31 8.28 4.86.34.04.64.2.84.44.2.24.27.54.21.86-.06.17-.15.33-.28.47a1.69 1.69 0 0 1-1.6.51Zm-7.81 25.39a1.1 1.1 0 0 1 .1-.86c.14-.28.4-.52.7-.68a15.36 15.36 0 0 0 6.93-7.13c.11-.3.34-.56.64-.74.3-.18.66-.27.99-.25a1 1 0 0 1 .74.56c.06.13.09.29.08.45-.01.15-.06.31-.14.46a18.2 18.2 0 0 1-8.22 8.45 1.63 1.63 0 0 1-1.03.23 1.2 1.2 0 0 1-.47-.17.98.98 0 0 1-.32-.32Zm66.87-8.26c-.19.05-.38.05-.56.03a1.24 1.24 0 0 1-.48-.18.97.97 0 0 1-.33-.34.9.9 0 0 1-.12-.45c.05-.3.23-.6.5-.82.26-.23.6-.38.96-.42 3.6-.5 7.04-2.14 9.65-4.59.24-.24.57-.42.92-.48.35-.07.7-.03.98.12.13.1.23.22.3.36.07.14.1.3.08.46 0 .16-.06.33-.15.48-.09.15-.2.3-.36.41a21.02 21.02 0 0 1-11.39 5.42Zm-10.79 11.55c-3.6 0-7.25 1.2-10.25 3.33a1.9 1.9 0 0 1-1 .36 1.4 1.4 0 0 1-.93-.26.93.93 0 0 1-.21-.9c.04-.16.12-.32.24-.46.11-.15.26-.27.43-.37a21.23 21.23 0 0 1 12.11-3.94c.2-.01.38 0 .55.06.17.05.32.13.44.25a.93.93 0 0 1 .29.87 1.78 1.78 0 0 1-1.67 1.06Zm-16.38-12.31c-.3-.1-.55-.28-.68-.54a1.03 1.03 0 0 1-.03-.84c1.03-3 .74-6.06-.8-8.56-.15-.24-.2-.54-.12-.83.08-.3.28-.57.56-.78a1.67 1.67 0 0 1 1.07-.18c.17.04.33.1.46.2s.23.21.3.35a11.76 11.76 0 0 1 .93 10.11c-.04.16-.11.32-.22.46a1.57 1.57 0 0 1-1.47.61Zm-18.13 16.93c1.78 2.58 4.74 4.32 8.28 4.87.34.04.64.2.83.44.2.24.27.55.22.86-.06.17-.16.33-.3.47a1.7 1.7 0 0 1-1.6.5c-4.17-.64-7.66-2.7-9.77-5.74a.95.95 0 0 1-.21-.43.95.95 0 0 1 .02-.5c.05-.17.13-.33.25-.48.12-.15.28-.28.45-.38.34-.15.72-.2 1.05-.12.34.07.62.25.78.5Zm-1.54-35.03c.66.15.96.76.68 1.35-.28.6-1.04.94-1.7.79-.65-.16-.95-.76-.67-1.35.28-.6 1.04-.94 1.7-.79Zm-20.34 11.02c.65.15.95.76.67 1.35-.28.59-1.04.94-1.7.79-.65-.16-.95-.76-.67-1.35a1.55 1.55 0 0 1 1.7-.8Zm73.73-8.63c.65.15.96.76.67 1.35-.28.59-1.04.94-1.69.79-.65-.16-.95-.76-.67-1.35a1.55 1.55 0 0 1 1.7-.8Zm-24.99 38.48c.65.15.95.76.67 1.35-.29.59-1.04.94-1.7.79-.65-.16-.95-.76-.67-1.35.28-.6 1.04-.94 1.7-.8Zm-23.97-15.57a1.05 1.05 0 0 1-.58-.33.87.87 0 0 1-.2-.58c0-.22.08-.44.23-.64a1.59 1.59 0 0 1 1.33-.62c.25.01.47.1.65.22.18.14.3.32.34.53.05.2.02.42-.08.64a1.53 1.53 0 0 1-1.7.79Zm30.5-12.27c.65.15.95.76.67 1.35-.28.59-1.04.94-1.7.79-.64-.16-.95-.76-.66-1.35.28-.6 1.04-.95 1.69-.8Zm21.07 18.57a1.06 1.06 0 0 1-.57-.34.87.87 0 0 1-.21-.59c0-.22.08-.44.23-.64a1.6 1.6 0 0 1 1.34-.62c.25.01.48.1.66.23.18.13.3.31.34.52a1 1 0 0 1-.09.65c-.07.14-.16.27-.29.39a1.57 1.57 0 0 1-1.4.4Zm23.25-17.01a1.07 1.07 0 0 1-.58-.34.87.87 0 0 1-.2-.59c0-.22.08-.44.22-.64.15-.2.35-.36.6-.47.23-.11.5-.16.74-.15.25.01.48.1.66.22.18.14.3.32.34.53a1 1 0 0 1-.08.65c-.14.28-.4.52-.71.67-.32.15-.67.19-.99.12Zm11.92 13.56c.65.16.95.77.67 1.36-.28.59-1.04.94-1.7.79-.65-.16-.95-.76-.67-1.35.29-.6 1.04-.95 1.7-.8Zm23.41 7.7c-4.18-.64-7.68-2.7-9.78-5.74a.95.95 0 0 1-.22-.43c-.03-.16-.02-.33.02-.5a1.61 1.61 0 0 1 .7-.86c.34-.15.72-.2 1.06-.12.34.07.61.25.78.5 1.78 2.58 4.74 4.32 8.27 4.86.35.05.65.2.85.44.19.24.27.55.21.86a1.4 1.4 0 0 1-.29.47 1.74 1.74 0 0 1-1.03.54c-.2.03-.4.02-.57-.03Zm12.22-1.74c.66.16.96.76.68 1.35-.28.6-1.04.95-1.7.8-.65-.16-.95-.77-.67-1.36a1.55 1.55 0 0 1 1.7-.79Zm-55.17-54.5a18 18 0 0 0 10.24-3.46c.28-.22.63-.35.99-.37.35-.03.69.06.94.24a.93.93 0 0 1 .22.9 1.37 1.37 0 0 1-.66.85c-3.5 2.55-7.83 4-12.1 4.05-.18.02-.37 0-.54-.05a1.14 1.14 0 0 1-.44-.25.93.93 0 0 1-.3-.87c.12-.3.34-.56.65-.76.3-.19.66-.29 1-.28Zm-64.22-25.52c.1.26.1.56-.04.85-.13.28-.38.53-.68.7a15.16 15.16 0 0 0-6.7 7.3c-.1.28-.33.54-.62.72-.29.18-.63.27-.96.26-.17-.03-.33-.1-.46-.19a.92.92 0 0 1-.4-.79c.01-.15.06-.31.13-.46a17.87 17.87 0 0 1 7.9-8.6 1.64 1.64 0 0 1 1.03-.25c.17.02.33.07.47.15.14.08.25.18.33.3Zm32.06 36.61c2.7 1.94 6.3 2.79 10.06 2.36.37-.05.73.01 1 .19.29.17.47.44.52.75 0 .17-.04.35-.13.52-.08.17-.2.32-.34.46a1.72 1.72 0 0 1-1.1.44c-4.45.5-8.7-.48-11.9-2.78a1 1 0 0 1-.52-.83c-.01-.17.02-.35.1-.52.06-.17.17-.33.31-.48.3-.23.67-.37 1.03-.39.37-.02.71.08.97.28Zm-6.78-16.18c.36-.06.72 0 1 .18.29.17.47.43.53.74 0 .17-.04.35-.12.52-.08.17-.2.33-.34.46a1.78 1.78 0 0 1-1.1.46c-4.45.55-8.72-.4-11.94-2.65a1 1 0 0 1-.53-.82.94.94 0 0 1 .08-.52c.07-.18.17-.34.31-.48.3-.23.66-.38 1.03-.4.37-.03.71.07.97.27 2.73 1.9 6.34 2.7 10.1 2.24Zm-30.14-57.09c-.3-.1-.53-.3-.65-.56a1.05 1.05 0 0 1 0-.85c1.13-2.98.96-6.06-.48-8.6a1 1 0 0 1-.09-.84c.1-.3.3-.57.59-.77.16-.08.35-.14.53-.17a1.4 1.4 0 0 1 .98.23c.13.1.22.23.28.37a11.8 11.8 0 0 1 .55 10.16 1.54 1.54 0 0 1-.64.81 1.66 1.66 0 0 1-1.07.22Zm18.62 22.5a16.89 16.89 0 0 0-10.72.8c-.35.14-.72.19-1.06.11a1.21 1.21 0 0 1-.78-.5.98.98 0 0 1-.06-.49c.01-.17.07-.34.17-.5a1.75 1.75 0 0 1 .91-.7 20.16 20.16 0 0 1 12.67-.93c.19.04.35.1.5.2a.95.95 0 0 1 .43.84c-.01.18-.06.35-.15.5a1.81 1.81 0 0 1-1.9.67Zm58.8 19.27a14.87 14.87 0 0 0-10.27-1.8c-.37.07-.74.02-1.03-.14a1.1 1.1 0 0 1-.56-.72c-.01-.17.02-.34.1-.51.07-.17.18-.33.32-.47a1.75 1.75 0 0 1 1.08-.5c4.44-.72 8.78.04 12.13 2.14.16.08.3.2.4.33.1.13.16.29.18.46.02.17 0 .34-.05.51-.06.18-.16.34-.3.49-.28.24-.64.4-1.01.43a1.5 1.5 0 0 1-1-.22Zm-93.72-13.93c-.1.21-.27.4-.48.55-.22.14-.47.24-.73.27-.25.03-.5 0-.72-.1a.96.96 0 0 1-.46-.45.92.92 0 0 1-.06-.63c.05-.21.18-.43.36-.6a1.62 1.62 0 0 1 1.42-.4c.16.04.3.1.42.2a.88.88 0 0 1 .36.73c0 .14-.04.29-.1.43Zm1.21 18.96c-.1.21-.27.4-.49.55a1.7 1.7 0 0 1-.72.27c-.26.03-.5 0-.72-.1a.9.9 0 0 1-.53-1.07c.06-.22.18-.43.37-.6.18-.18.41-.31.66-.39.26-.07.52-.08.75-.02a1 1 0 0 1 .7.51c.12.26.11.56-.02.85Zm18.68-69.18a1.06 1.06 0 0 1-.57-.34.87.87 0 0 1-.2-.58c0-.22.07-.44.22-.64s.35-.36.59-.47c.24-.11.5-.17.75-.15.25.01.48.09.66.22.18.13.3.32.34.52a1 1 0 0 1-.08.65c-.14.28-.4.53-.72.68-.31.15-.67.19-.99.11Zm19.97-13.66a1.06 1.06 0 0 1-.58-.34.87.87 0 0 1-.2-.58c0-.22.07-.44.22-.64a1.58 1.58 0 0 1 1.34-.63c.25.02.48.1.66.23.18.13.3.32.34.52a1 1 0 0 1-.09.65c-.13.29-.39.53-.7.68-.32.14-.68.19-.99.11Zm-22.78 47.16a1.05 1.05 0 0 1-.56-.35.87.87 0 0 1-.2-.58c0-.22.08-.44.23-.63a1.57 1.57 0 0 1 1.33-.62c.25.01.47.1.65.22.18.14.3.32.34.52a1 1 0 0 1-.08.64c-.07.15-.17.28-.29.4a1.6 1.6 0 0 1-1.41.4Zm16.08 22.19c.24.05.44.17.57.34.14.16.22.37.21.58 0 .22-.08.44-.23.64a1.58 1.58 0 0 1-1.34.62 1.2 1.2 0 0 1-.66-.22.89.89 0 0 1-.34-.53 1 1 0 0 1 .09-.64c.07-.15.17-.28.29-.4a1.57 1.57 0 0 1 1.41-.4Zm34.97 23.07a1 1 0 0 1 .41.74c.02.3-.08.6-.3.87a1.66 1.66 0 0 1-1.58.38 1.1 1.1 0 0 1-.42-.26 11.45 11.45 0 0 1-4.47-9.16.93.93 0 0 1 .07-.49c.06-.16.16-.3.29-.44a1.65 1.65 0 0 1 1.01-.5c.35 0 .66.12.89.32a1 1 0 0 1 .32.78 9.65 9.65 0 0 0 3.78 7.76Zm45.75-15.83c.23.05.43.17.57.33.14.17.21.37.2.59 0 .21-.07.43-.22.63a1.58 1.58 0 0 1-1.33.62 1.19 1.19 0 0 1-.65-.22.88.88 0 0 1-.35-.52.99.99 0 0 1 .09-.64 1.53 1.53 0 0 1 1.7-.79Zm-17.53 30.67c.65.16.95.76.67 1.36-.28.59-1.04.94-1.7.78-.64-.15-.94-.75-.66-1.34.28-.6 1.04-.95 1.69-.8Zm-73.23-10.78c.65.15.96.76.67 1.35-.28.59-1.04.94-1.69.79-.65-.16-.95-.76-.67-1.35a1.55 1.55 0 0 1 1.7-.8Zm22.75 16.28c.65.15.96.76.67 1.35-.28.59-1.04.94-1.69.79-.65-.16-.95-.76-.67-1.35a1.55 1.55 0 0 1 1.69-.8Zm-1.55-93.52c-4.18-.64-7.68-2.69-9.79-5.73a.96.96 0 0 1-.21-.43c-.04-.16-.03-.34.01-.5.05-.17.14-.34.26-.49.12-.15.27-.27.44-.38.35-.14.72-.19 1.06-.12.34.07.62.26.78.51 1.8 2.57 4.76 4.3 8.3 4.84.34.04.64.2.83.44.2.24.27.54.21.86-.05.17-.15.33-.28.48a1.67 1.67 0 0 1-1.04.55c-.2.03-.4.02-.57-.03Zm-7.81 25.38a1.1 1.1 0 0 1 .09-.85c.15-.28.4-.52.71-.68a15.37 15.37 0 0 0 6.92-7.14 1.7 1.7 0 0 1 1.63-.98c.17.04.32.1.45.2a.92.92 0 0 1 .37.8c0 .16-.05.32-.14.47a18.15 18.15 0 0 1-8.21 8.45 1.61 1.61 0 0 1-1.04.22 1.2 1.2 0 0 1-.46-.16.95.95 0 0 1-.32-.33Zm66.87-8.25c-.2.04-.38.05-.56.03a1.26 1.26 0 0 1-.49-.18.92.92 0 0 1-.45-.8c.05-.3.23-.59.5-.81.27-.23.61-.38.96-.42 3.6-.5 7.05-2.14 9.65-4.59.25-.24.57-.42.93-.49.35-.06.7-.02.98.12a.93.93 0 0 1 .38.83c-.01.16-.06.32-.15.48-.1.15-.21.3-.36.41a21.01 21.01 0 0 1-11.4 5.42Zm-10.8 11.55c-3.59 0-7.25 1.2-10.25 3.33-.28.21-.64.34-.99.36-.35.02-.69-.07-.93-.26a.93.93 0 0 1-.23-.41 1 1 0 0 1 .01-.49c.05-.16.13-.32.24-.47.12-.14.27-.27.43-.37a21.22 21.22 0 0 1 12.12-3.93c.19-.01.38 0 .55.06.17.05.31.13.43.25a.93.93 0 0 1 .3.87 1.78 1.78 0 0 1-1.67 1.06Zm-16.37-12.31a1.1 1.1 0 0 1-.68-.54 1.03 1.03 0 0 1-.04-.84 9.9 9.9 0 0 0-.8-8.56 1 1 0 0 1-.11-.83c.08-.3.28-.58.55-.78a1.5 1.5 0 0 1 1.07-.18c.18.04.33.1.46.2s.24.21.3.35a11.76 11.76 0 0 1 .93 10.11.98.98 0 0 1-.22.46 1.56 1.56 0 0 1-.92.58c-.18.04-.37.05-.54.03Zm37.53 30.87a1.76 1.76 0 0 1-1.52.65 1.3 1.3 0 0 1-.5-.16c-3.54-1.65-6-4.5-6.9-7.97a.96.96 0 0 1-.06-.48c.03-.16.09-.33.19-.48a1.6 1.6 0 0 1 .9-.66c.36-.06.72-.01 1 .14.28.15.47.4.53.7a10.3 10.3 0 0 0 5.84 6.73c.3.13.51.36.61.63.1.29.06.6-.09.9Zm-55.66-13.94c1.78 2.58 4.73 4.32 8.27 4.87.35.04.65.2.84.44.2.24.27.54.21.86a1.4 1.4 0 0 1-.29.47 1.72 1.72 0 0 1-1.6.5c-4.18-.64-7.67-2.7-9.78-5.74a.97.97 0 0 1-.21-.43 1.2 1.2 0 0 1 .28-.99c.12-.15.27-.28.44-.38.35-.14.72-.19 1.06-.11.34.07.62.25.78.5Zm-8.86 15.96c.18 0 .34.04.49.1a1 1 0 0 1 .37.29c.09.12.15.26.18.4.02.16 0 .32-.04.47-.73 3.53-2.93 6.89-6.15 9.39a1.6 1.6 0 0 1-.98.4 1.3 1.3 0 0 1-.5-.08 1.02 1.02 0 0 1-.4-.26 1 1 0 0 1-.1-.82c.08-.29.28-.56.55-.76a13.8 13.8 0 0 0 5.2-7.93c.04-.3.2-.58.46-.8.26-.22.59-.37.92-.4Zm7.32-50.99c.65.15.95.76.67 1.35-.28.59-1.04.94-1.69.79-.65-.16-.95-.76-.67-1.35a1.55 1.55 0 0 1 1.69-.8Zm-20.35 11.01c.66.16.96.76.68 1.35-.29.6-1.04.94-1.7.79-.65-.15-.95-.76-.67-1.35a1.55 1.55 0 0 1 1.7-.79Zm73.74-8.62c.65.15.95.76.67 1.35-.28.59-1.04.94-1.7.78-.65-.15-.95-.75-.67-1.34a1.55 1.55 0 0 1 1.7-.8Zm-41.29 83.28c.65.16.95.76.67 1.35-.28.6-1.04.95-1.7.8-.64-.16-.95-.77-.66-1.36a1.56 1.56 0 0 1 1.69-.79Zm16.46-17.31c.62.23.82.87.46 1.43a1.6 1.6 0 0 1-1.79.6c-.62-.23-.82-.87-.45-1.43a1.59 1.59 0 0 1 1.78-.6Zm-.17-27.49c.65.16.95.76.67 1.35-.28.59-1.04.94-1.7.79-.64-.16-.95-.76-.66-1.35.28-.6 1.04-.94 1.69-.79Zm-23.97-15.56a1.07 1.07 0 0 1-.58-.34.88.88 0 0 1-.21-.59c0-.22.08-.44.23-.64.14-.2.35-.36.59-.47.24-.11.5-.17.75-.15.25.01.48.09.66.22.18.14.3.32.34.53a1 1 0 0 1-.09.65 1.57 1.57 0 0 1-1.69.79Zm2.85 26.67c.66.16.96.76.68 1.35-.28.6-1.04.94-1.7.79-.65-.16-.95-.76-.67-1.35.28-.6 1.04-.94 1.7-.79Zm27.66-38.96c.65.16.95.76.67 1.35-.28.6-1.04.95-1.7.8-.65-.16-.95-.77-.67-1.36a1.56 1.56 0 0 1 1.7-.79Zm21.07 18.58a1.06 1.06 0 0 1-.58-.34.87.87 0 0 1-.2-.6c0-.2.08-.43.22-.63a1.63 1.63 0 0 1 1.35-.62c.25.01.47.1.65.23.18.13.3.31.35.52a1 1 0 0 1-.1.65c-.06.14-.16.27-.28.39a1.57 1.57 0 0 1-1.41.4Zm15.94 13.58a1.07 1.07 0 0 1-.58-.33.88.88 0 0 1-.2-.6c0-.21.07-.43.22-.63a1.6 1.6 0 0 1 1.34-.63c.25.02.48.1.66.23.18.13.3.31.34.52a1 1 0 0 1-.08.64c-.14.29-.4.53-.71.68-.32.15-.67.2-.99.12Zm7.3-30.59a1.07 1.07 0 0 1-.57-.34.87.87 0 0 1-.21-.59c0-.22.08-.44.23-.64a1.6 1.6 0 0 1 1.34-.63c.25.02.48.1.66.23.18.14.3.32.34.53a1 1 0 0 1-.09.65c-.13.28-.39.52-.7.67-.32.15-.68.19-1 .12Zm12.18 74.71c.1.26.09.57-.04.85-.14.29-.38.53-.68.7a15.17 15.17 0 0 0-6.7 7.3c-.1.28-.33.54-.62.72-.3.19-.63.28-.96.26-.17-.03-.33-.1-.46-.18a.92.92 0 0 1-.4-.79c.01-.16.06-.32.13-.47a17.87 17.87 0 0 1 7.9-8.59 1.63 1.63 0 0 1 1.03-.26c.17.02.33.07.47.15.14.08.25.19.33.31Zm32.06 36.61c2.7 1.94 6.3 2.79 10.06 2.36.37-.05.73.02 1 .19.29.17.47.44.52.75 0 .18-.04.35-.13.52-.08.17-.2.32-.35.46a1.74 1.74 0 0 1-1.1.45c-4.45.5-8.7-.5-11.89-2.78a1 1 0 0 1-.52-.83c0-.18.02-.36.1-.53.06-.17.17-.33.31-.47.3-.23.66-.37 1.03-.4.37-.02.71.08.97.28Zm-6.78-16.18c.37-.05.73.01 1 .18.3.17.48.43.53.74 0 .18-.04.35-.12.52-.08.17-.2.33-.34.47a1.74 1.74 0 0 1-1.1.45c-4.45.56-8.72-.4-11.94-2.65a.99.99 0 0 1-.38-.35 1 1 0 0 1-.16-.47 1.2 1.2 0 0 1 .09-.52c.06-.17.17-.34.31-.48.3-.23.66-.37 1.03-.4.37-.02.71.07.97.27 2.73 1.9 6.34 2.7 10.11 2.24Zm-30.14-57.09c-.3-.1-.53-.3-.65-.56a1.05 1.05 0 0 1 0-.85c1.13-2.98.96-6.06-.48-8.6a1 1 0 0 1-.09-.84c.09-.3.3-.56.58-.76a1.63 1.63 0 0 1 1.07-.15c.17.04.32.11.45.21.13.1.22.23.28.37 1.7 3 1.89 6.64.55 10.16-.04.16-.13.3-.24.45a1.68 1.68 0 0 1-1.47.57Zm18.64 22.51a17 17 0 0 0-10.73.8c-.34.14-.72.19-1.06.11a1.19 1.19 0 0 1-.77-.5.98.98 0 0 1-.07-.49c.02-.17.08-.34.18-.5.1-.15.22-.3.38-.42s.34-.2.53-.27c4.17-1.7 8.7-2.03 12.67-.94.18.04.35.1.49.2a.97.97 0 0 1 .43.84 1.3 1.3 0 0 1-.14.5 1.8 1.8 0 0 1-1.91.67Zm-35.61 3.98c.65.16.95.76.67 1.35-.28.6-1.04.95-1.7.8-.64-.16-.95-.77-.66-1.36a1.56 1.56 0 0 1 1.69-.79Zm1.87 20.31c-.1.21-.27.4-.49.55-.21.14-.46.24-.72.27-.26.03-.5 0-.72-.1a.9.9 0 0 1-.53-1.07c.06-.22.18-.43.37-.6a1.61 1.61 0 0 1 1.41-.4 1 1 0 0 1 .7.5c.12.26.12.56-.02.85Zm19.7-71.29c.66.16.96.76.68 1.35-.29.6-1.04.94-1.7.79-.65-.16-.95-.76-.67-1.35a1.55 1.55 0 0 1 1.7-.79Zm19.98-13.68c.66.15.96.76.68 1.35-.28.59-1.04.94-1.7.78-.65-.15-.95-.75-.67-1.34a1.56 1.56 0 0 1 1.7-.8Zm-23.8 49.28a1.05 1.05 0 0 1-.56-.33.87.87 0 0 1-.2-.59c0-.21.08-.43.23-.63a1.58 1.58 0 0 1 1.33-.62c.25.02.47.1.65.23.18.13.3.31.34.52a1 1 0 0 1-.08.64c-.07.14-.17.27-.29.39a1.58 1.58 0 0 1-1.41.4Zm16.1 22.2c.66.16.96.77.68 1.36-.28.59-1.04.94-1.7.79-.65-.16-.95-.76-.67-1.35.29-.6 1.05-.95 1.7-.8Zm34.95 23.07a1 1 0 0 1 .41.74c.02.3-.08.6-.3.87a1.67 1.67 0 0 1-1.58.38 1.12 1.12 0 0 1-.43-.25 11.45 11.45 0 0 1-4.46-9.17.9.9 0 0 1 .07-.48c.06-.16.16-.31.29-.45a1.67 1.67 0 0 1 1.01-.5c.35.01.66.13.88.33a1 1 0 0 1 .33.78 9.65 9.65 0 0 0 3.78 7.75Zm-45.01 4.06c.65.16.95.76.67 1.35-.28.6-1.04.95-1.7.8-.64-.16-.95-.77-.66-1.36a1.56 1.56 0 0 1 1.69-.79Zm21.19-77.23c-4.17-.64-7.67-2.7-9.78-5.74a.97.97 0 0 1-.21-.43.95.95 0 0 1 .02-.5c.04-.17.13-.33.25-.48.12-.15.27-.28.44-.38.35-.15.72-.2 1.06-.12.34.07.62.25.78.5 1.8 2.57 4.75 4.3 8.29 4.84.35.05.65.2.84.44.2.24.27.55.21.86a1.4 1.4 0 0 1-.28.48 1.7 1.7 0 0 1-1.62.53Zm-7.8 25.37a1.1 1.1 0 0 1 .09-.85c.15-.28.4-.52.71-.68a15.36 15.36 0 0 0 6.92-7.13c.12-.3.35-.55.65-.74.3-.18.65-.26.98-.24.17.03.32.1.45.2a.93.93 0 0 1 .37.8c0 .16-.06.31-.14.47a18.14 18.14 0 0 1-8.18 8.43 1.64 1.64 0 0 1-1.06.24 1.2 1.2 0 0 1-.47-.17.93.93 0 0 1-.32-.33Zm21.55 7.92c1.78 2.58 4.74 4.32 8.27 4.87.35.04.65.2.85.44.19.24.26.54.2.86-.06.17-.15.33-.28.47a1.7 1.7 0 0 1-1.6.5c-4.18-.64-7.67-2.7-9.77-5.74a.97.97 0 0 1-.22-.44c-.03-.16-.02-.33.02-.5a1.61 1.61 0 0 1 .7-.86c.35-.15.72-.19 1.06-.12.33.08.61.26.77.52Zm-8.84 15.96c.18 0 .34.04.49.11a1 1 0 0 1 .36.28c.1.12.16.26.19.41.02.15 0 .31-.04.47-.73 3.53-2.93 6.88-6.15 9.38a1.58 1.58 0 0 1-.98.4c-.18 0-.35-.02-.5-.08a1.02 1.02 0 0 1-.4-.25 1 1 0 0 1-.1-.82c.08-.3.28-.56.55-.76a13.8 13.8 0 0 0 5.2-7.93c.04-.3.2-.58.46-.8.26-.23.58-.37.92-.4Zm-13.03-39.97c.66.15.96.75.67 1.35-.28.59-1.04.94-1.69.78-.65-.15-.95-.76-.67-1.35a1.56 1.56 0 0 1 1.7-.79Zm32.45 74.66c.65.15.95.76.67 1.35-.28.59-1.04.94-1.7.79-.65-.16-.95-.76-.67-1.35.29-.6 1.04-.95 1.7-.8Zm-4.83-33.7c.66.16.96.76.68 1.35-.29.6-1.05.95-1.7.8-.65-.16-.95-.77-.67-1.36a1.55 1.55 0 0 1 1.7-.79Zm-62.45-106.44c3.6-.04 7.26-1.26 10.24-3.42.28-.22.63-.36.99-.38.35-.02.68.07.93.25.11.12.2.26.23.41.04.16.04.32 0 .49-.04.16-.12.32-.23.47-.12.14-.26.27-.43.37a21.2 21.2 0 0 1-12.1 4.05c-.18.02-.37 0-.54-.05a1.13 1.13 0 0 1-.44-.24.93.93 0 0 1-.3-.87c.1-.3.33-.58.63-.77.3-.2.66-.3 1.02-.3Zm-64.23-25.52c.1.26.09.57-.05.85-.13.29-.37.54-.68.7a15.15 15.15 0 0 0-6.7 7.3c-.1.28-.33.54-.62.73-.29.18-.63.27-.96.26-.17-.03-.32-.1-.45-.19a.91.91 0 0 1-.4-.79c0-.16.05-.31.13-.47a17.87 17.87 0 0 1 7.9-8.6 1.64 1.64 0 0 1 1.02-.25c.18.02.34.07.48.15.13.08.25.18.33.31Zm32.05 36.62c2.7 1.94 6.3 2.78 10.07 2.35.37-.05.73.01 1 .19.29.17.47.44.52.76a1.4 1.4 0 0 1-.48.97 1.74 1.74 0 0 1-1.1.45c-4.45.5-8.7-.49-11.9-2.79a1.1 1.1 0 0 1-.36-.35.98.98 0 0 1-.15-.47c-.01-.18.02-.35.09-.52.07-.18.18-.34.32-.48.3-.23.66-.37 1.03-.4.37-.01.7.08.96.28Zm-6.78-16.2c.37-.05.73.02 1.01.19.29.17.47.44.53.75 0 .17-.04.35-.13.52-.08.17-.2.32-.34.46a1.77 1.77 0 0 1-1.1.46c-4.45.55-8.72-.4-11.94-2.66a1 1 0 0 1-.53-.82c-.02-.17.01-.35.08-.52.07-.17.18-.33.31-.47.3-.24.67-.38 1.04-.4.36-.03.71.06.97.26 2.73 1.9 6.34 2.7 10.1 2.24Zm-30.13-57.08c-.3-.1-.54-.3-.66-.56a1.05 1.05 0 0 1 0-.85c1.13-2.98.97-6.06-.47-8.6a1 1 0 0 1-.1-.84c.1-.3.3-.57.6-.77.16-.08.34-.14.53-.17.18-.02.36-.01.53.03.17.04.32.11.45.2.12.1.22.23.28.38 1.7 3 1.89 6.63.55 10.16-.05.15-.13.3-.24.45a1.66 1.66 0 0 1-1.47.57Zm18.61 22.51a16.82 16.82 0 0 0-10.72.8c-.34.14-.72.18-1.06.11a1.2 1.2 0 0 1-.78-.5.98.98 0 0 1-.06-.5c.02-.16.08-.33.18-.49a1.67 1.67 0 0 1 .91-.69 20.1 20.1 0 0 1 12.67-.94c.18.03.35.1.5.2a.98.98 0 0 1 .43.84 1.3 1.3 0 0 1-.14.5 1.8 1.8 0 0 1-1.92.67Zm-34.91 5.33c-.1.22-.27.4-.49.56a1.7 1.7 0 0 1-.72.26c-.26.03-.5 0-.72-.1a.96.96 0 0 1-.47-.44.91.91 0 0 1-.06-.62c.05-.22.18-.44.36-.61.19-.18.42-.3.67-.38.25-.07.51-.08.75-.02.32.07.56.26.7.51.12.26.11.56-.02.84Zm.52 17.61c.66.15.96.76.68 1.35-.28.59-1.04.94-1.7.79-.65-.16-.95-.76-.67-1.35.28-.6 1.04-.95 1.7-.8Zm19.36-67.8a1.05 1.05 0 0 1-.57-.33.87.87 0 0 1-.2-.59c0-.22.08-.44.23-.63a1.59 1.59 0 0 1 1.33-.62c.25.02.47.1.65.23.18.13.3.31.34.52.05.2.02.43-.08.64-.07.14-.17.27-.29.39a1.58 1.58 0 0 1-1.41.4Zm-2.8 33.47a1.06 1.06 0 0 1-.57-.34.87.87 0 0 1-.21-.59c0-.22.08-.44.23-.64a1.6 1.6 0 0 1 1.34-.62c.25.02.48.1.66.23.18.13.3.32.34.53a1 1 0 0 1-.09.64 1.5 1.5 0 0 1-.29.4 1.6 1.6 0 0 1-1.4.39Zm16.07 22.19c.24.06.43.18.57.34.14.17.2.37.2.59 0 .21-.08.43-.23.63a1.59 1.59 0 0 1-1.33.62 1.2 1.2 0 0 1-.65-.23.88.88 0 0 1-.34-.52.98.98 0 0 1 .08-.64c.07-.14.17-.27.29-.39a1.57 1.57 0 0 1 1.41-.4Zm34.97 23.07a1 1 0 0 1 .42.75c.02.3-.09.6-.3.87a1.68 1.68 0 0 1-1.58.37 1.1 1.1 0 0 1-.43-.25 11.44 11.44 0 0 1-4.46-9.17.9.9 0 0 1 .07-.48c.06-.16.16-.31.29-.45a1.66 1.66 0 0 1 1-.5c.36.01.67.13.9.33a1 1 0 0 1 .32.78 9.67 9.67 0 0 0 3.77 7.75Zm28.23 14.85c.65.15.95.76.67 1.35-.28.59-1.04.94-1.7.79-.65-.16-.95-.76-.67-1.35.29-.6 1.04-.95 1.7-.8Zm-73.24-10.78c.66.15.96.76.68 1.35-.28.59-1.04.94-1.7.79-.65-.16-.95-.76-.67-1.35.28-.6 1.04-.95 1.7-.8Zm21.2-77.24c-4.18-.65-7.67-2.7-9.78-5.73a.95.95 0 0 1-.22-.44.95.95 0 0 1 .02-.5c.05-.17.13-.33.25-.48.13-.15.28-.28.45-.38.34-.15.72-.2 1.06-.12.34.07.61.25.78.51 1.78 2.57 4.74 4.3 8.28 4.85.35.04.65.2.84.44.2.24.27.55.21.86a1.4 1.4 0 0 1-.29.48 1.7 1.7 0 0 1-1.6.5Zm-7.8 25.37a1.1 1.1 0 0 1 .08-.85c.15-.28.4-.52.72-.67a15.37 15.37 0 0 0 6.92-7.14c.12-.3.34-.56.65-.74.3-.18.65-.27.98-.25.17.04.32.11.45.2a.93.93 0 0 1 .37.8c-.01.17-.06.33-.14.48a18.16 18.16 0 0 1-8.21 8.43 1.62 1.62 0 0 1-1.04.23 1.2 1.2 0 0 1-.46-.16.96.96 0 0 1-.33-.32Zm66.86-8.24c-.19.04-.38.04-.56.02a1.26 1.26 0 0 1-.48-.18.97.97 0 0 1-.33-.34.91.91 0 0 1-.12-.45c.05-.3.23-.6.5-.82.26-.23.6-.38.96-.42 3.6-.5 7.05-2.14 9.65-4.59.24-.24.57-.41.92-.48.35-.06.7-.02.98.12a.93.93 0 0 1 .38.82c0 .16-.06.33-.15.48-.09.15-.2.3-.36.41a21.01 21.01 0 0 1-11.39 5.43Zm-10.79 11.54c-3.6.01-7.26 1.2-10.25 3.34a1.9 1.9 0 0 1-1 .36 1.4 1.4 0 0 1-.92-.27.9.9 0 0 1-.23-.41.98.98 0 0 1 .01-.48c.04-.17.12-.33.24-.47.11-.15.26-.27.43-.37a21.28 21.28 0 0 1 12.11-3.94c.2-.01.38 0 .55.06.17.05.32.14.44.25a.93.93 0 0 1 .29.87c-.12.3-.34.58-.65.78-.3.19-.67.3-1.02.28Zm-16.38-12.3a1.1 1.1 0 0 1-.68-.55 1.04 1.04 0 0 1-.03-.84 9.9 9.9 0 0 0-.84-8.55c-.15-.23-.2-.53-.12-.83.08-.3.28-.57.56-.78a1.66 1.66 0 0 1 1.07-.18 1.03 1.03 0 0 1 .76.56 11.73 11.73 0 0 1 .93 10.1c-.04.16-.11.31-.22.45a1.67 1.67 0 0 1-1.44.61Zm-18.13 16.93c1.79 2.57 4.74 4.3 8.28 4.86.35.04.64.2.84.44.19.24.26.55.2.86a1.2 1.2 0 0 1-.28.47 1.68 1.68 0 0 1-1.04.54c-.2.03-.39.02-.57-.03-4.18-.64-7.67-2.7-9.77-5.75a.97.97 0 0 1-.2-.93c.05-.17.14-.34.26-.48.12-.15.28-.28.45-.38.34-.15.72-.2 1.06-.12.33.07.61.26.77.52Zm-8.86 15.99c.17 0 .33.04.48.1a1 1 0 0 1 .37.28c.09.12.15.26.18.41a1 1 0 0 1-.04.46c-.72 3.53-2.92 6.89-6.14 9.39a1.58 1.58 0 0 1-.99.4 1.3 1.3 0 0 1-.5-.07 1.04 1.04 0 0 1-.39-.26 1 1 0 0 1-.1-.82c.07-.29.27-.56.54-.76a13.8 13.8 0 0 0 5.2-7.94c.04-.29.21-.58.47-.8.25-.22.58-.36.91-.4Zm7.32-51.02c.66.15.96.76.68 1.35-.28.59-1.04.94-1.7.79-.65-.16-.95-.76-.67-1.36a1.56 1.56 0 0 1 1.7-.78Zm-20.34 11c.65.16.95.77.67 1.36-.28.59-1.04.94-1.7.79-.65-.16-.95-.76-.67-1.35.28-.6 1.04-.95 1.7-.8Zm73.73-8.62c.65.16.95.76.67 1.35-.28.6-1.04.95-1.69.8-.65-.16-.95-.77-.67-1.36a1.56 1.56 0 0 1 1.7-.79Zm-41.29 83.29c.66.16.96.76.68 1.35-.29.6-1.04.94-1.7.79-.65-.16-.95-.76-.67-1.35a1.55 1.55 0 0 1 1.7-.79Zm16.75-18.63c.65.15.95.76.67 1.35-.28.59-1.04.94-1.69.79-.65-.16-.96-.76-.67-1.35.28-.6 1.04-.95 1.69-.8Zm-.46-26.17c.66.15.96.76.68 1.35-.29.59-1.04.94-1.7.79-.65-.16-.95-.76-.67-1.35.28-.6 1.04-.95 1.7-.8Zm-23.96-15.59a1.05 1.05 0 0 1-.57-.33.88.88 0 0 1-.2-.59c0-.21.08-.43.22-.63a1.59 1.59 0 0 1 1.33-.62c.25.01.48.1.66.22.17.14.3.32.34.52a.9.9 0 0 1-.09.64 1.3 1.3 0 0 1-.28.4 1.55 1.55 0 0 1-1.4.4Zm2.85 26.69c.65.16.95.76.67 1.35-.28.6-1.04.95-1.69.8-.65-.16-.95-.77-.67-1.36a1.56 1.56 0 0 1 1.7-.79Zm27.65-38.95c.65.15.95.76.67 1.35-.28.59-1.04.94-1.7.79-.64-.16-.94-.76-.66-1.35a1.55 1.55 0 0 1 1.69-.8Zm35.37 67.47c-.1.21-.27.4-.48.55-.22.14-.47.24-.73.27-.25.03-.5 0-.72-.1a.96.96 0 0 1-.46-.44.91.91 0 0 1-.06-.63c.05-.22.18-.44.36-.61a1.62 1.62 0 0 1 1.42-.4c.16.04.3.1.42.2a.87.87 0 0 1 .36.74c0 .13-.04.28-.1.42Zm1.34-100.89c3.6-.04 7.26-1.26 10.24-3.42.28-.22.64-.36.99-.38.36-.02.69.07.94.25.1.12.19.26.23.41.04.15.04.32 0 .48a1.54 1.54 0 0 1-.66.85 21.3 21.3 0 0 1-12.1 4.05c-.19.02-.38 0-.55-.05a1.14 1.14 0 0 1-.44-.24.93.93 0 0 1-.3-.87c.1-.3.33-.58.63-.78.3-.2.67-.3 1.02-.3Zm-64.22-25.52c.1.26.08.57-.05.85-.14.29-.38.54-.68.7a15.14 15.14 0 0 0-6.7 7.3c-.1.29-.33.55-.62.73-.3.18-.63.27-.96.26-.17-.03-.33-.1-.46-.19a.92.92 0 0 1-.4-.78 1 1 0 0 1 .13-.47 17.87 17.87 0 0 1 7.9-8.6 1.65 1.65 0 0 1 1.02-.26c.18.02.34.07.48.15.14.08.25.18.33.3Zm32.05 36.62c2.7 1.94 6.3 2.78 10.06 2.35.37-.06.73.01 1.01.19.28.17.46.44.51.76a1.4 1.4 0 0 1-.48.97 1.75 1.75 0 0 1-1.1.45c-4.45.5-8.7-.49-11.89-2.79a1.01 1.01 0 0 1-.52-.83 1.1 1.1 0 0 1 .1-.52c.06-.17.17-.33.31-.47.3-.23.66-.37 1.03-.4.37-.01.71.08.97.28Zm-6.79-16.2c.38-.05.74.02 1.02.19s.47.44.52.75c0 .17-.04.35-.12.52-.08.17-.2.32-.34.46a1.74 1.74 0 0 1-1.1.45c-4.45.56-8.72-.4-11.94-2.65a1 1 0 0 1-.53-.82.95.95 0 0 1 .08-.52c.06-.17.17-.33.3-.47.3-.24.67-.38 1.04-.4.37-.03.72.06.97.26 2.73 1.9 6.34 2.7 10.1 2.24Zm-30.13-57.08c-.3-.1-.53-.3-.65-.56a1.05 1.05 0 0 1 0-.85c1.13-2.98.96-6.06-.48-8.6a1 1 0 0 1-.09-.84c.1-.3.3-.57.59-.77.17-.08.35-.14.53-.17.18-.02.37-.01.54.03.17.04.32.1.44.2.13.1.22.23.28.37 1.7 3.01 1.9 6.64.55 10.17-.04.15-.12.3-.23.45a1.57 1.57 0 0 1-.94.55 1.5 1.5 0 0 1-.54.02Zm18.63 22.51c-3.37-.92-7.2-.63-10.73.81-.34.15-.72.2-1.06.12a1.21 1.21 0 0 1-.78-.5.99.99 0 0 1-.06-.49c.02-.17.08-.34.18-.5a1.76 1.76 0 0 1 .91-.7 20.1 20.1 0 0 1 12.68-.95c.18.04.35.1.49.2s.25.23.32.37a1.12 1.12 0 0 1-.03.98 1.81 1.81 0 0 1-1.93.66Zm58.79 19.27c-2.84-1.78-6.51-2.42-10.27-1.81-.37.07-.73.02-1.03-.14-.29-.15-.5-.4-.56-.7a1.1 1.1 0 0 1 .1-.53c.07-.17.18-.33.32-.47a1.75 1.75 0 0 1 1.08-.5c4.44-.71 8.77.06 12.12 2.15.16.08.3.2.4.33.1.13.16.3.18.46.02.17 0 .34-.06.52-.06.17-.15.33-.28.48-.29.24-.65.4-1.02.43a1.5 1.5 0 0 1-.99-.22Zm-93.72-13.94c-.1.22-.27.4-.48.55-.22.15-.47.24-.73.27-.25.03-.5 0-.71-.1a.9.9 0 0 1-.53-1.07c.05-.21.17-.42.36-.6a1.62 1.62 0 0 1 1.41-.4 1 1 0 0 1 .7.51c.12.26.12.56-.02.84Zm1.21 18.96c-.1.21-.27.4-.48.55-.22.15-.47.24-.73.27-.25.03-.5 0-.71-.1a.9.9 0 0 1-.54-1.07c.05-.21.18-.42.36-.6a1.62 1.62 0 0 1 1.42-.4c.16.03.3.1.42.18a.9.9 0 0 1 .36.74c0 .14-.03.29-.1.43Zm18.67-69.15a1.06 1.06 0 0 1-.56-.33.88.88 0 0 1-.2-.59c0-.21.08-.43.22-.63a1.58 1.58 0 0 1 1.33-.62c.25.02.48.1.66.23.17.13.3.31.34.52a1 1 0 0 1-.09.64c-.06.14-.16.27-.28.39a1.58 1.58 0 0 1-1.42.4Zm-2.79 33.45a1.06 1.06 0 0 1-.57-.34.87.87 0 0 1-.21-.59c0-.21.09-.44.23-.63a1.6 1.6 0 0 1 1.34-.62c.25 0 .48.09.66.22.18.14.3.32.34.53a1 1 0 0 1-.09.64c-.06.14-.16.28-.28.4a1.58 1.58 0 0 1-1.42.4Zm16.07 22.21c.23.06.43.18.56.34.14.17.21.37.2.59 0 .21-.08.43-.22.63a1.58 1.58 0 0 1-1.33.62 1.2 1.2 0 0 1-.65-.23.89.89 0 0 1-.35-.52 1 1 0 0 1 .09-.64c.06-.14.16-.27.28-.39a1.58 1.58 0 0 1 1.42-.4Zm34.97 23.07a1 1 0 0 1 .41.75c.02.3-.09.6-.3.87a1.7 1.7 0 0 1-1.04.44 1.9 1.9 0 0 1-.54-.07 1.1 1.1 0 0 1-.42-.26 11.4 11.4 0 0 1-4.45-9.2.97.97 0 0 1 .06-.47c.07-.16.17-.32.3-.45a1.63 1.63 0 0 1 1-.5c.35.01.67.13.9.33a1 1 0 0 1 .32.78 9.66 9.66 0 0 0 3.76 7.79Zm45.75-15.83c.24.05.44.17.58.33.14.17.21.37.21.6 0 .2-.08.43-.23.63a1.59 1.59 0 0 1-1.34.62 1.2 1.2 0 0 1-.66-.22.89.89 0 0 1-.34-.53 1 1 0 0 1 .09-.64 1.53 1.53 0 0 1 1.7-.79Zm-90.75 19.89c.65.16.95.76.67 1.35-.29.6-1.05.94-1.7.79-.65-.16-.95-.76-.67-1.35.28-.6 1.04-.94 1.7-.79Zm22.7 16.39c.65.16.95.76.67 1.35-.29.6-1.04.95-1.7.8-.65-.16-.95-.77-.67-1.36a1.56 1.56 0 0 1 1.7-.79Zm-47.77-13.79c.65.15.95.76.67 1.35-.28.59-1.04.94-1.7.79-.65-.16-.95-.76-.67-1.35.29-.6 1.05-.95 1.7-.8Zm-37.63 28.59c.65.16.95.76.67 1.35-.29.6-1.04.95-1.7.8-.65-.16-.95-.77-.67-1.36a1.56 1.56 0 0 1 1.7-.79Zm83.89-108.43c-4.18-.64-7.68-2.69-9.78-5.73a.94.94 0 0 1-.22-.43.94.94 0 0 1 .02-.5c.04-.17.13-.34.25-.49.12-.14.27-.27.45-.38.34-.14.71-.18 1.05-.11.34.07.62.25.78.51 1.79 2.57 4.75 4.3 8.28 4.85.35.04.65.2.85.44.19.24.26.55.2.87a1.4 1.4 0 0 1-.28.46 1.68 1.68 0 0 1-1.04.54c-.2.03-.38.02-.56-.03Zm-7.81 25.38a1.1 1.1 0 0 1 .1-.85c.14-.28.4-.52.7-.68a15.4 15.4 0 0 0 6.93-7.14c.11-.3.34-.55.64-.73.3-.19.65-.27.99-.25a1.02 1.02 0 0 1 .74.55 1 1 0 0 1 .08.45c-.01.16-.06.32-.14.47a18.2 18.2 0 0 1-8.22 8.45 1.64 1.64 0 0 1-1.04.22 1.2 1.2 0 0 1-.46-.16.95.95 0 0 1-.32-.33Zm56.08 3.3c-3.6.01-7.26 1.2-10.25 3.33-.3.21-.65.35-1 .37a1.4 1.4 0 0 1-.93-.27.91.91 0 0 1-.22-.41.99.99 0 0 1 0-.48 1.4 1.4 0 0 1 .67-.84 21.28 21.28 0 0 1 12.12-3.94c.19-.01.38 0 .55.06.17.05.32.14.44.25a.94.94 0 0 1 .28.87c-.11.3-.34.58-.65.77-.3.2-.66.3-1.01.3Zm-16.39-12.3a1.1 1.1 0 0 1-.68-.55 1.04 1.04 0 0 1-.03-.85 9.9 9.9 0 0 0-.82-8.56 1 1 0 0 1-.12-.83c.08-.3.27-.57.55-.77a1.47 1.47 0 0 1 1.07-.18c.18.03.33.1.46.2.13.09.24.21.3.35a11.73 11.73 0 0 1 .94 10.1c-.04.16-.11.32-.22.46a1.68 1.68 0 0 1-1.45.62Zm37.53 30.87c-.1.15-.24.28-.4.39a1.75 1.75 0 0 1-1.11.27 1.3 1.3 0 0 1-.5-.17c-3.55-1.64-6.02-4.49-6.91-7.96a.97.97 0 0 1-.05-.48c.02-.17.08-.33.18-.48a1.74 1.74 0 0 1 .9-.67c.37-.06.72 0 1 .15s.47.4.53.68a10.33 10.33 0 0 0 5.86 6.72c.3.13.52.36.62.64.1.29.05.61-.11.9Zm-55.65-13.94c1.78 2.57 4.74 4.3 8.27 4.86.35.04.65.2.84.44.2.24.27.55.21.86a1.4 1.4 0 0 1-.29.47 1.71 1.71 0 0 1-1.6.51c-4.18-.64-7.67-2.7-9.77-5.75a.95.95 0 0 1-.22-.43.95.95 0 0 1 .02-.5 1.61 1.61 0 0 1 .7-.86c.35-.15.72-.2 1.06-.12.34.07.61.26.78.52Zm-8.87 15.98c.17 0 .34.05.48.11.15.07.28.16.37.28.1.12.16.26.18.41a.9.9 0 0 1-.03.46c-.73 3.53-2.93 6.89-6.15 9.39a1.6 1.6 0 0 1-.98.4 1.3 1.3 0 0 1-.5-.08 1.03 1.03 0 0 1-.4-.25 1 1 0 0 1-.1-.82c.08-.29.27-.56.55-.76a13.81 13.81 0 0 0 5.2-7.94c.04-.3.2-.58.46-.8.26-.22.58-.36.92-.4Zm-13.02-40.01c.65.16.96.77.67 1.36-.28.59-1.04.94-1.69.79-.65-.16-.95-.76-.67-1.35.28-.6 1.04-.95 1.7-.8Zm32.44 74.67c.66.15.96.76.68 1.35-.28.6-1.04.94-1.7.79-.65-.16-.95-.76-.67-1.35.29-.6 1.05-.95 1.7-.79Zm17.33-16.63c.62.23.82.86.45 1.42-.37.56-1.17.83-1.79.6-.61-.23-.82-.86-.45-1.42a1.59 1.59 0 0 1 1.79-.6Zm-1.03-28.18c.65.16.95.76.67 1.35-.28.6-1.04.94-1.69.79-.65-.16-.95-.76-.67-1.35.28-.6 1.04-.94 1.7-.79Zm-23.97-15.56a1.06 1.06 0 0 1-.57-.34.87.87 0 0 1-.2-.58c0-.22.08-.44.22-.64a1.58 1.58 0 0 1 1.33-.62c.25.02.48.1.66.23.17.13.3.3.34.52.05.2.02.43-.08.64a1.56 1.56 0 0 1-1.7.79Zm2.85 26.67c.66.16.96.76.68 1.35-.28.6-1.04.95-1.7.8-.65-.16-.95-.77-.67-1.36a1.56 1.56 0 0 1 1.7-.79Zm27.66-38.95c.65.15.95.76.67 1.35-.29.59-1.04.94-1.7.79-.65-.16-.95-.76-.67-1.35.28-.6 1.04-.95 1.7-.8Zm21.06 18.57a1.05 1.05 0 0 1-.56-.34.87.87 0 0 1-.2-.59c0-.21.08-.43.23-.63a1.58 1.58 0 0 1 1.33-.62c.25.02.47.1.65.23.18.13.3.31.34.52.05.2.02.43-.08.64-.07.14-.17.27-.29.39a1.58 1.58 0 0 1-1.41.4Zm16.25 13.66a1.06 1.06 0 0 1-.57-.33.87.87 0 0 1-.2-.59c0-.21.08-.44.22-.63a1.58 1.58 0 0 1 1.33-.62c.25.01.48.09.66.22.18.13.3.31.34.52.05.2.02.43-.08.64a1.55 1.55 0 0 1-1.7.79Zm14.32 7.38c-.3-.1-.53-.3-.66-.56a1.05 1.05 0 0 1 0-.85 10 10 0 0 0-.47-8.6 1 1 0 0 1-.09-.84c.1-.3.3-.56.59-.76.16-.09.35-.15.53-.17.18-.03.37-.02.54.02.17.04.32.11.44.21.13.1.22.23.28.37 1.7 3 1.9 6.64.55 10.16a1.2 1.2 0 0 1-.23.45 1.67 1.67 0 0 1-1.47.57Zm18.63 22.51a17 17 0 0 0-10.73.82c-.34.14-.71.19-1.05.12a1.2 1.2 0 0 1-.78-.51.99.99 0 0 1-.06-.48c.01-.17.07-.34.17-.5.1-.16.22-.3.38-.42s.34-.21.53-.28a20.1 20.1 0 0 1 12.68-.95c.18.03.35.1.49.2a.97.97 0 0 1 .43.84 1.3 1.3 0 0 1-.14.5 1.82 1.82 0 0 1-1.92.66Zm-35.6 3.99c.65.15.95.76.67 1.35-.28.59-1.04.94-1.7.79-.65-.16-.95-.76-.67-1.35.29-.6 1.05-.95 1.7-.8Zm21.57-50.98c.65.15.96.76.67 1.35-.28.59-1.03.94-1.69.79-.65-.16-.95-.76-.67-1.35.28-.6 1.04-.95 1.7-.8Zm-3.81 35.58a1.07 1.07 0 0 1-.57-.33.88.88 0 0 1-.21-.6c0-.21.08-.43.23-.63a1.59 1.59 0 0 1 1.34-.62c.25.01.48.1.66.23.18.13.3.31.34.52a1 1 0 0 1-.09.65c-.07.14-.16.27-.29.39a1.58 1.58 0 0 1-1.4.4Zm27.23-27.89c-4.18-.64-7.68-2.7-9.79-5.74a.97.97 0 0 1-.21-.43c-.03-.16-.03-.33.02-.5.05-.17.13-.33.25-.48.12-.15.27-.28.44-.38.35-.15.72-.19 1.06-.12.34.08.61.26.78.51 1.79 2.58 4.75 4.31 8.28 4.85.35.05.65.2.84.44.2.24.27.55.21.87a1.4 1.4 0 0 1-.28.47 1.68 1.68 0 0 1-1.04.53c-.2.03-.38.02-.56-.02Zm-7.81 25.38a1.1 1.1 0 0 1 .09-.86c.15-.28.4-.52.71-.67a15.4 15.4 0 0 0 6.93-7.15c.11-.29.34-.55.64-.73.3-.18.65-.27.99-.25.16.04.32.1.44.2a.92.92 0 0 1 .38.8c-.01.16-.06.32-.15.47a18.2 18.2 0 0 1-8.18 8.44 1.65 1.65 0 0 1-1.05.24 1.2 1.2 0 0 1-.48-.17.95.95 0 0 1-.32-.32Zm-.32-16.1c.65.16.95.76.67 1.35-.28.6-1.04.95-1.7.8-.64-.16-.94-.77-.66-1.36a1.56 1.56 0 0 1 1.69-.79Zm-410.18 309.26a9.7 9.7 0 0 0-3.97-7.68 1 1 0 0 1-.44-.74c-.03-.3.08-.62.3-.88a1.67 1.67 0 0 1 1.57-.4 1 1 0 0 1 .44.24 11.44 11.44 0 0 1 4.69 9.09 1 1 0 0 1-.06.48c-.06.16-.15.31-.28.45a1.65 1.65 0 0 1-1 .52c-.35 0-.67-.11-.9-.3a.99.99 0 0 1-.35-.78Zm123.89-192.08c.66.15.96.75.68 1.34-.29.6-1.04.95-1.7.8-.65-.16-.95-.77-.67-1.36a1.56 1.56 0 0 1 1.7-.79Zm-12.89-7.9a12.65 12.65 0 0 0-3.74 8.35c0 .29-.11.58-.32.83a1.7 1.7 0 0 1-.83.5c-.18.03-.35.02-.51-.02a1.2 1.2 0 0 1-.42-.22.9.9 0 0 1-.3-.82c.08-3.48 1.66-7 4.4-9.86a1.49 1.49 0 0 1 .91-.52c.18-.04.35-.04.52 0 .16.03.31.1.43.19.2.2.29.48.26.77-.02.29-.17.57-.4.8Zm-42.78 101.1a12.65 12.65 0 0 0-3.74 8.35c0 .29-.12.58-.33.83-.21.24-.5.43-.83.5a1.2 1.2 0 0 1-.5-.02 1.2 1.2 0 0 1-.42-.22.9.9 0 0 1-.3-.81c.08-3.49 1.65-7.01 4.4-9.87a1.52 1.52 0 0 1 1.42-.52c.17.03.31.1.44.19.2.2.29.48.26.77-.03.29-.17.57-.4.8Zm-33.78-125.25a9.7 9.7 0 0 0 3.95 7.69c.25.17.4.43.43.73.02.3-.08.6-.3.87a1.65 1.65 0 0 1-1.56.4 1.13 1.13 0 0 1-.44-.25 11.44 11.44 0 0 1-4.66-9.08 1 1 0 0 1 .06-.48c.06-.16.15-.32.28-.45a1.71 1.71 0 0 1 1-.51c.35 0 .67.1.9.3.22.2.34.48.34.78Zm-42.79 101.1a9.7 9.7 0 0 0 3.95 7.69 1 1 0 0 1 .43.73c.03.3-.08.6-.29.87a1.69 1.69 0 0 1-1.57.4 1.14 1.14 0 0 1-.44-.25 11.44 11.44 0 0 1-4.66-9.08 1 1 0 0 1 .06-.48c.06-.16.16-.32.28-.45a1.63 1.63 0 0 1 1-.51c.36 0 .67.1.9.3.23.2.35.48.34.78Zm169.59-66.99a9.7 9.7 0 0 0 3.94 7.7 1 1 0 0 1 .44.72c.02.3-.08.6-.3.87a1.65 1.65 0 0 1-1.57.4 1.12 1.12 0 0 1-.43-.25 11.44 11.44 0 0 1-4.66-9.08c-.02-.16 0-.32.05-.48.06-.16.16-.31.29-.45a1.65 1.65 0 0 1 1-.51c.35 0 .67.1.9.3.22.2.34.48.34.78Zm-84.02-71.92a9.68 9.68 0 0 0 3.95 7.68 1 1 0 0 1 .44.74c.02.3-.08.6-.3.87a1.65 1.65 0 0 1-1.57.4 1.1 1.1 0 0 1-.43-.25 11.44 11.44 0 0 1-4.66-9.09 1.2 1.2 0 0 1 .34-.93 1.63 1.63 0 0 1 1-.5c.35 0 .66.1.9.3a1 1 0 0 1 .33.78Zm11.5-30.52a1.5 1.5 0 0 1-.23.5 1.76 1.76 0 0 1-1.56.68c-4.34-.18-8.2-1.82-10.78-4.6a.98.98 0 0 1-.33-.9c.02-.17.09-.34.2-.5.1-.16.23-.3.4-.42.32-.18.7-.27 1.05-.23.35.03.66.18.86.42 2.2 2.34 5.45 3.73 9.13 3.88.36 0 .69.13.92.34.23.22.35.51.34.83Zm126.6 34.06c-.03.18-.11.34-.22.5a1.75 1.75 0 0 1-1.56.68c-4.35-.18-8.2-1.82-10.78-4.59a.98.98 0 0 1-.34-.9c.03-.18.1-.35.2-.5.1-.17.23-.31.4-.43.32-.18.7-.27 1.05-.23.36.03.66.18.87.42 2.19 2.34 5.45 3.73 9.12 3.88.36 0 .7.13.92.34.24.22.36.51.34.83Zm-178.4 83.22a1.06 1.06 0 0 1-.58-.33.87.87 0 0 1-.22-.58c0-.22.08-.44.23-.64a1.6 1.6 0 0 1 1.34-.63c.25.01.48.1.66.22.18.14.3.32.34.53a1 1 0 0 1-.08.64c-.07.14-.16.28-.28.4a1.56 1.56 0 0 1-.92.42c-.17.02-.34.01-.5-.02Zm-2.78 14.2a9.7 9.7 0 0 0 3.95 7.7c.25.17.4.43.42.73.03.3-.07.6-.29.87a1.7 1.7 0 0 1-1.03.46 1.6 1.6 0 0 1-.54-.06 1.14 1.14 0 0 1-.43-.25 11.44 11.44 0 0 1-4.65-9.11c-.02-.16 0-.33.06-.49.06-.16.16-.31.28-.45a1.7 1.7 0 0 1 1-.51c.36 0 .68.12.9.33.23.2.34.48.33.79Zm11.51-30.54a1.5 1.5 0 0 1-.23.5 1.78 1.78 0 0 1-1.56.68c-4.35-.17-8.2-1.8-10.8-4.57a1 1 0 0 1-.33-.9c.02-.17.09-.34.19-.5.1-.16.23-.3.4-.43.33-.18.7-.26 1.06-.23.35.04.66.19.87.43 2.18 2.34 5.44 3.73 9.12 3.88.36 0 .68.12.91.33.24.2.37.5.37.8Zm126.79 34.11c-.03.17-.11.34-.23.5a1.8 1.8 0 0 1-.97.65c-.2.04-.4.06-.58.03-4.35-.17-8.2-1.82-10.78-4.6a1 1 0 0 1-.34-.9c.03-.17.1-.34.2-.5.1-.16.24-.3.4-.42.32-.19.7-.27 1.05-.23.36.03.66.18.87.42 2.18 2.34 5.44 3.73 9.12 3.89.36 0 .69.12.92.34.23.21.35.5.34.82Zm-42.8 101.13c-.03.18-.11.35-.22.5a1.78 1.78 0 0 1-1.56.68c-4.34-.17-8.2-1.82-10.78-4.6a.99.99 0 0 1-.33-.9 1.35 1.35 0 0 1 .59-.91c.32-.19.7-.27 1.05-.24.36.03.67.18.87.42 2.19 2.35 5.45 3.74 9.12 3.89.36 0 .7.12.92.34a1 1 0 0 1 .34.83Zm126.4 34.01a1.3 1.3 0 0 1-.23.5 1.75 1.75 0 0 1-1.56.68c-4.33-.18-8.18-1.82-10.76-4.6a.99.99 0 0 1-.33-.9 1.32 1.32 0 0 1 .58-.92c.33-.18.7-.27 1.06-.23.36.03.66.18.87.42 2.18 2.34 5.44 3.73 9.11 3.88.37.01.69.13.92.35.23.21.35.5.34.82Zm2.07-337.23a1.5 1.5 0 0 1-.23.5 1.77 1.77 0 0 1-1.56.68c-4.34-.18-8.2-1.82-10.78-4.6a.98.98 0 0 1-.33-.9c.02-.17.09-.34.19-.5.1-.16.24-.3.4-.42.33-.18.7-.27 1.06-.23.35.03.66.18.87.41 2.18 2.35 5.44 3.74 9.12 3.9.36 0 .69.12.92.33.23.22.35.51.34.83Zm126.59 34.06a1.46 1.46 0 0 1-.65.9 1.77 1.77 0 0 1-1.14.28c-4.34-.18-8.19-1.82-10.77-4.6a1 1 0 0 1-.33-.9c.02-.17.09-.34.19-.5.1-.16.23-.3.39-.42.33-.19.7-.27 1.06-.24.36.04.66.19.87.42 2.18 2.35 5.45 3.74 9.12 3.9.37 0 .7.12.92.33.24.22.36.51.34.83Zm-281.53 312.21a1.63 1.63 0 0 1 1.07-.19c.17.04.32.11.45.2.13.1.23.23.3.36 1.78 2.96 2.1 6.57.86 10.1-.04.16-.12.31-.23.46-.1.14-.25.26-.4.36a1.68 1.68 0 0 1-1.07.23 1.1 1.1 0 0 1-.68-.54 1.04 1.04 0 0 1-.02-.85 9.9 9.9 0 0 0-.72-8.56 1 1 0 0 1-.1-.81c.08-.3.27-.56.54-.76Zm50.55-287.69a12.65 12.65 0 0 0-3.74 8.34c0 .29-.11.58-.32.83-.22.25-.51.43-.84.51a1.4 1.4 0 0 1-.5-.03c-.16-.04-.3-.12-.42-.22a.9.9 0 0 1-.3-.82c.08-3.48 1.66-7 4.4-9.85a1.48 1.48 0 0 1 .91-.53c.18-.03.35-.03.52 0 .16.04.3.1.43.2.2.2.29.47.26.76-.03.3-.17.58-.4.8Zm126.4 34.01a12.65 12.65 0 0 0-3.73 8.34c0 .29-.11.58-.33.83-.2.25-.5.43-.83.51a1.3 1.3 0 0 1-.5-.03c-.16-.04-.3-.12-.42-.22a.9.9 0 0 1-.3-.82c.09-3.48 1.66-7 4.4-9.85a1.5 1.5 0 0 1 .91-.53c.18-.03.35-.03.52 0 .16.03.3.1.43.2.2.2.29.47.26.76-.03.3-.17.58-.4.8Zm-184.18-56.31a1 1 0 0 1-.05-.48c.02-.17.08-.34.18-.5a1.55 1.55 0 0 1 .92-.68 19.9 19.9 0 0 1 12.7-.78c.18.04.35.1.49.2s.24.23.31.38c.08.15.1.31.1.48-.01.17-.06.34-.15.5a1.82 1.82 0 0 1-1.91.65 16.9 16.9 0 0 0-10.77.66c-.34.14-.72.18-1.05.1a1.2 1.2 0 0 1-.77-.53Zm127.4 54.21c-.19.04-.38.05-.56.02a1.24 1.24 0 0 1-.48-.18.91.91 0 0 1-.44-.8c.05-.3.23-.59.5-.82.28-.22.62-.37.97-.4 3.6-.49 7.07-2.11 9.7-4.55.25-.24.58-.41.93-.48.35-.06.7-.02.98.13a.93.93 0 0 1 .37.83c-.01.16-.06.32-.15.48-.1.15-.22.3-.37.4a21.1 21.1 0 0 1-11.45 5.37Zm-.79-20.15a.98.98 0 0 1-.06-.48c.02-.17.08-.34.18-.5a1.75 1.75 0 0 1 .92-.69 19.9 19.9 0 0 1 12.7-.76c.19.03.35.1.49.2a.97.97 0 0 1 .41.85c0 .17-.06.34-.14.5a1.82 1.82 0 0 1-1.92.65 16.9 16.9 0 0 0-10.76.66 1.7 1.7 0 0 1-1.06.1c-.34-.08-.6-.26-.76-.53Zm-98.37-23.27a1.66 1.66 0 0 1 1.56-.4c.17.05.32.13.44.24a11.45 11.45 0 0 1 4.7 9.07 1 1 0 0 1-.06.48c-.06.16-.15.32-.28.45a1.64 1.64 0 0 1-1 .52c-.35 0-.66-.1-.9-.3a.99.99 0 0 1-.34-.78 9.71 9.71 0 0 0-3.98-7.68 1 1 0 0 1-.43-.73c-.03-.3.07-.6.29-.87Zm83.87 30.75a1.65 1.65 0 0 1-1.58.4 1.12 1.12 0 0 1-.43-.24 11.44 11.44 0 0 1-4.67-9.08c-.01-.16 0-.33.06-.49.06-.16.16-.3.29-.45a1.66 1.66 0 0 1 1-.5c.35 0 .66.1.9.3a1 1 0 0 1 .34.78 9.7 9.7 0 0 0 3.94 7.69 1 1 0 0 1 .43.73c.03.29-.07.6-.28.86Zm-4.98 53.6a9.68 9.68 0 0 0 3.95 7.68 1 1 0 0 1 .43.73c.03.3-.08.6-.29.88a1.66 1.66 0 0 1-1.57.4 1.12 1.12 0 0 1-.44-.25 11.44 11.44 0 0 1-4.66-9.09 1 1 0 0 1 .06-.48c.06-.16.16-.31.28-.45a1.61 1.61 0 0 1 1-.5c.35 0 .67.1.9.3.23.2.35.48.34.78Zm28.83-78.2c1.05-3 .8-6.07-.72-8.58a1 1 0 0 1-.11-.83c.08-.3.28-.57.56-.77.17-.1.35-.16.54-.18.18-.03.36-.03.54 0 .17.04.32.11.45.2.13.1.23.23.3.37a11.76 11.76 0 0 1 .84 10.12c-.04.15-.12.31-.23.45-.1.14-.25.27-.4.37a1.66 1.66 0 0 1-1.07.23c-.3-.1-.55-.29-.68-.54a1.04 1.04 0 0 1-.02-.85Zm13.96-22.91a9.69 9.69 0 0 0 3.95 7.69 1 1 0 0 1 .43.73c.02.3-.08.6-.3.87a1.67 1.67 0 0 1-1.57.4 1.11 1.11 0 0 1-.43-.24 11.44 11.44 0 0 1-4.66-9.09 1 1 0 0 1 .06-.48c.06-.16.15-.31.28-.45a1.63 1.63 0 0 1 1-.5c.35 0 .67.1.9.3.22.2.34.47.34.77Zm-85.32 202.22a9.72 9.72 0 0 0 3.95 7.7 1 1 0 0 1 .43.72c.03.3-.08.61-.29.88a1.7 1.7 0 0 1-1.03.45c-.19.02-.37 0-.54-.06a1.13 1.13 0 0 1-.43-.24 11.47 11.47 0 0 1-4.67-9.12c-.01-.16 0-.32.06-.48a1.62 1.62 0 0 1 .74-.79c.17-.09.36-.15.55-.17.35 0 .68.11.9.32.23.2.35.49.33.8Zm-42.78 101.1a9.7 9.7 0 0 0 3.94 7.7 1 1 0 0 1 .44.73c.02.3-.08.6-.3.87a1.69 1.69 0 0 1-1.56.4 1.13 1.13 0 0 1-.44-.25 11.44 11.44 0 0 1-4.67-9.09 1.2 1.2 0 0 1 .34-.93 1.71 1.71 0 0 1 1-.51c.35 0 .67.1.9.3.23.2.35.48.34.78Zm169.58-66.98a9.69 9.69 0 0 0 3.94 7.69 1 1 0 0 1 .43.73c.03.3-.08.6-.29.87a1.7 1.7 0 0 1-1.03.46 1.6 1.6 0 0 1-.54-.06 1.14 1.14 0 0 1-.43-.25 11.49 11.49 0 0 1-4.66-9.12c-.01-.15 0-.32.07-.48.05-.16.15-.31.28-.45a1.65 1.65 0 0 1 1-.51c.35 0 .67.12.9.32.22.2.34.5.33.8Zm-36.77-185.58a1.68 1.68 0 0 1 1.57-.4c.17.06.32.14.44.25a11.45 11.45 0 0 1 4.7 9.07 1 1 0 0 1-.06.48c-.06.16-.15.31-.28.45a1.64 1.64 0 0 1-1 .52c-.35 0-.66-.11-.9-.31a1 1 0 0 1-.34-.77 9.7 9.7 0 0 0-3.98-7.68 1 1 0 0 1-.43-.73c-.03-.3.07-.61.28-.88Zm-196.32 76.36c-.19.04-.38.05-.56.02a1.25 1.25 0 0 1-.48-.18.97.97 0 0 1-.33-.34.9.9 0 0 1-.11-.46c.06-.3.24-.59.5-.81.28-.23.62-.38.97-.41 3.6-.48 7.07-2.1 9.7-4.52.24-.25.57-.42.92-.49.35-.06.7-.02.98.13.14.1.24.22.3.37.07.14.1.3.08.46-.01.16-.07.32-.16.48-.09.15-.21.29-.36.4a21.05 21.05 0 0 1-11.45 5.35Zm126.37 34c-.18.04-.37.05-.55.02a1.25 1.25 0 0 1-.49-.18.93.93 0 0 1-.44-.8c.06-.3.24-.59.5-.82.28-.22.62-.37.97-.4 3.61-.49 7.07-2.1 9.7-4.54.25-.25.58-.42.93-.49.35-.06.7-.02.98.13a.94.94 0 0 1 .38.83 1.3 1.3 0 0 1-.52.88 21.1 21.1 0 0 1-11.46 5.37Zm118.22 44.66a1.2 1.2 0 0 1-.23.5 1.77 1.77 0 0 1-1.56.69c-4.33-.17-8.19-1.8-10.77-4.56a1 1 0 0 1-.34-.9 1.45 1.45 0 0 1 .59-.93c.32-.19.7-.27 1.06-.23.35.03.66.18.86.42 2.19 2.34 5.45 3.73 9.12 3.88.36 0 .68.12.91.33.24.2.36.5.36.8Zm8.62-10.54c-.19.04-.38.05-.56.02a1.23 1.23 0 0 1-.48-.18.92.92 0 0 1-.44-.8c.05-.3.23-.59.5-.81.27-.23.61-.38.96-.41 3.6-.48 7.07-2.1 9.7-4.52.24-.25.58-.42.93-.49.35-.06.7-.02.98.13a.94.94 0 0 1 .37.83c-.01.16-.06.32-.15.48-.1.15-.21.3-.36.41a21.12 21.12 0 0 1-11.45 5.34Zm-232.35-69.79a1.06 1.06 0 0 1-.58-.34.88.88 0 0 1-.2-.59c0-.22.08-.44.22-.64.15-.2.35-.36.6-.47.23-.11.5-.16.74-.15.25.01.48.1.66.22.18.14.3.32.34.53a1 1 0 0 1-.08.64 1.54 1.54 0 0 1-1.7.8Zm-21.96-18.37a.99.99 0 0 1-.05-.49c.02-.17.08-.34.18-.5a1.76 1.76 0 0 1 .92-.69 19.92 19.92 0 0 1 12.67-.79c.18.04.35.1.49.2a.97.97 0 0 1 .41.85c0 .18-.06.34-.14.5a1.82 1.82 0 0 1-1.92.66c-3.35-.98-7.2-.74-10.76.66-.34.14-.7.17-1.04.1a1.2 1.2 0 0 1-.76-.5Zm125.85 33.86a.98.98 0 0 1-.06-.5c.02-.16.08-.33.18-.49a1.77 1.77 0 0 1 .92-.69 19.93 19.93 0 0 1 12.68-.79c.18.04.35.1.49.2a.97.97 0 0 1 .4.85c0 .17-.05.34-.14.5a1.81 1.81 0 0 1-1.91.65 16.89 16.89 0 0 0-10.72.65c-.34.15-.72.2-1.06.12a1.2 1.2 0 0 1-.78-.5Zm136.71 17.12c1.05-3 .8-6.06-.72-8.56a1 1 0 0 1-.11-.84c.08-.3.28-.57.56-.77a1.65 1.65 0 0 1 1.07-.18 1 1 0 0 1 .75.56c1.79 2.97 2.1 6.58.85 10.13-.04.15-.12.3-.23.45-.1.14-.25.27-.4.37a1.66 1.66 0 0 1-1.07.23c-.3-.1-.55-.28-.68-.54a1.03 1.03 0 0 1-.02-.85Zm57.51-123.8a9.69 9.69 0 0 0 3.94 7.7 1 1 0 0 1 .43.73c.02.3-.08.6-.3.87a1.65 1.65 0 0 1-1.56.4 1.11 1.11 0 0 1-.44-.25 11.44 11.44 0 0 1-4.66-9.09c-.02-.15 0-.32.06-.48.06-.16.15-.31.28-.45a1.63 1.63 0 0 1 1-.5c.35 0 .67.1.9.3.23.2.35.47.34.77Zm-14.73 22.7c1.06-3 .8-6.06-.71-8.57a1 1 0 0 1-.12-.83c.08-.3.29-.57.57-.77.16-.1.34-.16.53-.19.18-.03.37-.02.54.01.17.04.32.1.45.2s.23.22.3.36a11.77 11.77 0 0 1 .84 10.12c-.04.16-.11.32-.22.46s-.25.27-.41.36a1.67 1.67 0 0 1-1.06.24 1.1 1.1 0 0 1-.68-.54 1.04 1.04 0 0 1-.03-.85Zm-52.14 118.24a.98.98 0 0 1-.06-.49c.03-.17.09-.34.19-.5a1.74 1.74 0 0 1 .92-.69 19.92 19.92 0 0 1 12.67-.79c.19.04.35.1.49.2a.97.97 0 0 1 .41.85c0 .18-.06.34-.14.5a1.82 1.82 0 0 1-1.92.66 16.88 16.88 0 0 0-10.72.64c-.34.15-.72.2-1.05.13a1.2 1.2 0 0 1-.79-.51Zm-224.96-57.33a1.65 1.65 0 0 1 1.57-.41c.17.05.31.13.43.25a11.44 11.44 0 0 1 4.7 9.06c.02.16 0 .32-.05.48-.06.17-.16.32-.28.46a1.64 1.64 0 0 1-1 .5 1.3 1.3 0 0 1-.9-.3.99.99 0 0 1-.34-.77 9.73 9.73 0 0 0-3.98-7.68.99.99 0 0 1-.44-.72c-.03-.3.08-.6.29-.88Zm168.91 53.24c.65.15.95.76.67 1.35-.29.59-1.04.94-1.7.79-.65-.16-.95-.76-.67-1.35.28-.6 1.04-.95 1.7-.8Zm-12.89-7.89a12.65 12.65 0 0 0-3.74 8.35c0 .28-.11.58-.32.82-.22.25-.51.43-.83.52a1.3 1.3 0 0 1-.51-.04c-.16-.04-.3-.11-.42-.21a.9.9 0 0 1-.3-.82c.09-3.48 1.66-7 4.4-9.86a1.49 1.49 0 0 1 .91-.53c.18-.03.35-.03.52 0 .16.04.3.1.43.2.2.2.29.48.26.77-.02.29-.17.57-.4.8Zm50.23 9.96a9.69 9.69 0 0 0 3.95 7.69 1 1 0 0 1 .42.73c.03.3-.07.6-.28.87a1.65 1.65 0 0 1-1.57.4 1.11 1.11 0 0 1-.44-.25 11.48 11.48 0 0 1-4.67-9.08c-.02-.16 0-.33.06-.49.06-.16.16-.3.28-.44a1.64 1.64 0 0 1 1-.52c.35 0 .67.11.9.31a1 1 0 0 1 .35.78Zm-79.79-21.47a1.68 1.68 0 0 1 1.57-.4c.17.05.32.14.44.25a11.45 11.45 0 0 1 4.7 9.06c.02.16 0 .33-.06.49-.05.16-.15.31-.27.45a1.65 1.65 0 0 1-1 .51c-.36 0-.67-.1-.9-.3a1 1 0 0 1-.35-.78 9.69 9.69 0 0 0-3.98-7.68 1 1 0 0 1-.43-.73c-.03-.3.07-.6.28-.87Zm-196.38 76.51c-.19.04-.38.05-.56.02a1.22 1.22 0 0 1-.49-.18.92.92 0 0 1-.44-.8c.06-.3.24-.59.51-.82.27-.22.62-.37.97-.4 3.6-.48 7.06-2.1 9.68-4.52.25-.25.58-.42.94-.48.35-.07.7-.03.98.12a.93.93 0 0 1 .37.83c-.01.16-.07.32-.15.48-.1.15-.22.29-.36.4a21.04 21.04 0 0 1-11.45 5.35Zm20.85-1.67a1.06 1.06 0 0 1-.57-.35.88.88 0 0 1-.2-.6c.01-.21.1-.43.25-.63a1.56 1.56 0 0 1 1.35-.6c.25.01.48.1.65.24.18.13.3.32.33.53.04.21 0 .44-.1.65a1.55 1.55 0 0 1-1.71.76Zm-22.25-18.5a.98.98 0 0 1-.06-.5c.02-.16.08-.33.18-.49a1.75 1.75 0 0 1 .92-.69 19.98 19.98 0 0 1 12.68-.8c.18.05.34.12.48.22a.97.97 0 0 1 .41.85c0 .17-.06.34-.14.5a1.81 1.81 0 0 1-1.92.65c-3.34-.98-7.2-.75-10.76.66-.34.13-.7.17-1.03.1a1.2 1.2 0 0 1-.76-.5Zm126.8 34.11a.99.99 0 0 1-.06-.49c.02-.17.09-.34.18-.5a1.73 1.73 0 0 1 .92-.69 19.98 19.98 0 0 1 12.67-.79c.19.04.35.1.5.21a.97.97 0 0 1 .41.85c-.02.17-.07.34-.16.5a1.82 1.82 0 0 1-1.91.65 16.83 16.83 0 0 0-10.72.67 1.7 1.7 0 0 1-1.06.1 1.2 1.2 0 0 1-.77-.51Zm135.75 16.87c1.05-3 .8-6.05-.72-8.56a1 1 0 0 1-.12-.83c.09-.3.29-.57.57-.77a1.65 1.65 0 0 1 1.07-.18c.17.04.33.11.45.2.13.1.23.22.3.36 1.79 2.96 2.1 6.59.84 10.13-.04.16-.11.31-.22.45a1.55 1.55 0 0 1-.93.58c-.18.04-.37.05-.54.02-.31-.1-.55-.29-.68-.55a1.04 1.04 0 0 1-.02-.85Zm-9.36 17.13a1 1 0 0 1-.05-.48c.02-.17.08-.34.18-.5a1.76 1.76 0 0 1 .92-.69 20 20 0 0 1 12.67-.8c.18.04.35.11.49.21a.98.98 0 0 1 .41.85c0 .18-.06.35-.14.5a1.81 1.81 0 0 1-1.92.66c-3.34-.98-7.2-.75-10.76.66-.34.13-.7.17-1.03.1a1.2 1.2 0 0 1-.77-.5Zm-224.59-57.35a1.65 1.65 0 0 1 1.57-.4 1 1 0 0 1 .43.24 11.45 11.45 0 0 1 4.7 9.07c.03.16 0 .32-.05.48-.06.16-.16.31-.28.45a1.65 1.65 0 0 1-1 .51c-.35 0-.67-.1-.9-.3a.98.98 0 0 1-.34-.77 9.73 9.73 0 0 0-3.98-7.68.99.99 0 0 1-.44-.73c-.02-.3.08-.6.29-.87Zm155.95 45.51a12.65 12.65 0 0 0-3.73 8.35c0 .29-.12.58-.33.83-.21.24-.51.42-.84.5-.17.03-.34.02-.5-.03-.16-.04-.3-.11-.42-.21a.9.9 0 0 1-.3-.81c.09-3.49 1.66-7.01 4.4-9.87a1.52 1.52 0 0 1 1.43-.52c.16.03.3.1.43.19.2.2.3.47.27.76-.03.3-.17.58-.4.81Zm126.8 34.12a12.65 12.65 0 0 0-3.74 8.34c0 .29-.12.58-.33.83-.21.25-.51.43-.83.5-.18.03-.35.02-.51-.03-.16-.04-.3-.11-.42-.21a.91.91 0 0 1-.3-.81c.08-3.49 1.66-7.01 4.42-9.87a1.52 1.52 0 0 1 1.41-.52c.17.03.31.1.44.19.2.2.29.48.26.77-.03.29-.17.57-.4.8Zm-202.97-58.17a9.7 9.7 0 0 0 3.95 7.7c.25.17.4.43.43.73.03.29-.08.6-.29.87a1.67 1.67 0 0 1-1.57.4 1.12 1.12 0 0 1-.44-.25 11.44 11.44 0 0 1-4.66-9.09 1 1 0 0 1 .06-.48c.06-.16.16-.31.28-.45a1.66 1.66 0 0 1 1-.51c.36 0 .67.1.9.3a1 1 0 0 1 .34.78Zm19.38 21.94c-.19.05-.38.05-.56.03a1.25 1.25 0 0 1-.48-.18.93.93 0 0 1-.44-.8c.06-.3.24-.6.5-.82.28-.22.62-.37.97-.4 3.6-.48 7.07-2.1 9.7-4.53.24-.24.58-.41.93-.48.35-.06.7-.02.98.13.13.1.23.22.3.37.06.14.08.3.07.46-.01.16-.07.32-.16.48-.08.15-.2.29-.35.4a21.03 21.03 0 0 1-11.46 5.35Zm107.03 12.07a9.7 9.7 0 0 0 3.94 7.69 1 1 0 0 1 .43.73c.03.3-.08.6-.29.87a1.67 1.67 0 0 1-1.57.4 1.14 1.14 0 0 1-.44-.25 11.5 11.5 0 0 1-4.66-9.08c-.02-.16 0-.32.06-.49.06-.15.15-.3.28-.44a1.65 1.65 0 0 1 1-.52c.35 0 .67.11.9.31a1 1 0 0 1 .35.78Zm19.82 22.06c-.2.05-.38.05-.56.02a1.22 1.22 0 0 1-.49-.17.9.9 0 0 1-.44-.8c.06-.3.24-.6.5-.82.28-.23.62-.38.98-.41 3.6-.48 7.06-2.1 9.68-4.52a1.74 1.74 0 0 1 1.92-.36.94.94 0 0 1 .37.83c-.02.16-.07.33-.16.48-.08.15-.2.3-.36.41a21.04 21.04 0 0 1-11.44 5.34Zm-105.96-35.79a1.07 1.07 0 0 1-.58-.34.87.87 0 0 1-.2-.6c0-.21.08-.44.23-.63a1.57 1.57 0 0 1 1.35-.61c.26.01.48.1.66.23.18.14.29.33.33.54a1 1 0 0 1-.1.65 1.55 1.55 0 0 1-1.69.76Zm174.57 47.91a1.06 1.06 0 0 1-.57-.33.87.87 0 0 1-.2-.59c0-.21.07-.44.22-.63a1.58 1.58 0 0 1 1.33-.62c.25.01.48.09.65.22.18.13.3.31.35.52.04.2.01.43-.09.64a1.54 1.54 0 0 1-1.7.79Zm-47.77-13.79a1.06 1.06 0 0 1-.56-.35.88.88 0 0 1-.2-.6c.01-.21.1-.44.25-.63a1.58 1.58 0 0 1 1.35-.6c.25.02.48.1.65.24.18.14.29.32.33.53a1 1 0 0 1-.1.65 1.6 1.6 0 0 1-1.7.76Zm-120.46-41.86a1.67 1.67 0 0 1 1.58-.4c.17.05.32.14.43.25a11.45 11.45 0 0 1 4.7 9.07 1 1 0 0 1-.05.48c-.06.16-.15.31-.28.45a1.7 1.7 0 0 1-1 .51c-.35 0-.67-.1-.9-.3a.99.99 0 0 1-.35-.78 9.7 9.7 0 0 0-3.98-7.68 1 1 0 0 1-.43-.72c-.03-.3.07-.6.28-.88Zm126.8 34.12a1.63 1.63 0 0 1 1.03-.47c.2-.01.38 0 .55.06.17.06.31.14.43.25a11.45 11.45 0 0 1 4.7 9.07c.03.16 0 .32-.05.48-.06.16-.16.31-.28.45a1.63 1.63 0 0 1-1 .51c-.35 0-.67-.1-.9-.3a1 1 0 0 1-.35-.77 9.7 9.7 0 0 0-3.98-7.68 1 1 0 0 1-.43-.73c-.03-.3.07-.6.28-.87Z"/></g><defs><clipPath id="a"><path fill="#fff" d="M0 0h363v368h-363z"/></clipPath></defs></svg>