<svg viewBox="0 0 333 416" fill="none" xmlns="http://www.w3.org/2000/svg"><path d="M176.25 358.06c1.64-1.07 1.78-3.78.3-6.05s-4.01-3.25-5.66-2.18c-1.65 1.07-1.78 3.78-.3 6.05 1.47 2.27 4 3.25 5.66 2.18Zm-82.22-40.41c1.61-.66 2.32-2.66 1.57-4.45-.75-1.8-2.66-2.71-4.27-2.04-1.6.67-2.31 2.66-1.56 4.46.74 1.79 2.65 2.7 4.26 2.03Zm97.67 96.59c.27-2.12-2.6-4.23-6.4-4.73-3.8-.5-7.12.81-7.4 2.92-.27 2.11 2.6 4.23 6.4 4.72 3.8.5 7.12-.8 7.4-2.91Zm-120.39-403.6c.77-2.64.07-5.15-1.55-5.62-1.62-.47-3.55 1.28-4.31 3.91-.77 2.64-.08 5.15 1.54 5.62 1.62.47 3.55-1.28 4.32-3.91Zm34.67 14.49c3.73 0 6.74-1.68 6.74-3.74 0-2.07-3.01-3.74-6.74-3.74-3.72 0-6.74 1.67-6.74 3.74 0 2.06 3.02 3.74 6.74 3.74Zm17.05.14c2.1-3.16 2.15-6.8.12-8.14-2.02-1.34-5.36.14-7.45 3.3-2.1 3.16-2.15 6.8-.13 8.14 2.03 1.34 5.37-.14 7.46-3.3Zm-78.9-18.79c.67-2.28-.27-4.56-2.08-5.08-1.82-.53-3.83.89-4.5 3.17-.66 2.28.28 4.55 2.1 5.08 1.81.53 3.82-.9 4.48-3.17Zm34.64 2.8c1.5-.98 1.63-3.45.28-5.52-1.35-2.08-3.66-2.97-5.17-2-1.5.98-1.63 3.46-.28 5.53 1.35 2.08 3.67 2.97 5.17 2Zm-1.95 84.2c.82-1.52-.46-3.79-2.85-5.06-2.38-1.27-4.98-1.06-5.8.46-.8 1.52.47 3.79 2.86 5.06 2.39 1.27 4.98 1.07 5.8-.46Zm73.03 283.19c1.56-3.57 1.05-7.25-1.15-8.21-2.2-.96-5.25 1.15-6.81 4.73-1.57 3.57-1.06 7.24 1.14 8.2 2.2.97 5.25-1.15 6.82-4.72Zm127.73-180.09c.28-2.1-2.56-4.2-6.35-4.7-3.78-.48-7.06.82-7.34 2.91-.27 2.1 2.57 4.2 6.35 4.7 3.78.49 7.07-.81 7.34-2.9Zm-150.83 175.22c1-2.28.47-4.7-1.18-5.42-1.65-.72-3.79.54-4.78 2.8-1 2.28-.47 4.7 1.18 5.42 1.64.72 3.78-.54 4.78-2.8Zm47.12-8c.94-2.15.31-4.5-1.4-5.25-1.72-.75-3.87.38-4.81 2.53-.95 2.15-.32 4.5 1.4 5.25 1.7.75 3.86-.38 4.8-2.53Zm-95.07-120.12c1.27-1.1.85-3.66-.93-5.73-1.79-2.07-4.27-2.87-5.54-1.77-1.27 1.1-.85 3.66.93 5.73 1.79 2.07 4.27 2.86 5.54 1.77Zm22.08 56.09c.84-2.9.08-5.65-1.7-6.17-1.77-.52-3.9 1.4-4.74 4.3-.84 2.89-.08 5.65 1.7 6.17 1.78.51 3.9-1.41 4.74-4.3Zm81.12 1.55c1.68-1.68.69-5.4-2.21-8.3-2.9-2.9-6.62-3.88-8.3-2.2-1.69 1.68-.7 5.39 2.2 8.29 2.91 2.9 6.63 3.89 8.31 2.2Zm9.24-106.16c2.53-2.53 1.04-8.13-3.34-12.5-4.38-4.38-9.99-5.87-12.52-3.34-2.54 2.53-1.04 8.13 3.34 12.5 4.38 4.38 9.98 5.87 12.52 3.34Zm-27.07 65.72c.06-1.31-1.69-2.45-3.9-2.54-2.2-.1-4.04.9-4.1 2.2-.05 1.3 1.7 2.45 3.9 2.54 2.21.1 4.05-.9 4.1-2.2Zm-43.87 49.36c.69-2.37-.15-4.69-1.86-5.19-1.72-.5-3.67 1.02-4.35 3.38-.7 2.37.14 4.69 1.86 5.19 1.71.5 3.66-1.02 4.35-3.38Zm66.06-152.62c.65-2.25-.14-4.45-1.76-4.92-1.63-.48-3.48.96-4.13 3.2-.66 2.25.13 4.46 1.76 4.93 1.63.47 3.48-.97 4.13-3.21Zm-31 106.22c1.21-3.24-1.9-7.4-6.97-9.3-5.07-1.9-10.16-.82-11.38 2.41-1.21 3.23 1.9 7.4 6.97 9.3 5.07 1.9 10.16.82 11.38-2.41Zm-42.25 8.96c1.8-2.7 1.84-5.83.1-6.97-1.72-1.14-4.58.12-6.37 2.82-1.79 2.7-1.84 5.83-.1 6.97 1.73 1.14 4.58-.12 6.37-2.82Zm2.8 22.16c1.73-1.12 1.87-3.96.32-6.35-1.56-2.4-4.22-3.42-5.95-2.3-1.72 1.13-1.86 3.97-.31 6.36s4.22 3.41 5.94 2.3Zm4.37 31.64c2-1.73 1.35-5.78-1.46-9.04-2.81-3.26-6.72-4.5-8.73-2.78-2 1.72-1.35 5.77 1.46 9.03 2.82 3.26 6.72 4.5 8.73 2.78Zm77.59 46.32c2-2 .82-6.41-2.63-9.86-3.46-3.45-7.88-4.63-9.88-2.63-2 2-.82 6.41 2.64 9.86 3.45 3.45 7.87 4.63 9.87 2.63Zm-97.19-45.21c1.88-1.22 2.04-4.3.36-6.87-1.68-2.58-4.56-3.69-6.43-2.47-1.88 1.22-2.04 4.3-.36 6.88 1.67 2.58 4.56 3.68 6.43 2.46Zm56.47 30.59c3.83 0 6.94-1.72 6.94-3.85 0-2.12-3.1-3.84-6.94-3.84-3.83 0-6.93 1.72-6.93 3.84 0 2.13 3.1 3.85 6.93 3.85Zm-19.3-2.54c.64-2.19-.13-4.33-1.72-4.8-1.58-.45-3.38.95-4.02 3.14-.64 2.18.13 4.33 1.72 4.79 1.58.46 3.39-.94 4.02-3.13Z" fill="#fff"/><path d="M128.92 324.5c2.02-3.06 2.08-6.58.13-7.87-1.95-1.29-5.17.14-7.2 3.19-2.02 3.04-2.07 6.56-.12 7.85 1.95 1.3 5.17-.13 7.19-3.18Zm9.51 21.98c1.69-1.08 1.84-3.84.34-6.16-1.5-2.33-4.07-3.34-5.76-2.26-1.68 1.08-1.83 3.84-.33 6.17 1.5 2.32 4.07 3.33 5.75 2.25Zm21.38 2.95c2.85-.6 4.85-2.58 4.46-4.44-.39-1.85-3-2.88-5.86-2.29-2.85.6-4.84 2.58-4.46 4.44.39 1.85 3.01 2.88 5.86 2.29Zm12.09-80.49c1.44-1.1 1.05-4.03-.87-6.52-1.91-2.5-4.64-3.62-6.09-2.5-1.44 1.1-1.06 4.02.86 6.51 1.92 2.5 4.65 3.62 6.1 2.51Zm23.6 22.79c.76-1.4-.42-3.48-2.62-4.65-2.2-1.18-4.6-.99-5.34.41-.75 1.4.43 3.49 2.63 4.66 2.2 1.17 4.59.99 5.34-.42Zm8.2 18.55c2.7-.2 4.78-1.79 4.65-3.55-.14-1.76-2.43-3.02-5.13-2.82-2.7.2-4.79 1.8-4.66 3.55.13 1.76 2.43 3.03 5.13 2.82Zm-118.13-5.63c1.4-.93 1.33-3.53-.17-5.82-1.51-2.3-3.87-3.4-5.28-2.48-1.41.92-1.34 3.53.17 5.82 1.5 2.3 3.87 3.4 5.28 2.48Zm-8.69-20.17c2.34-5.35 1.58-10.85-1.71-12.28-3.29-1.44-7.86 1.73-10.2 7.07-2.34 5.35-1.58 10.85 1.71 12.28 3.29 1.44 7.85-1.73 10.2-7.07Z" fill="#fff"/><path d="M83.52 293.5c.91-2.08.31-4.34-1.34-5.06-1.64-.72-3.72.38-4.62 2.44-.91 2.07-.31 4.33 1.34 5.06 1.64.71 3.72-.38 4.62-2.45Zm107.84-158.98c.96-2.2.32-4.62-1.44-5.4-1.76-.76-3.97.4-4.94 2.61-.97 2.21-.33 4.63 1.43 5.4 1.76.77 3.98-.4 4.95-2.6Zm-7.88 95.52c1.88-1.61 1.27-5.4-1.36-8.45-2.64-3.05-6.3-4.22-8.17-2.6-1.88 1.61-1.26 5.4 1.37 8.45 2.63 3.05 6.28 4.22 8.16 2.6Zm17.1-55.45c.74-2.56.07-5-1.5-5.46-1.57-.46-3.45 1.25-4.2 3.8-.73 2.56-.06 5 1.5 5.46 1.58.46 3.46-1.25 4.2-3.8Zm63.83 1.48c1.31-1.31.54-4.21-1.73-6.48-2.27-2.27-5.18-3.04-6.49-1.73-1.31 1.31-.53 4.21 1.74 6.48 2.27 2.27 5.17 3.04 6.48 1.73Zm-35.41-42.07c.07-1.42-1.82-2.65-4.2-2.75-2.38-.1-4.36.96-4.42 2.38-.06 1.4 1.82 2.64 4.2 2.74 2.38.1 4.37-.97 4.43-2.38Zm9.66 51.7c6.25 0 11.31-2.81 11.31-6.28 0-3.46-5.06-6.27-11.31-6.27-6.25 0-11.31 2.8-11.31 6.27 0 3.47 5.06 6.27 11.3 6.27Zm-27.88-5.46c.66-2.27-.14-4.5-1.79-4.99-1.65-.47-3.52.98-4.18 3.26-.66 2.28.14 4.5 1.79 4.99 1.65.47 3.52-.98 4.18-3.26Zm37.02-41.38c.6-1.6-.96-3.67-3.47-4.62-2.52-.94-5.05-.4-5.66 1.2-.6 1.6.95 3.67 3.47 4.62 2.52.94 5.05.4 5.65-1.2Zm-53.98 121.17c1.37-4.72-.56-9.44-4.32-10.53-3.76-1.09-7.93 1.85-9.3 6.58-1.38 4.72.56 9.43 4.32 10.53 3.76 1.09 7.93-1.86 9.3-6.58Zm52.12-100.2c2.78-.58 4.73-2.52 4.36-4.33-.38-1.81-2.95-2.82-5.73-2.24-2.78.58-4.74 2.52-4.36 4.33.38 1.82 2.94 2.82 5.73 2.24Zm31.83 48.42c1.34-1.15.9-3.86-.98-6.04s-4.49-3.01-5.83-1.86c-1.34 1.16-.9 3.86.97 6.04 1.88 2.18 4.5 3.02 5.84 1.86Zm-57.2 17.95c.77-2.65.08-5.17-1.55-5.65-1.63-.47-3.57 1.29-4.34 3.93-.77 2.65-.07 5.17 1.56 5.64 1.62.47 3.56-1.28 4.33-3.93Zm-32.74-182.59c.76-2.6.07-5.1-1.53-5.56-1.6-.46-3.5 1.28-4.27 3.88-.75 2.6-.07 5.1 1.53 5.56 1.6.46 3.51-1.27 4.27-3.88Zm91.53 184.12c1.82-1.81.75-5.82-2.4-8.95-3.13-3.13-7.14-4.2-8.95-2.4-1.82 1.82-.75 5.83 2.39 8.96 3.13 3.13 7.15 4.2 8.96 2.39Zm-71.36 64.47c.76-5.8-1.23-10.82-4.45-11.24-3.22-.42-6.44 3.93-7.2 9.71-.76 5.79 1.24 10.82 4.46 11.24 3.22.42 6.44-3.93 7.2-9.72Zm7.83 37c.63-2.17-.13-4.3-1.7-4.75-1.58-.46-3.37.93-4 3.1-.63 2.16.13 4.3 1.7 4.75 1.58.46 3.37-.93 4-3.1Zm56.36-148.13c.59-1.56-.92-3.57-3.37-4.49-2.45-.92-4.91-.4-5.5 1.16-.59 1.57.92 3.58 3.37 4.5 2.45.92 4.91.4 5.5-1.17Zm-29.99 102.25c1.37-1.38.56-4.41-1.81-6.78-2.38-2.37-5.41-3.18-6.79-1.8-1.38 1.37-.56 4.4 1.8 6.77 2.38 2.37 5.42 3.18 6.8 1.8Z" fill="#fff"/><path d="M249.9 288.16c.6-1.6-.94-3.66-3.46-4.6-2.5-.95-5.03-.41-5.63 1.19-.6 1.6.94 3.66 3.45 4.6 2.51.95 5.04.41 5.64-1.19Zm1.22 93.16c1.31-1.3.54-4.2-1.73-6.45-2.26-2.26-5.15-3.03-6.46-1.73-1.3 1.3-.53 4.2 1.73 6.46 2.26 2.25 5.16 3.03 6.46 1.72Zm7.82 5.01c.6-1.57-.92-3.6-3.38-4.52-2.47-.93-4.94-.4-5.54 1.17-.59 1.57.93 3.6 3.4 4.52 2.46.93 4.93.4 5.53-1.17Zm-66.55-172.13c1.32-1.32.54-4.24-1.75-6.52-2.28-2.28-5.2-3.06-6.52-1.74-1.33 1.32-.54 4.24 1.74 6.52 2.28 2.28 5.2 3.06 6.53 1.74Zm7.75 4.97c.6-1.57-.92-3.58-3.37-4.5-2.45-.93-4.92-.4-5.5 1.16-.6 1.57.91 3.58 3.36 4.5 2.46.92 4.92.4 5.51-1.16Zm-100.58-153.05c1.27-1.27.52-4.07-1.67-6.26-2.19-2.18-5-2.93-6.26-1.66-1.27 1.26-.52 4.06 1.67 6.25 2.19 2.2 5 2.94 6.26 1.67Zm8.02 5.18c.6-1.6-.94-3.65-3.44-4.59s-5.02-.4-5.62 1.2c-.6 1.6.94 3.65 3.44 4.59s5.02.4 5.63-1.2Zm123.28 125.48c1.8-2.73 1.85-5.87.11-7.02-1.74-1.15-4.61.13-6.42 2.85-1.8 2.72-1.85 5.86-.1 7.01 1.73 1.15 4.6-.12 6.41-2.84Zm-24.8-1.28c1.16-4-.48-8-3.66-8.92-3.19-.92-6.7 1.57-7.87 5.57-1.16 4 .47 7.98 3.66 8.9 3.18.93 6.7-1.56 7.87-5.56Zm33.02 21.17c1.69-1.1 1.83-3.88.31-6.2-1.51-2.34-4.11-3.34-5.8-2.24-1.69 1.1-1.83 3.87-.31 6.2 1.51 2.33 4.11 3.33 5.8 2.24Zm63.88 31.26c3.84-.8 6.54-3.47 6.02-5.98-.52-2.5-4.06-3.89-7.91-3.1-3.85.8-6.54 3.49-6.02 6 .52 2.5 4.06 3.88 7.9 3.08Zm-229.58-223.91c1.42-1.09 1.04-3.94-.84-6.38-1.87-2.44-4.54-3.54-5.95-2.45-1.42 1.08-1.04 3.94.84 6.38 1.87 2.44 4.54 3.53 5.95 2.45Zm239.01 175.28c1.7-.63 2.77-2 2.38-3.04-.39-1.04-2.08-1.37-3.79-.74-1.7.63-2.77 2-2.38 3.03.39 1.05 2.09 1.38 3.79.75Zm1.23 24c.23-1.34-1.42-2.75-3.69-3.15-2.27-.39-4.3.38-4.53 1.72-.24 1.35 1.41 2.76 3.68 3.15 2.27.4 4.3-.37 4.54-1.72Zm-3.18-40.52c.25-1.9-2.34-3.81-5.77-4.26-3.44-.45-6.43.73-6.68 2.64-.25 1.9 2.33 3.82 5.77 4.27 3.44.44 6.43-.74 6.68-2.65Zm19.91-.39c.96-2.2.45-4.54-1.14-5.24-1.6-.7-3.66.52-4.63 2.72-.96 2.2-.45 4.54 1.14 5.23 1.6.7 3.66-.52 4.63-2.71Zm-27.01 37.62c.78-1.45-.44-3.61-2.72-4.82-2.28-1.22-4.75-1.02-5.53.43-.77 1.45.45 3.61 2.73 4.83 2.27 1.2 4.75 1.02 5.52-.44Zm-104.34-117.89c1-2.3.47-4.76-1.2-5.49-1.67-.73-3.84.55-4.85 2.85-1 2.3-.47 4.76 1.2 5.49 1.67.73 3.84-.55 4.85-2.85Zm9.8 10.02c2.56-1.23 3.27-5.11 1.57-8.67-1.7-3.55-5.17-5.43-7.74-4.2-2.58 1.23-3.28 5.1-1.58 8.66 1.7 3.55 5.17 5.43 7.74 4.2Zm-159.94-58.58c1.82-1.2 1.72-4.55-.22-7.5-1.94-2.96-4.98-4.38-6.8-3.2-1.82 1.2-1.72 4.55.22 7.5 1.94 2.96 4.99 4.39 6.8 3.2Zm207.41 165.25c.68-2.31-.13-4.59-1.8-5.07-1.69-.5-3.6.99-4.27 3.3-.68 2.32.13 4.6 1.81 5.08 1.68.5 3.59-.99 4.26-3.3Zm-5.31 9.39c1.38-.9 1.3-3.47-.18-5.73-1.48-2.26-3.8-3.35-5.2-2.44-1.38.91-1.3 3.48.18 5.73 1.48 2.26 3.8 3.35 5.2 2.44Zm-140.76 112.3c.67-2.31-.14-4.58-1.81-5.06-1.68-.49-3.58.99-4.25 3.3-.68 2.3.14 4.57 1.81 5.06 1.68.49 3.58-1 4.25-3.3Zm-5.1 9.72c1.4-.92 1.32-3.51-.17-5.79-1.5-2.28-3.85-3.38-5.25-2.46-1.4.91-1.32 3.5.17 5.78 1.5 2.28 3.85 3.38 5.25 2.47Zm222.08-208.78c1.47-3.34.99-6.78-1.06-7.68-2.06-.9-4.91 1.08-6.38 4.42-1.46 3.34-.98 6.78 1.07 7.68 2.06.9 4.9-1.08 6.37-4.42Zm-49.68-5.5c1.66-1.28 1.22-4.63-.99-7.5-2.2-2.86-5.34-4.15-7-2.88-1.66 1.28-1.22 4.63.98 7.5s5.34 4.16 7 2.88Zm28.76 32.81c.5-2.86-3-5.85-7.82-6.69-4.83-.84-9.14.8-9.64 3.65-.5 2.86 3.01 5.85 7.83 6.69 4.82.84 9.13-.8 9.63-3.65Zm-31.32-9.07c1.6-1.96.1-5.8-3.35-8.58-3.44-2.78-7.51-3.44-9.1-1.47-1.6 1.96-.1 5.8 3.35 8.58 3.44 2.78 7.51 3.44 9.1 1.47Zm14.76-35.84c.3-2.19-2.68-4.39-6.63-4.9-3.96-.52-7.4.84-7.68 3.03-.29 2.2 2.68 4.4 6.64 4.91 3.95.52 7.39-.84 7.68-3.04Zm-269.85-10.44c1.56-1.19 1.14-4.33-.92-7.01-2.07-2.69-5-3.9-6.56-2.7-1.55 1.2-1.14 4.34.93 7.02 2.06 2.68 5 3.89 6.55 2.7Zm13.03-11.7c.31-2.37-2.9-4.74-7.16-5.3-4.26-.55-7.97.91-8.27 3.28-.31 2.36 2.9 4.72 7.15 5.28 4.27.56 7.97-.9 8.28-3.27Zm283.47 37.65c1.83-4.19.86-8.66-2.18-10-3.04-1.32-7 1-8.83 5.19-1.84 4.19-.87 8.67 2.17 10 3.04 1.32 7-1 8.84-5.19Zm-34.22 26.8c.73-1.37-.42-3.4-2.56-4.55-2.15-1.15-4.49-.96-5.22.4-.73 1.38.42 3.42 2.56 4.56 2.15 1.15 4.49.96 5.22-.41Zm5.31 67.05c.73-1.37-.42-3.4-2.57-4.55-2.16-1.15-4.5-.97-5.23.4-.73 1.38.42 3.42 2.57 4.57 2.15 1.15 4.5.96 5.23-.41Zm33.37-65.18c2.18-2.51 2.64-5.67 1.04-7.06-1.61-1.4-4.68-.49-6.85 2.02-2.18 2.5-2.64 5.67-1.04 7.06 1.6 1.39 4.68.48 6.85-2.02Zm-14.44-13.29c2.19-1.04 2.79-4.34 1.34-7.36-1.44-3.01-4.39-4.61-6.57-3.57-2.19 1.05-2.79 4.34-1.34 7.36 1.44 3.02 4.39 4.61 6.57 3.57Zm-176.3 188.77c1.85-4.22.87-8.72-2.18-10.05-3.06-1.34-7.03 1-8.88 5.2-1.85 4.22-.87 8.71 2.19 10.05 3.05 1.33 7.02-1 8.87-5.2Zm-9.82 15.71c2.33-1.11 2.97-4.62 1.43-7.84-1.55-3.22-4.69-4.93-7.02-3.81-2.33 1.11-2.97 4.62-1.43 7.84 1.54 3.22 4.68 4.93 7.02 3.81Zm121.13-121.95c1.78-4.07.84-8.41-2.1-9.7-2.96-1.29-6.8.96-8.58 5.03-1.78 4.07-.83 8.41 2.11 9.7 2.95 1.29 6.79-.96 8.57-5.03Zm-9.68 15.71c2.3-1.1 2.92-4.55 1.4-7.7-1.5-3.17-4.6-4.84-6.88-3.75-2.3 1.1-2.92 4.55-1.4 7.7 1.5 3.17 4.6 4.84 6.88 3.75Zm-16.87-121.57c1.81-4.13.85-8.53-2.14-9.84-3-1.31-6.9.97-8.7 5.1-1.81 4.13-.85 8.53 2.14 9.84 3 1.31 6.9-.97 8.7-5.1Zm-9.95 15.27c2.14-1.01 2.72-4.22 1.31-7.16-1.4-2.95-4.28-4.5-6.4-3.49-2.14 1.02-2.72 4.23-1.31 7.17 1.4 2.94 4.27 4.5 6.4 3.48Zm27.15 12.06c1.85-4.2.87-8.7-2.19-10.04-3.05-1.34-7.02 1-8.87 5.2-1.85 4.22-.87 8.72 2.19 10.05 3.05 1.34 7.02-1 8.87-5.2Zm-10.03 15.27c2.14-1.02 2.73-4.26 1.3-7.22-1.41-2.97-4.3-4.54-6.45-3.51-2.15 1.02-2.74 4.26-1.32 7.22 1.42 2.97 4.31 4.54 6.46 3.52Zm-94.34-31.24c1.31-3 .62-6.19-1.55-7.14-2.17-.95-5 .71-6.31 3.7-1.31 3-.62 6.2 1.55 7.15 2.17.94 5-.71 6.31-3.7Zm21.34-46.2c1.3-2.99.6-6.19-1.56-7.14-2.17-.94-5 .71-6.3 3.7-1.32 3-.63 6.2 1.54 7.15 2.17.95 5-.71 6.31-3.7Zm131.65 52.36c2.7-.2 4.78-1.78 4.64-3.54-.13-1.76-2.42-3.02-5.12-2.82-2.7.2-4.78 1.8-4.65 3.55.14 1.75 2.43 3.02 5.13 2.81Zm-29.73-51.94c.62-2.14-.13-4.23-1.67-4.68-1.54-.45-3.3.91-3.93 3.05-.62 2.13.13 4.22 1.68 4.67 1.54.45 3.3-.91 3.92-3.04Z" fill="#fff"/><path d="M223.58 246.65c.61-1.64-.97-3.75-3.54-4.71-2.56-.96-5.15-.42-5.76 1.22-.62 1.64.96 3.75 3.53 4.71 2.57.97 5.15.42 5.77-1.22Zm-19.25-6.59c1.37-1.05 1-3.83-.82-6.2-1.83-2.38-4.43-3.45-5.8-2.4-1.37 1.06-1 3.84.82 6.21 1.83 2.38 4.43 3.45 5.8 2.39Zm.85 13.08c.84-1.58-.49-3.93-2.96-5.25-2.48-1.31-5.17-1.1-6.01.48-.84 1.57.48 3.92 2.96 5.24 2.47 1.32 5.16 1.1 6-.47Zm48.5 76.41c1.41-4.86-.58-9.7-4.45-10.83-3.88-1.13-8.16 1.9-9.57 6.76-1.42 4.86.58 9.71 4.45 10.84 3.87 1.12 8.16-1.9 9.57-6.77Zm10.69-7.81c.78-1.46-.45-3.64-2.75-4.87-2.3-1.22-4.8-1.02-5.58.44-.78 1.47.45 3.65 2.75 4.87 2.3 1.22 4.8 1.03 5.58-.44Zm-57.17-52.3c2.64-.2 4.67-1.75 4.54-3.46-.13-1.72-2.37-2.96-5-2.76-2.64.2-4.68 1.75-4.55 3.47.13 1.72 2.37 2.95 5 2.75Zm-15.55-183.92c1.21-1.21.5-3.9-1.6-6-2.1-2.09-4.79-2.8-6-1.59-1.21 1.21-.5 3.9 1.6 5.99 2.1 2.1 4.78 2.81 6 1.6Zm8.92 36.4c1.25-1.25.5-4-1.65-6.16-2.16-2.15-4.92-2.9-6.17-1.65s-.5 4 1.65 6.16c2.16 2.16 4.92 2.9 6.17 1.65Zm-27.6 124.78c3.54 0 6.41-1.59 6.41-3.55 0-1.96-2.87-3.55-6.4-3.55-3.54 0-6.41 1.59-6.41 3.55 0 1.96 2.87 3.55 6.4 3.55Zm20.69-154.93c.6-1.61-.95-3.69-3.48-4.63-2.52-.95-5.06-.41-5.67 1.2-.6 1.61.95 3.69 3.48 4.64 2.52.94 5.06.4 5.67-1.2Zm-10.39 32.97c3.92-.82 6.67-3.55 6.14-6.1-.53-2.56-4.14-3.97-8.06-3.15-3.93.81-6.67 3.54-6.14 6.1.53 2.55 4.14 3.96 8.06 3.15Zm87.63-31.95c1.76-4.03 1.19-8.18-1.3-9.26-2.47-1.08-5.91 1.3-7.68 5.33-1.76 4.03-1.19 8.17 1.3 9.26 2.47 1.08 5.91-1.3 7.68-5.33Zm-61.52-6.44c1.33-1.01.97-3.7-.79-5.98-1.76-2.29-4.26-3.32-5.59-2.3-1.32 1.01-.97 3.7.8 5.98 1.76 2.29 4.26 3.32 5.58 2.3Zm-103.8 61.22c1.68-.62 2.73-1.96 2.35-3-.39-1.03-2.06-1.36-3.75-.74-1.68.63-2.73 1.97-2.34 3 .38 1.04 2.06 1.37 3.74.74Zm132.61-61.75c.26-2.05-2.51-4.1-6.2-4.58-3.69-.48-6.9.79-7.16 2.83-.27 2.05 2.5 4.1 6.2 4.58 3.68.48 6.89-.79 7.16-2.83Z" fill="#fff"/><path d="M243.79 84.64c.93-2.14.44-4.41-1.11-5.1-1.55-.67-3.56.51-4.5 2.64-.93 2.14-.44 4.41 1.11 5.1 1.55.67 3.56-.51 4.5-2.64Zm-20.06 37.5c.8-1.5-.45-3.72-2.8-4.97-2.35-1.25-4.9-1.05-5.7.45-.8 1.5.46 3.72 2.8 4.97 2.35 1.25 4.9 1.05 5.7-.45Zm-101.54-68.48c.84-1.57-.48-3.91-2.94-5.22-2.46-1.31-5.14-1.1-5.98.47-.83 1.57.48 3.9 2.94 5.22 2.47 1.3 5.14 1.1 5.98-.47Zm137.94 68.07c2.43-2.8 2.95-6.33 1.15-7.88-1.79-1.55-5.21-.54-7.64 2.25-2.43 2.8-2.95 6.33-1.15 7.88 1.79 1.55 5.21.55 7.64-2.25Zm14.71-13.13c1.1-2.5.37-5.22-1.62-6.1-1.99-.86-4.5.46-5.59 2.95-1.1 2.5-.37 5.24 1.62 6.1 2 .88 4.5-.44 5.59-2.94Zm-54.81-6.53c5.25-.4 9.3-3.49 9.05-6.9-.26-3.43-4.73-5.88-9.98-5.49-5.25.4-9.3 3.48-9.05 6.9.26 3.42 4.73 5.88 9.98 5.49Zm5.08-27.65c.2-1.2-1.26-2.45-3.27-2.8-2.02-.35-3.82.34-4.03 1.53-.2 1.2 1.26 2.45 3.27 2.8 2.02.35 3.82-.33 4.03-1.53Zm-17.89.07c.8-1.51-.46-3.75-2.82-5-2.36-1.27-4.93-1.07-5.73.44-.8 1.5.46 3.75 2.82 5 2.36 1.26 4.93 1.06 5.73-.44Zm29.08-5.28c2.14-2.46 2.6-5.56 1.02-6.92-1.58-1.37-4.58-.48-6.72 1.98-2.14 2.46-2.6 5.56-1.02 6.93 1.58 1.36 4.58.47 6.72-1.99Zm25.83 79.44c1-2.28.33-4.76-1.48-5.55-1.8-.8-4.08.4-5.08 2.68-1 2.27-.34 4.76 1.47 5.55 1.81.8 4.09-.41 5.08-2.68Zm-37.72-78.72c2.46-1.17 3.13-4.87 1.51-8.25-1.62-3.39-4.93-5.18-7.38-4.01s-3.13 4.87-1.5 8.26c1.62 3.38 4.92 5.18 7.37 4Zm-88.78 202.61c.94-2.14.44-4.44-1.12-5.12-1.55-.68-3.58.5-4.52 2.65-.94 2.15-.44 4.44 1.12 5.13 1.56.68 3.58-.5 4.52-2.66Zm-23.24-16.58c.22-1.27-1.33-2.6-3.47-2.97-2.15-.37-4.06.35-4.28 1.62-.22 1.27 1.33 2.6 3.47 2.97 2.14.37 4.06-.35 4.28-1.62Zm10.96-5.23c2.14-2.46 2.6-5.57 1.02-6.93-1.58-1.37-4.6-.48-6.73 1.98-2.14 2.47-2.6 5.57-1.02 6.94 1.58 1.36 4.6.47 6.73-1.99Zm-11.77.98c2.56-1.22 3.26-5.07 1.56-8.6-1.69-3.53-5.13-5.4-7.68-4.18-2.56 1.22-3.26 5.07-1.57 8.6 1.7 3.53 5.13 5.4 7.69 4.18Zm-4.31-138.63c.7-2.65-1.72-5.58-5.4-6.54-3.67-.96-7.2.42-7.9 3.07-.7 2.66 1.72 5.59 5.4 6.55 3.67.95 7.2-.42 7.9-3.08Zm60.91 32.36c.22-1.27-1.33-2.6-3.47-2.97-2.15-.37-4.06.35-4.28 1.62-.22 1.27 1.33 2.6 3.47 2.97 2.14.37 4.06-.35 4.28-1.62Zm-10.97 4.15c2.25-2.59 2.72-5.84 1.07-7.27-1.65-1.43-4.81-.5-7.05 2.08-2.24 2.59-2.72 5.84-1.07 7.27 1.65 1.43 4.81.5 7.05-2.08Zm-11.14 1.51c2.6-1.24 3.32-5.16 1.6-8.75-1.72-3.6-5.23-5.5-7.83-4.26-2.6 1.24-3.32 5.17-1.6 8.76 1.72 3.6 5.23 5.5 7.83 4.26Zm3.03-31.13c2.57-1.23 3.27-5.1 1.58-8.65-1.7-3.54-5.16-5.42-7.73-4.2-2.57 1.23-3.28 5.1-1.58 8.65 1.7 3.55 5.16 5.43 7.73 4.2Zm43.09-68.43c2.84-.21 5.03-1.89 4.9-3.74-.14-1.85-2.56-3.18-5.4-2.97-2.85.21-5.04 1.89-4.9 3.74.14 1.85 2.55 3.18 5.4 2.97Zm-137.4 154.9c0-1.8-2.36-3.26-5.28-3.27-2.93-.02-5.3 1.43-5.31 3.22-.01 1.8 2.35 3.27 5.28 3.28 2.92.01 5.3-1.43 5.3-3.23Zm43.08-19.89c1.58-1.02 1.52-3.93-.14-6.5-1.66-2.57-4.29-3.83-5.87-2.81-1.59 1.02-1.52 3.93.14 6.5 1.66 2.57 4.29 3.83 5.87 2.81Zm24.28-4.1c4.19-.3 7.44-2.5 7.27-4.9-.16-2.43-3.7-4.15-7.88-3.86-4.19.3-7.44 2.5-7.27 4.9.17 2.43 3.7 4.15 7.88 3.86Zm41.24-68.79c1.46-.94 1.59-3.32.3-5.33-1.3-2-3.53-2.87-4.99-1.93-1.45.94-1.58 3.32-.29 5.33 1.3 2 3.52 2.87 4.98 1.93Zm-75.97 57.28c2.27-1.22 3.47-3.38 2.69-4.83-.78-1.45-3.26-1.63-5.53-.4-2.26 1.22-3.47 3.38-2.68 4.83.78 1.45 3.25 1.63 5.52.4Zm-14.62 64.87c1.75-1.12 2.02-3.8.6-6-1.4-2.19-3.97-3.05-5.71-1.93-1.75 1.12-2.02 3.8-.6 6 1.4 2.19 3.97 3.05 5.71 1.93Zm64.41 13.86c1.48-.95 1.42-3.68-.13-6.09-1.55-2.41-4.01-3.6-5.5-2.65-1.47.96-1.42 3.68.14 6.1 1.55 2.4 4 3.59 5.49 2.64Zm49.67-11.18c2.52-2.9 3.25-6.36 1.65-7.76-1.6-1.39-4.95-.18-7.46 2.71-2.52 2.89-3.25 6.36-1.65 7.75 1.6 1.4 4.95.19 7.46-2.7Zm-50.58-24.53c.89-3.79-.09-7.25-2.18-7.74-2.09-.48-4.5 2.19-5.38 5.97-.89 3.78.09 7.25 2.18 7.73 2.09.49 4.5-2.18 5.38-5.96Zm28.77-125.93c2.8-1.79 3.05-6.36.57-10.2-2.47-3.84-6.74-5.5-9.52-3.72-2.8 1.8-3.05 6.36-.57 10.2 2.47 3.85 6.74 5.51 9.52 3.72Zm-43.62 141.04c2.07-.58 3.02-3.66 2.12-6.9-.9-3.23-3.3-5.39-5.38-4.81-2.07.57-3.02 3.66-2.12 6.9.9 3.23 3.31 5.38 5.38 4.8Zm12.75-3.53c.26-1.78-1.54-3.5-4-3.85-2.47-.34-4.67.82-4.92 2.6-.25 1.79 1.55 3.51 4.01 3.86 2.47.34 4.67-.82 4.92-2.6Zm31.83-129.99c.28-2-1.72-3.92-4.47-4.3-2.75-.39-5.21.91-5.49 2.9-.28 1.99 1.72 3.91 4.48 4.3 2.75.38 5.2-.92 5.48-2.9Zm15.16-45.48c.28-2.01-1.75-3.96-4.53-4.35-2.78-.39-5.27.92-5.55 2.94-.28 2 1.74 3.95 4.53 4.34 2.78.4 5.26-.92 5.55-2.93Zm-109.09 210.77c2.18-1.4 2.1-5.4-.19-8.95-2.28-3.54-5.9-5.28-8.07-3.89-2.18 1.4-2.1 5.41.18 8.95 2.29 3.55 5.9 5.29 8.08 3.9Zm79.53-87.62c.1-1.71-2.22-3.24-5.17-3.42-2.96-.18-5.44 1.06-5.55 2.77-.1 1.7 2.21 3.24 5.17 3.42 2.96.17 5.44-1.06 5.55-2.77Zm27.15-11.86c.97-2.56.57-5.07-.88-5.61-1.44-.55-3.4 1.09-4.36 3.64-.97 2.56-.57 5.08.88 5.62s3.4-1.09 4.36-3.65Zm-114.51-56.1c1.07-3.2-.96-6.75-4.54-7.94-3.57-1.2-7.33.43-8.4 3.63-1.07 3.2.96 6.76 4.53 7.95 3.58 1.2 7.34-.44 8.4-3.64Zm106 57.31c2.93-2.6 4.13-6.01 2.7-7.63-1.45-1.63-4.99-.84-7.92 1.75-2.93 2.59-4.13 6-2.7 7.63 1.45 1.63 4.99.84 7.92-1.75Zm-76.06 33.18c2.96-2.62 4.18-6.07 2.73-7.71-1.46-1.64-5.04-.85-8 1.77s-4.18 6.07-2.73 7.71c1.46 1.65 5.04.85 8-1.77Zm83.78-53.73c1.55-.74 2-3.08.97-5.22-1.02-2.15-3.1-3.3-4.66-2.56-1.56.74-2 3.08-.98 5.23 1.02 2.15 3.1 3.29 4.67 2.55Zm-8.16 38.2c1.73-2.32 1.9-5.12.4-6.25-1.52-1.13-4.16-.16-5.89 2.16-1.73 2.32-1.9 5.11-.4 6.24 1.52 1.13 4.16.16 5.89-2.16Zm3.77-56.49c.24-1.74-1.87-3.46-4.7-3.85-2.85-.38-5.34.72-5.58 2.46-.24 1.74 1.87 3.47 4.71 3.85 2.85.39 5.34-.71 5.58-2.45Zm7.4-17.23c.24-1.83-1.97-3.64-4.95-4.05-2.98-.4-5.6.75-5.85 2.58-.24 1.83 1.97 3.63 4.95 4.04 2.98.4 5.6-.75 5.84-2.58Zm6.38 176.27c3.78-.79 6.44-3.43 5.93-5.9-.52-2.47-4-3.84-7.8-3.05-3.79.78-6.44 3.43-5.93 5.9.52 2.47 4 3.83 7.8 3.05Zm26.84-59.91c4.12-.84 7.02-3.7 6.47-6.4-.55-2.68-4.34-4.18-8.46-3.34-4.13.84-7.03 3.7-6.48 6.4.55 2.68 4.34 4.18 8.47 3.34Zm8.76-12.94c.23-1.67-1.8-3.33-4.52-3.7-2.72-.37-5.11.69-5.34 2.36-.23 1.68 1.8 3.33 4.52 3.7 2.72.37 5.11-.69 5.34-2.36Zm-119.12 74.95c3.93-.81 6.69-3.55 6.16-6.12-.54-2.56-4.16-3.97-8.1-3.16-3.92.82-6.68 3.56-6.15 6.12.54 2.56 4.16 3.98 8.09 3.16Zm-9.16-2.97c.24-1.71-1.84-3.42-4.65-3.8-2.8-.38-5.27.7-5.5 2.43-.24 1.72 1.84 3.43 4.65 3.8 2.8.39 5.27-.7 5.5-2.42Zm134.95 122.9c.77-2.03-1.13-4.63-4.25-5.81-3.13-1.18-6.28-.49-7.05 1.54-.77 2.04 1.13 4.64 4.25 5.82 3.13 1.18 6.28.49 7.05-1.54Zm-11.55-4.73c.91-1.08.23-3.16-1.54-4.65-1.76-1.49-3.93-1.81-4.85-.73-.91 1.08-.23 3.17 1.53 4.65 1.77 1.5 3.94 1.82 4.86.74Zm-115.77-251.33c.11-1.81-2.33-3.43-5.46-3.62-3.13-.19-5.75 1.12-5.86 2.93-.11 1.8 2.33 3.43 5.46 3.62 3.13.19 5.75-1.13 5.86-2.93Zm2.17-16.51c2.72-2.4 3.84-5.58 2.5-7.1-1.33-1.5-4.63-.77-7.35 1.64-2.72 2.4-3.84 5.58-2.5 7.09 1.34 1.5 4.63.78 7.35-1.63Zm31.01 42.61c2.31-.88 3.73-2.8 3.16-4.27-.56-1.48-2.9-1.96-5.2-1.07-2.31.88-3.73 2.8-3.16 4.27.56 1.47 2.9 1.95 5.2 1.07Zm22.53-34.8c2.23-.31 3.64-3.4 3.15-6.88-.5-3.48-2.7-6.05-4.94-5.73-2.23.31-3.64 3.4-3.14 6.88s2.7 6.05 4.93 5.73Zm17.29 183.32c.2-1.17-1.23-2.4-3.2-2.74-1.98-.34-3.74.33-3.94 1.5-.2 1.17 1.23 2.4 3.2 2.74 1.97.34 3.74-.33 3.94-1.5Zm-10.59 4.26c2.29-2.64 2.78-5.97 1.09-7.43-1.7-1.46-4.92-.51-7.22 2.13-2.3 2.64-2.78 5.97-1.09 7.43 1.7 1.47 4.92.51 7.22-2.13Zm.73-9.64c2.2-.31 3.6-3.37 3.12-6.82-.5-3.46-2.69-6-4.9-5.69-2.2.31-3.6 3.37-3.12 6.82.5 3.45 2.68 6 4.9 5.69Zm82.66-197.69c.22-1.26-1.33-2.58-3.46-2.95-2.13-.37-4.03.35-4.25 1.6-.22 1.27 1.33 2.6 3.46 2.96 2.13.37 4.03-.35 4.25-1.61Zm-10.81 4.27c2.34-2.7 2.84-6.1 1.11-7.59-1.73-1.5-5.02-.52-7.36 2.17-2.34 2.7-2.83 6.1-1.1 7.59 1.72 1.49 5.01.52 7.35-2.17Zm.69-9.69c2.22-.31 3.62-3.38 3.13-6.84-.49-3.47-2.69-6.02-4.9-5.7-2.23.3-3.63 3.37-3.14 6.84.5 3.46 2.7 6.02 4.91 5.7Zm-42.62 225.22c2.17-2.5 2.63-5.65 1.03-7.04-1.6-1.39-4.66-.48-6.83 2.02s-2.63 5.65-1.03 7.04c1.6 1.38 4.65.48 6.83-2.02Zm-11.25 1.19c2.44-1.17 3.11-4.84 1.5-8.21-1.62-3.37-4.9-5.16-7.34-4-2.44 1.18-3.11 4.85-1.5 8.22 1.61 3.37 4.9 5.15 7.34 3.99Zm19.77 8.24c2.78-2.46 3.92-5.7 2.56-7.24-1.37-1.54-4.73-.8-7.5 1.66-2.79 2.46-3.93 5.7-2.57 7.24 1.37 1.54 4.73.8 7.51-1.66Zm-7.61-18.82c2.25-.31 3.67-3.43 3.18-6.95-.5-3.52-2.74-6.12-5-5.8-2.24.32-3.67 3.43-3.17 6.95.5 3.53 2.73 6.12 4.99 5.8Zm-57.93-199.27c.72-2.6-1.62-5.5-5.21-6.5-3.6-.98-7.09.32-7.8 2.92-.72 2.6 1.6 5.5 5.2 6.5 3.6.98 7.09-.32 7.8-2.92Zm-18.87 22.17c1.52-2.03 1.67-4.47.34-5.46-1.32-.99-3.63-.14-5.15 1.89-1.51 2.03-1.66 4.47-.34 5.46 1.33.99 3.64.14 5.15-1.89Zm-85.76-72.62c0-1.72-2.26-3.13-5.06-3.14-2.8-.01-5.08 1.37-5.09 3.09 0 1.72 2.26 3.12 5.06 3.14 2.8 0 5.08-1.37 5.09-3.1Zm17.53 15.52c1.33-.85 1.28-3.3-.11-5.46-1.4-2.16-3.6-3.22-4.93-2.36-1.33.85-1.28 3.3.11 5.46 1.4 2.16 3.6 3.22 4.93 2.36Zm42.7-51.75c3.03-.2 5.38-1.8 5.25-3.54-.12-1.75-2.67-2.99-5.69-2.78-3.02.21-5.37 1.8-5.25 3.54.12 1.75 2.67 3 5.7 2.78Zm-15.02 16.22c.85-3.66-.1-7-2.1-7.48-2.03-.47-4.36 2.12-5.21 5.78-.86 3.66.08 7 2.1 7.48 2.02.47 4.35-2.12 5.2-5.78Zm-27.32 16.98c2.5-2.63 3.24-5.95 1.68-7.43-1.56-1.47-4.84-.54-7.33 2.08-2.49 2.63-3.24 5.95-1.68 7.43 1.56 1.47 4.84.54 7.33-2.08Zm28.56-.95c.46-2.36-1.31-4.7-3.96-5.21-2.64-.51-5.16.99-5.62 3.35-.46 2.37 1.31 4.7 3.96 5.21 2.64.52 5.16-.98 5.62-3.35Zm10.86-19.94c2.52-2.89 3.25-6.36 1.65-7.75-1.6-1.4-4.95-.18-7.46 2.7-2.51 2.9-3.25 6.37-1.65 7.76 1.6 1.4 4.95.18 7.46-2.7Z" fill="#fff"/><path d="M72.2 85.57c1.46-.93 1.59-3.31.3-5.31-1.3-2-3.51-2.86-4.96-1.93-1.45.93-1.58 3.31-.3 5.3 1.3 2 3.52 2.87 4.97 1.94Zm-2.06 66.05c1.37-.89 1.5-3.14.27-5.03-1.22-1.89-3.32-2.7-4.7-1.82-1.37.88-1.49 3.13-.27 5.02 1.22 1.9 3.33 2.71 4.7 1.83Zm100.33-82.97c2.39-1.29 3.66-3.57 2.83-5.1-.82-1.52-3.43-1.71-5.82-.42-2.4 1.29-3.66 3.57-2.83 5.1.82 1.52 3.43 1.71 5.82.42Zm-131.58 1.9c2.25-.63 3.29-3.99 2.31-7.5-.98-3.52-3.6-5.86-5.85-5.24-2.25.63-3.29 3.98-2.31 7.5s3.6 5.86 5.85 5.24Zm26.23-1.27c.4-2.9-2.52-5.7-6.52-6.26-4-.56-7.58 1.33-7.99 4.23-.4 2.89 2.51 5.69 6.52 6.25 4 .56 7.58-1.33 7.99-4.22Zm21.78-31.93c2.37-4.22 2.05-8.9-.71-10.45-2.76-1.54-6.92.63-9.3 4.86-2.37 4.22-2.05 8.9.71 10.45 2.76 1.54 6.92-.63 9.3-4.86Zm170.7 157.7c1.95-1.5 2.66-3.87 1.57-5.28-1.09-1.42-3.56-1.35-5.51.15-1.96 1.5-2.66 3.87-1.57 5.28 1.09 1.42 3.55 1.35 5.5-.15Zm-8.3 6.88c2.37-2.36 3.12-5.45 1.66-6.9-1.45-1.45-4.54-.71-6.9 1.65-2.38 2.36-3.12 5.45-1.67 6.9 1.46 1.45 4.55.71 6.92-1.65Zm-103.56-135.87c3.22-.23 5.73-1.92 5.6-3.78-.13-1.86-2.85-3.19-6.07-2.96-3.23.22-5.73 1.92-5.6 3.78.13 1.86 2.85 3.18 6.07 2.96Zm-23.1 13.4c.86-3.68-.27-7.09-2.53-7.61-2.27-.53-4.8 2.02-5.66 5.7-.86 3.68.28 7.09 2.54 7.62 2.26.52 4.8-2.03 5.65-5.7Zm17.38 2.72c3.56-4.1 4.6-9.02 2.33-11-2.28-1.98-7.02-.27-10.6 3.83-3.56 4.1-4.6 9.03-2.32 11 2.28 1.99 7.02.27 10.59-3.83Zm-43.64 187.57c2.15-1.38 2.07-5.35-.19-8.85-2.25-3.5-5.83-5.23-7.99-3.84-2.15 1.38-2.07 5.34.19 8.85 2.25 3.5 5.83 5.23 7.99 3.84Zm13.89-213.54c2.35-1.27 3.6-3.5 2.79-5s-3.37-1.7-5.72-.42c-2.35 1.26-3.6 3.5-2.79 5s3.38 1.7 5.72.42Zm-17.32 30.68c2.27-.64 3.32-4.03 2.33-7.58-1-3.56-3.64-5.93-5.91-5.3-2.28.64-3.32 4.03-2.33 7.58.98 3.56 3.63 5.93 5.9 5.3Zm71.93 211.09c.83-1.55-.47-3.86-2.9-5.15-2.44-1.3-5.09-1.1-5.91.46-.83 1.55.47 3.86 2.9 5.15 2.44 1.3 5.09 1.1 5.91-.46Zm3.42-16.52c.47-2.43-1.35-4.83-4.07-5.36-2.71-.52-5.3 1.02-5.77 3.45-.47 2.43 1.35 4.82 4.06 5.35 2.72.53 5.3-1.01 5.78-3.44Z" fill="#fff"/><path d="M160.14 289.93c1.42-.92 1.54-3.23.28-5.19-1.25-1.94-3.42-2.79-4.84-1.88-1.41.91-1.54 3.23-.28 5.18 1.26 1.95 3.43 2.8 4.84 1.88Zm-68.41-180.03c1.53-.97 1.76-3.33.53-5.24-1.24-1.92-3.48-2.68-5.01-1.7-1.53.99-1.76 3.34-.53 5.26 1.24 1.92 3.48 2.67 5.01 1.69Zm52.44 197.48c3.56-1.38 5.63-4.57 4.64-7.14-1-2.56-4.68-3.53-8.24-2.16-3.56 1.37-5.63 4.57-4.64 7.13 1 2.57 4.68 3.54 8.24 2.17Zm-9.68-.53c.7-1.78-.55-3.93-2.78-4.8-2.24-.88-4.62-.15-5.32 1.63-.7 1.77.55 3.92 2.79 4.8 2.23.87 4.61.14 5.3-1.63Zm-24.61-218.43c.25-1.79-1.56-3.52-4.04-3.87-2.48-.35-4.7.82-4.94 2.62-.26 1.8 1.55 3.53 4.03 3.87 2.48.35 4.7-.82 4.95-2.62Zm17.79-25.71c1.3-2.33 1.14-4.92-.39-5.77-1.53-.85-3.82.35-5.13 2.68s-1.14 4.92.39 5.77c1.52.85 3.82-.35 5.13-2.68Zm16.58-8.47c.15-2.48-3.21-4.7-7.5-4.97-4.3-.26-7.91 1.55-8.06 4.03-.16 2.49 3.2 4.71 7.5 4.97 4.3.26 7.91-1.54 8.06-4.03Zm10.03-9.41c5.62-.99 9.71-4.4 9.15-7.6-.57-3.2-5.59-4.99-11.2-4-5.62 1-9.71 4.4-9.14 7.6.56 3.2 5.58 5 11.2 4Zm-45.73 173.62c2.98-.21 5.3-1.78 5.18-3.5-.12-1.72-2.64-2.95-5.62-2.74-2.97.2-5.3 1.77-5.17 3.5.12 1.72 2.63 2.94 5.61 2.74Zm-3.94 14.72c3.94-4.52 5.1-9.95 2.58-12.14-2.51-2.18-7.74-.28-11.68 4.24-3.94 4.52-5.09 9.96-2.58 12.14 2.52 2.18 7.75.29 11.68-4.24Zm2.43-26.29c.15-2.47-3.2-4.69-7.48-4.94-4.28-.26-7.87 1.53-8.02 4-.15 2.48 3.2 4.7 7.48 4.96 4.28.25 7.87-1.54 8.02-4.02Zm10.08-9.38c5.63-1 9.73-4.41 9.16-7.63-.57-3.21-5.6-5-11.22-4.01-5.64 1-9.74 4.4-9.17 7.62.57 3.21 5.6 5.01 11.23 4.02Zm41.92-142.24c2.75-1.05 4.43-3.31 3.76-5.06-.67-1.75-3.44-2.32-6.18-1.27-2.75 1.05-4.43 3.31-3.76 5.06.67 1.75 3.44 2.32 6.18 1.27Zm-25.38 44.94c.83-2.82.09-5.53-1.65-6.04-1.74-.5-3.82 1.38-4.65 4.2-.83 2.84-.09 5.55 1.65 6.05 1.75.5 3.83-1.37 4.65-4.2Zm-91.59-56.98c1.86-1.22 1.75-4.65-.23-7.68-1.99-3.02-5.1-4.48-6.96-3.26-1.86 1.21-1.76 4.65.23 7.67 1.98 3.03 5.1 4.49 6.96 3.27Zm-8.57-33.12c1.16-2.65.78-5.37-.85-6.08-1.63-.72-3.9.85-5.05 3.5-1.16 2.65-.78 5.37.85 6.09 1.63.7 3.89-.86 5.05-3.5Zm-9.49 33.7c2.26-2.6 2.74-5.89 1.07-7.33-1.66-1.45-4.85-.5-7.1 2.1-2.27 2.6-2.75 5.88-1.08 7.32 1.67 1.45 4.85.5 7.11-2.1Zm24.29-24.24c1.91-4.35 1.1-8.91-1.82-10.19-2.92-1.27-6.83 1.22-8.74 5.57-1.9 4.36-1.09 8.92 1.83 10.2 2.91 1.27 6.83-1.22 8.74-5.58Zm121.25 168.29c.65-2.26-.27-4.51-2.07-5.04-1.8-.52-3.8.89-4.46 3.15-.65 2.26.27 4.52 2.07 5.04 1.8.53 3.8-.88 4.46-3.15Z" fill="#fff"/><path d="M173.72 200.92c1.9-4.33 1.08-8.88-1.82-10.15-2.9-1.27-6.8 1.22-8.7 5.55-1.9 4.34-1.1 8.88 1.81 10.15 2.91 1.27 6.8-1.21 8.7-5.55Zm-153.95-175.38c1.6-.76 2.04-3.16.98-5.36-1.05-2.2-3.2-3.37-4.8-2.6-1.59.75-2.03 3.15-.97 5.36 1.05 2.2 3.2 3.36 4.8 2.6Zm103.12 81.47c2.4-.91 3.87-2.9 3.28-4.43-.58-1.53-3-2.02-5.4-1.1-2.4.91-3.88 2.9-3.29 4.42.59 1.53 3 2.03 5.4 1.11Zm-13.21-71.06c1.69-2.26 1.86-4.98.38-6.08-1.47-1.1-4.04-.16-5.72 2.1-1.7 2.26-1.86 4.98-.39 6.08 1.48 1.1 4.04.16 5.73-2.1Zm-61.38 151.38c3.33-.24 5.93-1.99 5.8-3.92-.14-1.92-2.95-3.3-6.3-3.06-3.33.23-5.93 1.98-5.8 3.9.14 1.94 2.96 3.3 6.3 3.08Zm-8.1 26.98c2.71-3.1 3.5-6.84 1.78-8.34-1.73-1.5-5.32-.2-8.03 2.91-2.7 3.1-3.5 6.84-1.77 8.34s5.32.2 8.03-2.9Zm-6.82-33.42c2.26-1.22 3.45-3.38 2.67-4.82-.78-1.44-3.24-1.62-5.5-.4-2.25 1.22-3.45 3.37-2.67 4.81.78 1.44 3.24 1.63 5.5.4Zm-.47 14.99c1.4-2.5 1.21-5.25-.41-6.16-1.63-.91-4.08.37-5.48 2.86-1.4 2.5-1.21 5.25.41 6.16 1.63.91 4.08-.37 5.48-2.86Zm39.59-71.36c1.74-.82 2.06-3.78.72-6.6s-3.83-4.44-5.56-3.62c-1.74.82-2.06 3.77-.72 6.6 1.34 2.81 3.83 4.44 5.56 3.62Zm-34.25 46.33c.1-1.72-2.23-3.26-5.21-3.44-2.98-.18-5.48 1.07-5.59 2.8-.1 1.72 2.23 3.26 5.21 3.44 2.98.18 5.49-1.07 5.59-2.8Zm30.08-.43c3.67-2.98 5.21-7.16 3.44-9.34-1.78-2.19-6.2-1.54-9.87 1.45-3.67 2.98-5.21 7.17-3.44 9.35 1.78 2.18 6.2 1.53 9.87-1.46Zm8.87-37.24c.84-2.55-1.64-5.68-5.55-6.98-3.91-1.3-7.78-.3-8.63 2.26-.85 2.55 1.63 5.67 5.54 6.98 3.91 1.3 7.78.3 8.63-2.26Zm-13.98-98.51c1.67-.79 1.98-3.63.7-6.35-1.3-2.71-3.7-4.28-5.37-3.49-1.67.8-1.98 3.64-.69 6.35 1.29 2.72 3.69 4.28 5.36 3.5Zm4.48 8.76c.81-2.45-1.56-5.45-5.32-6.7-3.75-1.25-7.45-.28-8.27 2.17-.82 2.44 1.56 5.44 5.31 6.69 3.76 1.25 7.46.28 8.28-2.16Zm-28.98 104.4c2.68-2.38 3.79-5.51 2.47-7-1.32-1.49-4.57-.77-7.26 1.61-2.68 2.38-3.79 5.51-2.47 7 1.32 1.49 4.57.77 7.26-1.6Zm14.74-10.51c3.13-1.48 4-6.17 1.96-10.48-2.04-4.3-6.23-6.6-9.35-5.12-3.13 1.47-4 6.17-1.96 10.47 2.04 4.31 6.23 6.6 9.35 5.13Zm1.18 41.52c2.85-1.09 4.6-3.44 3.9-5.26-.7-1.82-3.57-2.4-6.43-1.32-2.85 1.1-4.6 3.45-3.9 5.27.7 1.81 3.58 2.4 6.43 1.31Zm25.28-27.3c2.2-.31 3.58-3.34 3.1-6.77-.5-3.43-2.67-5.95-4.86-5.64-2.2.3-3.59 3.34-3.1 6.77.48 3.42 2.66 5.95 4.86 5.64Zm12.12-19.8c3.24-1.53 4.3-6.07 2.37-10.13-1.92-4.06-6.11-6.12-9.35-4.59-3.23 1.53-4.3 6.07-2.37 10.13 1.93 4.07 6.12 6.12 9.35 4.6Zm58.49 190.62c1.7-.8 2.03-3.72.7-6.5-1.31-2.78-3.76-4.37-5.47-3.57-1.71.81-2.03 3.72-.71 6.5 1.32 2.78 3.77 4.38 5.48 3.57Zm4.68 8.72c.85-2.53-1.61-5.63-5.5-6.93-3.87-1.29-7.7-.29-8.55 2.24-.85 2.53 1.61 5.63 5.5 6.93 3.87 1.29 7.7.29 8.55-2.24Zm30.04-13.33c3.2-1.51 4.25-5.99 2.34-10-1.9-4-6.03-6.03-9.22-4.52-3.2 1.51-4.25 5.99-2.34 10 1.9 4 6.03 6.03 9.22 4.52Z" fill="#fff"/><path d="M46.98 155.83c2.86-3.84 3.16-8.46.65-10.33-2.5-1.87-6.86-.27-9.73 3.57-2.86 3.84-3.15 8.46-.65 10.33 2.5 1.86 6.86.26 9.73-3.57Zm2.2-47.56c.23-1.71-1.84-3.4-4.63-3.78-2.79-.38-5.24.7-5.47 2.4-.23 1.72 1.84 3.41 4.63 3.8 2.79.37 5.23-.71 5.47-2.42Zm-26.96 96.85c3.06-2.7 4.31-6.28 2.81-7.97-1.5-1.7-5.2-.88-8.26 1.82-3.06 2.7-4.31 6.27-2.8 7.97 1.5 1.7 5.2.88 8.25-1.82Zm9.98-74.49c2.2-.31 3.58-3.34 3.1-6.76-.5-3.42-2.66-5.95-4.85-5.64-2.2.31-3.57 3.34-3.09 6.76.49 3.42 2.66 5.95 4.84 5.64Zm4.52-30.92c1.68-.8 2.23-3.15 1.23-5.26s-3.18-3.18-4.86-2.38c-1.68.8-2.23 3.15-1.23 5.26 1 2.1 3.17 3.17 4.86 2.38Zm69.78 74.87c3.43-1.62 4.55-6.4 2.52-10.7-2.04-4.28-6.46-6.44-9.87-4.83-3.42 1.62-4.55 6.4-2.51 10.7 2.03 4.28 6.45 6.45 9.87 4.83Zm48.73 73.94c4.33-.3 7.7-2.58 7.52-5.08-.17-2.5-3.83-4.29-8.16-3.98-4.33.3-7.7 2.57-7.52 5.08.17 2.5 3.83 4.28 8.16 3.98Zm-9.35-5.02c1.27-2.24 1.1-4.73-.37-5.55-1.47-.82-3.68.34-4.94 2.58-1.26 2.25-1.1 4.74.37 5.56 1.47.83 3.68-.33 4.94-2.58Zm175.04-42.32c2.93-.2 5.2-1.74 5.08-3.43-.11-1.7-2.58-2.9-5.5-2.7-2.93.21-5.2 1.75-5.1 3.44.13 1.69 2.6 2.9 5.52 2.7Zm-182.7-38.53c1.76-.5 2.94-1.77 2.63-2.85-.3-1.08-1.98-1.55-3.74-1.05-1.76.5-2.94 1.77-2.63 2.85.3 1.08 1.98 1.55 3.74 1.05Zm-4.28-3.37c.02-1.66-2.3-3.03-5.16-3.06-2.87-.03-5.2 1.3-5.22 2.95-.02 1.66 2.29 3.02 5.16 3.06 2.86.03 5.2-1.3 5.22-2.95Zm54.26-93.18c1.82-.88 2.33-3.61 1.13-6.11-1.2-2.5-3.65-3.83-5.47-2.96-1.82.87-2.33 3.6-1.13 6.1 1.2 2.51 3.65 3.83 5.47 2.96Z" fill="#fff"/><path d="M193.92 72.5c.39-2.77-2.4-5.44-6.21-5.97-3.82-.54-7.23 1.27-7.62 4.03-.38 2.76 2.4 5.43 6.21 5.96 3.82.54 7.23-1.27 7.62-4.03Zm-42.69 154.83c.73-2.91-.04-5.62-1.73-6.04-1.69-.42-3.65 1.6-4.38 4.5-.74 2.92.04 5.62 1.72 6.05 1.7.42 3.66-1.6 4.39-4.5Zm16.25-10.73c1.48-2.22 1.36-4.9-.25-5.97-1.62-1.07-4.13-.13-5.6 2.09-1.48 2.22-1.37 4.9.25 5.96 1.62 1.07 4.13.14 5.6-2.08Zm-8.26 10.48c2.59-1.1 3.46-4.88 1.95-8.45-1.51-3.58-4.84-5.59-7.43-4.5-2.6 1.1-3.47 4.88-1.95 8.46 1.5 3.57 4.84 5.58 7.43 4.49Zm43.78-58.3c1.89-.9 2.41-3.74 1.17-6.33-1.24-2.6-3.78-3.97-5.67-3.06-1.9.9-2.42 3.73-1.18 6.33 1.25 2.59 3.79 3.96 5.68 3.06Zm1.64-12.28c1.57-2.1 1.72-4.63.35-5.65-1.37-1.03-3.76-.15-5.33 1.95-1.57 2.1-1.72 4.63-.35 5.66 1.37 1.02 3.76.14 5.33-1.96Zm-185.41-86.9c1.83-4.18.86-8.64-2.17-9.97-3.04-1.33-6.98.99-8.82 5.17-1.83 4.18-.86 8.64 2.18 9.97 3.03 1.32 6.98-.99 8.8-5.17Zm-9.93 15.43c2.2-1.06 2.81-4.39 1.35-7.44-1.46-3.04-4.44-4.66-6.65-3.6-2.2 1.05-2.82 4.38-1.35 7.43 1.46 3.05 4.43 4.66 6.64 3.6Zm114.37 38.67c1.58-2.12 1.74-4.66.36-5.69-1.38-1.03-3.77-.15-5.35 1.97-1.58 2.11-1.74 4.66-.36 5.68 1.38 1.03 3.78.15 5.36-1.96Zm-49.65 78.43c2.17-1.04 2.77-4.3 1.34-7.27-1.43-2.98-4.34-4.56-6.51-3.52-2.17 1.03-2.77 4.3-1.34 7.27 1.42 2.98 4.34 4.55 6.5 3.52Z" fill="#fff"/><path d="M80.62 209.11c.45-3.2-2.77-6.29-7.2-6.9-4.41-.62-8.36 1.47-8.81 4.66-.45 3.2 2.77 6.29 7.2 6.9 4.42.62 8.36-1.46 8.81-4.66Zm-4.47-22.07c1.9-2.56 2.1-5.64.43-6.88-1.67-1.25-4.57-.19-6.48 2.37-1.91 2.56-2.1 5.64-.44 6.89 1.67 1.24 4.58.18 6.49-2.38Zm147.85 117.18c.02-1.67-2.18-3.04-4.9-3.05-2.72-.01-4.94 1.33-4.94 3-.01 1.67 2.19 3.03 4.9 3.04 2.73.02 4.94-1.32 4.95-3Zm19.49 12.98c1.45-.94 1.4-3.6-.13-5.97-1.52-2.36-3.94-3.52-5.39-2.58-1.45.93-1.4 3.6.13 5.97 1.52 2.36 3.94 3.51 5.39 2.58Zm12.78-43.16c2.85-.2 5.07-1.7 4.96-3.34-.12-1.65-2.53-2.83-5.38-2.63-2.85.2-5.07 1.7-4.95 3.35.11 1.65 2.52 2.82 5.37 2.62Zm8.25-18.65c4.3-1.35 7.15-4.43 6.38-6.88-.78-2.45-4.88-3.34-9.17-1.99-4.3 1.35-7.15 4.43-6.38 6.88.78 2.45 4.88 3.34 9.17 1.99Zm-26.79 13.21c.96-4.1-.1-7.87-2.36-8.4-2.27-.52-4.88 2.38-5.84 6.48-.97 4.1.1 7.87 2.36 8.4 2.27.52 4.88-2.38 5.84-6.48Zm23.84 35.42c1.32-.85 1.44-3.01.26-4.83-1.17-1.82-3.2-2.61-4.51-1.76-1.32.85-1.44 3.01-.27 4.83 1.18 1.82 3.2 2.61 4.52 1.76Zm-8.6 63.92c1.39-.9 1.51-3.17.28-5.1-1.24-1.9-3.37-2.74-4.76-1.84-1.4.9-1.52 3.18-.28 5.1 1.23 1.91 3.37 2.74 4.76 1.84Zm-3.9-109.72c2.43-1.31 3.72-3.63 2.88-5.18-.84-1.55-3.48-1.74-5.91-.43-2.43 1.3-3.72 3.63-2.88 5.18.84 1.55 3.49 1.74 5.91.43Zm-107.54 32.27c4.06-1.28 6.76-4.2 6.03-6.52-.73-2.32-4.62-3.16-8.68-1.88-4.07 1.28-6.77 4.2-6.03 6.51.73 2.32 4.62 3.17 8.68 1.89Zm-16.15 3.51c2.8-1.5 4.28-4.18 3.31-5.96-.96-1.78-4.01-2-6.8-.5-2.8 1.5-4.28 4.18-3.32 5.96.97 1.78 4.02 2 6.8.5Zm99.01-3.8c2.89-.8 4.22-5.11 2.96-9.63-1.26-4.52-4.62-7.54-7.51-6.73-2.9.8-4.22 5.11-2.97 9.63 1.26 4.52 4.62 7.53 7.52 6.73Zm43.54-24.09c1.33-2.38 1.15-5.01-.4-5.88-1.56-.88-3.9.35-5.24 2.73-1.33 2.38-1.15 5.01.4 5.88 1.56.88 3.9-.35 5.24-2.73Zm-9.8 77.26c1.66-1.07 1.92-3.62.57-5.7-1.34-2.08-3.77-2.9-5.43-1.83-1.66 1.06-1.91 3.62-.57 5.7 1.34 2.07 3.77 2.9 5.43 1.83Zm5.46-108.93c.1-1.69-2.19-3.2-5.11-3.38-2.92-.17-5.38 1.05-5.48 2.74-.1 1.69 2.19 3.2 5.1 3.38 2.93.17 5.39-1.05 5.49-2.74Zm30.29 21.61c3.55-1.36 5.72-4.29 4.86-6.55-.87-2.26-4.45-3-8-1.64-3.54 1.36-5.71 4.29-4.85 6.55.87 2.26 4.45 3 8 1.64Zm-118.41 123.63c3.77-.78 6.4-3.4 5.9-5.86-.51-2.45-3.98-3.8-7.75-3.02-3.77.78-6.4 3.4-5.9 5.85.52 2.46 3.98 3.81 7.75 3.03Z" fill="#fff"/><path d="M166.86 386.17c3.74-1.44 6.02-4.55 5.1-6.93-.93-2.38-4.7-3.14-8.44-1.7-3.74 1.44-6.02 4.55-5.1 6.93.93 2.38 4.7 3.14 8.44 1.7Zm54.62-29.24c3.63-.75 6.17-3.27 5.68-5.63-.5-2.36-3.83-3.66-7.45-2.9-3.63.74-6.17 3.26-5.68 5.62.5 2.36 3.83 3.66 7.45 2.91Zm-9.03 8.37c3.54-1.35 5.71-4.27 4.85-6.53-.87-2.26-4.44-2.99-7.98-1.64-3.54 1.36-5.7 4.28-4.84 6.54.86 2.26 4.44 2.99 7.97 1.64Zm92.32-133.74c2.4-3.2 2.64-7.08.54-8.65-2.1-1.56-5.75-.22-8.15 2.99-2.4 3.21-2.64 7.09-.54 8.65 2.1 1.56 5.75.23 8.15-2.99Zm-114.93 167.83c2.97-.21 5.28-1.77 5.16-3.49-.12-1.72-2.63-2.94-5.6-2.74-2.97.21-5.28 1.77-5.16 3.5.12 1.71 2.63 2.94 5.6 2.73Zm-11.7 4.58c3-.2 5.35-1.79 5.23-3.53-.12-1.74-2.66-2.98-5.67-2.77-3.01.2-5.36 1.79-5.23 3.53.12 1.74 2.66 2.98 5.67 2.77Zm26.76 2.3c2.17-1.17 3.32-3.24 2.58-4.62-.75-1.38-3.11-1.55-5.28-.38-2.16 1.17-3.31 3.24-2.57 4.62.75 1.38 3.11 1.55 5.28.38Zm52.82-52.71c1.46-.7 1.73-3.18.6-5.56-1.12-2.38-3.22-3.75-4.69-3.06-1.46.7-1.73 3.18-.6 5.56 1.13 2.38 3.23 3.75 4.69 3.06Zm-41.92 29.63c.1-1.72-2.21-3.25-5.18-3.43-2.96-.18-5.45 1.06-5.56 2.78-.1 1.72 2.22 3.25 5.19 3.43 2.96.18 5.45-1.07 5.56-2.78Zm48.62 9.33c2.96-2.4 4.2-5.77 2.77-7.52-1.43-1.76-4.99-1.24-7.94 1.17-2.96 2.4-4.2 5.77-2.77 7.52 1.43 1.76 4.98 1.24 7.94-1.17Zm-31.22-18.26c5.04-4.45 7.11-10.33 4.64-13.12-2.48-2.8-8.57-1.45-13.6 3-5.04 4.46-7.11 10.34-4.64 13.13 2.48 2.8 8.57 1.44 13.6-3.01Zm6.56-26.84c1.57-.74 2.01-3.1.99-5.26-1.03-2.16-3.13-3.31-4.7-2.57-1.57.74-2.01 3.1-.99 5.26 1.03 2.16 3.13 3.32 4.7 2.57Zm29.66 30.35c2.22-.31 3.62-3.38 3.13-6.85-.5-3.47-2.7-6.02-4.91-5.7-2.22.3-3.62 3.37-3.13 6.84.5 3.47 2.69 6.03 4.91 5.71Zm-1.26-14.73c2.53-1.2 3.36-4.75 1.86-7.93-1.51-3.18-4.79-4.78-7.32-3.59-2.53 1.2-3.36 4.75-1.85 7.93 1.5 3.18 4.78 4.79 7.31 3.59Zm-124.4-154.93c2.16-.3 3.52-3.28 3.04-6.64-.48-3.37-2.6-5.85-4.76-5.54-2.16.3-3.52 3.28-3.04 6.64.48 3.37 2.61 5.85 4.76 5.54Zm-1.19-14.45c2.59-1.22 3.43-4.84 1.9-8.08-1.54-3.24-4.88-4.88-7.46-3.66-2.58 1.23-3.43 4.84-1.89 8.08 1.54 3.24 4.87 4.88 7.45 3.66Zm148.59 14.14c2.06-.3 3.36-3.14 2.9-6.35-.45-3.21-2.5-5.58-4.55-5.3-2.06.3-3.36 3.14-2.9 6.35.45 3.22 2.49 5.59 4.55 5.3Zm-1.22-12.62c2.51-1.19 3.34-4.7 1.84-7.87-1.5-3.15-4.74-4.75-7.25-3.56-2.52 1.19-3.34 4.71-1.84 7.87 1.5 3.15 4.74 4.75 7.25 3.56Zm-55.09 193.82c1.64-2.2 1.81-4.85.37-5.92-1.44-1.07-3.94-.16-5.58 2.05-1.65 2.2-1.81 4.85-.38 5.93 1.44 1.07 3.94.15 5.59-2.05Zm1.77-53.57c.21-1.64-1.78-3.25-4.46-3.6-2.68-.35-5.03.69-5.24 2.33-.22 1.64 1.78 3.26 4.46 3.6 2.68.36 5.02-.69 5.24-2.33Zm-24.69-11.53c1.61-.76 1.91-3.51.66-6.14-1.24-2.64-3.57-4.15-5.19-3.39-1.62.77-1.91 3.52-.67 6.16 1.25 2.63 3.58 4.15 5.2 3.38Zm-8.67 53.27c1.67-1.35 2.38-3.25 1.57-4.25-.8-.99-2.81-.69-4.49.67-1.67 1.36-2.37 3.26-1.56 4.25.8.99 2.81.69 4.48-.67Zm-9.53 7.98c3.47-1.32 5.6-4.2 4.75-6.4-.85-2.22-4.35-2.94-7.82-1.61-3.47 1.32-5.6 4.2-4.75 6.4.84 2.22 4.35 2.94 7.82 1.61Z" fill="#fff"/><path d="M221.37 348.78c1.95-.28 3.18-2.97 2.75-6.02-.44-3.05-2.37-5.3-4.32-5.02-1.95.27-3.19 2.97-2.75 6.02.43 3.05 2.36 5.3 4.31 5.02Zm3.03-33.78c1.69-.79 2.24-3.15 1.24-5.26-1-2.1-3.17-3.17-4.86-2.38-1.68.8-2.23 3.15-1.23 5.26s3.18 3.18 4.86 2.38Z" fill="#fff"/></svg>