<svg viewBox="0 0 33 22" fill="currentColor" xmlns="http://www.w3.org/2000/svg"><g clip-path="url(#a)"><path d="M31.72 3.6a3.72 3.72 0 0 0-1.04-1.68 4.1 4.1 0 0 0-1.8-.97c-2.48-.63-12.48-.63-12.48-.63s-10 .01-12.48.65c-.68.17-1.3.5-1.8.97s-.86 1.05-1.04 1.69c-.75 4.13-1.04 10.44.02 14.4.19.64.54 1.22 1.04 1.69s1.12.8 1.8.97c2.48.64 12.48.64 12.48.64s10 0 12.49-.64a4.1 4.1 0 0 0 1.8-.97 3.7 3.7 0 0 0 1.03-1.68c.8-4.14 1.04-10.45-.02-14.43Z" fill="currentColor" fill-opacity=".7"/><path d="m13.22 15.32 8.3-4.5-8.3-4.5v9Z" fill="#fff"/></g><defs><clipPath id="a"><path fill="#fff" transform="translate(.406 .315)" d="M0 0h32.03v21.1h-32.03z"/></clipPath></defs></svg>
