<svg viewBox="0 0 47 60" fill="none" xmlns="http://www.w3.org/2000/svg"><path d="M0 30.86v-1.72l18.55-29.14 4.32 2.1c.7.35 1.21.8 1.56 1.35.35.55.52 1.14.52 1.8a4.7 4.7 0 0 1-.74 2.47l-11.85 19.55a12.1 12.1 0 0 1-2.08 2.77 12 12 0 0 1 2.08 2.7l11.85 19.54c.25.4.42.83.52 1.28a4 4 0 0 1 .22 1.27c0 1.4-.7 2.42-2.08 3.07l-4.32 2.1-18.55-29.14Zm22.05 0v-1.72l18.54-29.14 4.32 2.1c.7.35 1.22.8 1.57 1.35.35.55.52 1.14.52 1.8a4.7 4.7 0 0 1-.74 2.47l-11.85 19.55a12.1 12.1 0 0 1-2.08 2.77 12 12 0 0 1 2.08 2.7l11.85 19.54c.24.4.42.83.52 1.28a4 4 0 0 1 .22 1.27c0 1.4-.7 2.42-2.09 3.07l-4.32 2.1-18.54-29.14Z" fill="#fff"/></svg>